STARTFONT 2.1
FONT -GB2312-Medium-R-Normal
SIZE 16 75 75
FONTBOUNDINGBOX 16 16 0 -1
STARTPROPERTIES 2
FONT_ASCENT 15
FONT_DESCENT 1
ENDPROPERTIES
CHARS 6869
STARTCHAR char0
ENCODING 0
SWIDTH 722 0
DWIDTH 10 0
BBX 7 11 1 0
BITMAP
AA
00
82
00
82
00
82
00
82
00
AA
ENDCHAR
STARTCHAR space
ENCODING 32
SWIDTH 278 0
DWIDTH 4 0
BBX 1 1 0 0
BITMAP
00
ENDCHAR
STARTCHAR exclam
ENCODING 33
SWIDTH 480 0
DWIDTH 4 0
BBX 8 16 0 -1
BITMAP
00
40
40
40
40
40
40
40
40
40
40
00
00
40
40
00
ENDCHAR
STARTCHAR quotedbl
ENCODING 34
SWIDTH 480 0
DWIDTH 7 0
BBX 8 16 0 -1
BITMAP
00
6c
6c
24
48
00
00
00
00
00
00
00
00
00
00
00
ENDCHAR
STARTCHAR numbersign
ENCODING 35
SWIDTH 480 0
DWIDTH 7 0
BBX 8 16 0 -1
BITMAP
00
48
48
48
fc
48
48
48
48
48
fc
48
48
48
48
00
ENDCHAR
STARTCHAR dollar
ENCODING 36
SWIDTH 480 0
DWIDTH 8 0
BBX 8 16 0 -1
BITMAP
00
10
7c
92
92
90
90
78
14
12
12
92
92
7c
10
00
ENDCHAR
STARTCHAR percent
ENCODING 37
SWIDTH 480 0
DWIDTH 8 0
BBX 8 16 0 -1
BITMAP
00
62
92
94
94
68
08
10
10
20
2c
52
52
92
8c
00
ENDCHAR
STARTCHAR ampersand
ENCODING 38
SWIDTH 480 0
DWIDTH 8 0
BBX 8 16 0 -1
BITMAP
00
00
30
48
48
48
48
30
22
72
94
94
88
8c
72
00
ENDCHAR
STARTCHAR quotesingle
ENCODING 39
SWIDTH 240 0
DWIDTH 4 0
BBX 4 16 0 -1
BITMAP
00
60
60
20
40
00
00
00
00
00
00
00
00
00
00
00
ENDCHAR
STARTCHAR parenleft
ENCODING 40
SWIDTH 480 0
DWIDTH 5 0
BBX 5 16 0 -1
BITMAP
00
10
20
40
40
40
80
80
80
80
40
40
40
20
10
00
ENDCHAR
STARTCHAR parenright
ENCODING 41
SWIDTH 480 0
DWIDTH 5 0
BBX 5 16 0 -1
BITMAP
00
80
40
20
20
20
10
10
10
10
20
20
20
40
80
00
ENDCHAR
STARTCHAR asterisk
ENCODING 42
SWIDTH 480 0
DWIDTH 8 0
BBX 8 16 0 -1
BITMAP
00
00
00
10
10
92
54
38
10
38
54
92
10
10
00
00
ENDCHAR
STARTCHAR plus
ENCODING 43
SWIDTH 480 0
DWIDTH 8 0
BBX 8 16 0 -1
BITMAP
00
00
00
00
10
10
10
10
fe
10
10
10
10
00
00
00
ENDCHAR
STARTCHAR comma
ENCODING 44
SWIDTH 480 0
DWIDTH 4 0
BBX 8 16 0 -1
BITMAP
00
00
00
00
00
00
00
00
00
00
00
60
60
20
40
00
ENDCHAR
STARTCHAR hyphen
ENCODING 45
SWIDTH 480 0
DWIDTH 8 0
BBX 8 16 0 -1
BITMAP
00
00
00
00
00
00
00
00
fe
00
00
00
00
00
00
00
ENDCHAR
STARTCHAR period
ENCODING 46
SWIDTH 480 0
DWIDTH 4 0
BBX 8 16 0 -1
BITMAP
00
00
00
00
00
00
00
00
00
00
00
00
60
60
00
00
ENDCHAR
STARTCHAR slash
ENCODING 47
SWIDTH 480 0
DWIDTH 8 0
BBX 8 16 0 -1
BITMAP
00
02
02
04
04
08
08
10
10
20
20
40
40
80
80
00
ENDCHAR
STARTCHAR zero
ENCODING 48
SWIDTH 480 0
DWIDTH 8 0
BBX 8 16 0 -1
BITMAP
00
7c
82
82
86
8a
8a
92
92
a2
a2
c2
82
82
7c
00
ENDCHAR
STARTCHAR one
ENCODING 49
SWIDTH 480 0
DWIDTH 8 0
BBX 8 16 0 -1
BITMAP
00
10
30
10
10
10
10
10
10
10
10
10
10
10
38
00
ENDCHAR
STARTCHAR two
ENCODING 50
SWIDTH 480 0
DWIDTH 8 0
BBX 8 16 0 -1
BITMAP
00
38
44
82
82
02
04
08
08
10
20
20
40
80
fe
00
ENDCHAR
STARTCHAR three
ENCODING 51
SWIDTH 480 0
DWIDTH 8 0
BBX 8 16 0 -1
BITMAP
00
38
44
82
82
02
04
18
04
02
02
82
82
44
38
00
ENDCHAR
STARTCHAR four
ENCODING 52
SWIDTH 480 0
DWIDTH 8 0
BBX 8 16 0 -1
BITMAP
00
04
0c
14
14
24
24
24
44
44
84
fe
04
04
0e
00
ENDCHAR
STARTCHAR five
ENCODING 53
SWIDTH 480 0
DWIDTH 8 0
BBX 8 16 0 -1
BITMAP
00
fe
80
80
80
b8
c4
82
02
02
02
82
82
44
38
00
ENDCHAR
STARTCHAR six
ENCODING 54
SWIDTH 480 0
DWIDTH 8 0
BBX 8 16 0 -1
BITMAP
00
3c
40
80
80
80
b8
c4
82
82
82
82
82
44
38
00
ENDCHAR
STARTCHAR seven
ENCODING 55
SWIDTH 480 0
DWIDTH 8 0
BBX 8 16 0 -1
BITMAP
00
fe
82
82
82
02
04
04
08
08
10
10
10
10
10
00
ENDCHAR
STARTCHAR eight
ENCODING 56
SWIDTH 480 0
DWIDTH 8 0
BBX 8 16 0 -1
BITMAP
00
38
44
82
82
82
44
38
44
82
82
82
82
44
38
00
ENDCHAR
STARTCHAR nine
ENCODING 57
SWIDTH 480 0
DWIDTH 8 0
BBX 8 16 0 -1
BITMAP
00
38
44
82
82
82
82
82
46
3a
02
02
02
04
78
00
ENDCHAR
STARTCHAR colon
ENCODING 58
SWIDTH 480 0
DWIDTH 4 0
BBX 4 16 0 -1
BITMAP
00
00
00
60
60
00
00
00
00
00
00
60
60
00
00
00
ENDCHAR
STARTCHAR semicolon
ENCODING 59
SWIDTH 480 0
DWIDTH 4 0
BBX 4 16 0 -1
BITMAP
00
00
00
60
60
00
00
00
00
00
00
60
60
20
40
00
ENDCHAR
STARTCHAR less
ENCODING 60
SWIDTH 480 0
DWIDTH 8 0
BBX 8 16 0 -1
BITMAP
00
02
04
08
10
20
40
80
80
40
20
10
08
04
02
00
ENDCHAR
STARTCHAR equal
ENCODING 61
SWIDTH 480 0
DWIDTH 8 0
BBX 8 16 0 -1
BITMAP
00
00
00
00
00
00
fe
00
00
00
fe
00
00
00
00
00
ENDCHAR
STARTCHAR greater
ENCODING 62
SWIDTH 480 0
DWIDTH 8 0
BBX 8 16 0 -1
BITMAP
00
80
40
20
10
08
04
02
02
04
08
10
20
40
80
00
ENDCHAR
STARTCHAR question
ENCODING 63
SWIDTH 480 0
DWIDTH 8 0
BBX 8 16 0 -1
BITMAP
00
38
44
82
82
82
02
04
08
10
10
00
00
10
10
00
ENDCHAR
STARTCHAR at
ENCODING 64
SWIDTH 480 0
DWIDTH 8 0
BBX 8 16 0 -1
BITMAP
00
38
44
82
82
ba
ea
ca
ca
ca
ee
bc
80
42
3c
00
ENDCHAR
STARTCHAR A
ENCODING 65
SWIDTH 480 0
DWIDTH 8 0
BBX 8 16 0 -1
BITMAP
00
10
28
44
82
82
82
82
fe
82
82
82
82
82
82
00
ENDCHAR
STARTCHAR B
ENCODING 66
SWIDTH 480 0
DWIDTH 8 0
BBX 8 16 0 -1
BITMAP
00
f0
88
84
84
84
88
f8
84
82
82
82
82
84
f8
00
ENDCHAR
STARTCHAR C
ENCODING 67
SWIDTH 480 0
DWIDTH 8 0
BBX 8 16 0 -1
BITMAP
00
38
44
82
82
80
80
80
80
80
80
82
82
44
38
00
ENDCHAR
STARTCHAR D
ENCODING 68
SWIDTH 480 0
DWIDTH 8 0
BBX 8 16 0 -1
BITMAP
00
f8
84
82
82
82
82
82
82
82
82
82
82
84
f8
00
ENDCHAR
STARTCHAR E
ENCODING 69
SWIDTH 480 0
DWIDTH 8 0
BBX 8 16 0 -1
BITMAP
00
fe
80
80
80
80
80
fc
80
80
80
80
80
80
fe
00
ENDCHAR
STARTCHAR F
ENCODING 70
SWIDTH 480 0
DWIDTH 8 0
BBX 8 16 0 -1
BITMAP
00
fe
80
80
80
80
fc
80
80
80
80
80
80
80
80
00
ENDCHAR
STARTCHAR G
ENCODING 71
SWIDTH 480 0
DWIDTH 8 0
BBX 8 16 0 -1
BITMAP
00
38
44
82
82
80
80
8e
82
82
82
82
82
46
3a
00
ENDCHAR
STARTCHAR H
ENCODING 72
SWIDTH 480 0
DWIDTH 8 0
BBX 8 16 0 -1
BITMAP
00
82
82
82
82
82
82
fe
82
82
82
82
82
82
82
00
ENDCHAR
STARTCHAR I
ENCODING 73
SWIDTH 480 0
DWIDTH 5 0
BBX 4 16 0 -1
BITMAP
00
70
20
20
20
20
20
20
20
20
20
20
20
20
70
00
ENDCHAR
STARTCHAR J
ENCODING 74
SWIDTH 480 0
DWIDTH 8 0
BBX 8 16 0 -1
BITMAP
00
0e
04
04
04
04
04
04
04
04
04
04
84
88
70
00
ENDCHAR
STARTCHAR K
ENCODING 75
SWIDTH 480 0
DWIDTH 8 0
BBX 8 16 0 -1
BITMAP
00
82
84
88
90
a0
e0
90
90
88
88
84
84
82
82
00
ENDCHAR
STARTCHAR L
ENCODING 76
SWIDTH 480 0
DWIDTH 8 0
BBX 8 16 0 -1
BITMAP
00
80
80
80
80
80
80
80
80
80
80
80
80
80
fe
00
ENDCHAR
STARTCHAR M
ENCODING 77
SWIDTH 480 0
DWIDTH 8 0
BBX 8 16 0 -1
BITMAP
00
82
c6
aa
aa
92
92
82
82
82
82
82
82
82
82
00
ENDCHAR
STARTCHAR N
ENCODING 78
SWIDTH 480 0
DWIDTH 8 0
BBX 8 16 0 -1
BITMAP
00
82
82
c2
c2
a2
a2
92
92
8a
8a
86
86
82
82
00
ENDCHAR
STARTCHAR O
ENCODING 79
SWIDTH 480 0
DWIDTH 8 0
BBX 8 16 0 -1
BITMAP
00
38
44
82
82
82
82
82
82
82
82
82
82
44
38
00
ENDCHAR
STARTCHAR P
ENCODING 80
SWIDTH 480 0
DWIDTH 8 0
BBX 8 16 0 -1
BITMAP
00
f8
84
82
82
82
82
84
f8
80
80
80
80
80
80
00
ENDCHAR
STARTCHAR Q
ENCODING 81
SWIDTH 480 0
DWIDTH 8 0
BBX 8 16 0 -1
BITMAP
00
38
44
82
82
82
82
82
82
a2
d2
8a
86
44
3a
00
ENDCHAR
STARTCHAR R
ENCODING 82
SWIDTH 480 0
DWIDTH 8 0
BBX 8 16 0 -1
BITMAP
00
f8
84
82
82
82
82
84
f8
90
88
84
84
82
82
00
ENDCHAR
STARTCHAR S
ENCODING 83
SWIDTH 480 0
DWIDTH 8 0
BBX 8 16 0 -1
BITMAP
00
38
44
82
82
82
80
60
1c
02
02
82
82
44
38
00
ENDCHAR
STARTCHAR T
ENCODING 84
SWIDTH 480 0
DWIDTH 8 0
BBX 8 16 0 -1
BITMAP
00
fe
10
10
10
10
10
10
10
10
10
10
10
10
10
00
ENDCHAR
STARTCHAR U
ENCODING 85
SWIDTH 480 0
DWIDTH 8 0
BBX 8 16 0 -1
BITMAP
00
82
82
82
82
82
82
82
82
82
82
82
82
44
38
00
ENDCHAR
STARTCHAR V
ENCODING 86
SWIDTH 480 0
DWIDTH 8 0
BBX 8 16 0 -1
BITMAP
00
82
82
82
82
82
82
82
82
44
44
28
28
10
10
00
ENDCHAR
STARTCHAR W
ENCODING 87
SWIDTH 480 0
DWIDTH 8 0
BBX 8 16 0 -1
BITMAP
00
82
82
82
82
82
82
92
92
92
aa
aa
44
44
44
00
ENDCHAR
STARTCHAR X
ENCODING 88
SWIDTH 480 0
DWIDTH 8 0
BBX 8 16 0 -1
BITMAP
00
82
82
44
44
28
28
10
10
28
28
44
44
82
82
00
ENDCHAR
STARTCHAR Y
ENCODING 89
SWIDTH 480 0
DWIDTH 8 0
BBX 8 16 0 -1
BITMAP
00
82
82
82
82
82
82
44
28
10
10
10
10
10
10
00
ENDCHAR
STARTCHAR Z
ENCODING 90
SWIDTH 480 0
DWIDTH 8 0
BBX 8 16 0 -1
BITMAP
00
fe
02
04
04
08
08
10
10
20
20
40
40
80
fe
00
ENDCHAR
STARTCHAR bracketleft
ENCODING 91
SWIDTH 480 0
DWIDTH 5 0
BBX 8 16 0 -1
BITMAP
00
f0
80
80
80
80
80
80
80
80
80
80
80
80
f0
00
ENDCHAR
STARTCHAR backslash
ENCODING 92
SWIDTH 480 0
DWIDTH 8 0
BBX 8 16 0 -1
BITMAP
00
80
80
40
40
20
20
10
10
08
08
04
04
02
02
00
ENDCHAR
STARTCHAR bracketright
ENCODING 93
SWIDTH 480 0
DWIDTH 5 0
BBX 8 16 0 -1
BITMAP
00
f0
10
10
10
10
10
10
10
10
10
10
10
10
f0
00
ENDCHAR
STARTCHAR asciicircum
ENCODING 94
SWIDTH 480 0
DWIDTH 5 0
BBX 8 16 0 -1
BITMAP
00
00
60
90
00
00
00
00
00
00
00
00
00
00
00
00
ENDCHAR
STARTCHAR underscore
ENCODING 95
SWIDTH 480 0
DWIDTH 8 0
BBX 8 16 0 -1
BITMAP
00
00
00
00
00
00
00
00
00
00
00
00
00
00
fe
00
ENDCHAR
STARTCHAR grave
ENCODING 96
SWIDTH 480 0
DWIDTH 5 0
BBX 8 16 0 -1
BITMAP
00
60
20
30
00
00
00
00
00
00
00
00
00
00
00
00
ENDCHAR
STARTCHAR a
ENCODING 97
SWIDTH 480 0
DWIDTH 8 0
BBX 8 16 0 -1
BITMAP
00
00
00
00
00
78
84
04
04
3c
44
84
84
8c
76
00
ENDCHAR
STARTCHAR b
ENCODING 98
SWIDTH 480 0
DWIDTH 8 0
BBX 8 16 0 -1
BITMAP
00
00
80
80
80
80
b8
c4
82
82
82
82
82
c4
b8
00
ENDCHAR
STARTCHAR c
ENCODING 99
SWIDTH 480 0
DWIDTH 8 0
BBX 8 16 0 -1
BITMAP
00
00
00
00
00
38
44
82
82
80
80
82
82
44
38
00
ENDCHAR
STARTCHAR d
ENCODING 100
SWIDTH 480 0
DWIDTH 8 0
BBX 8 16 0 -1
BITMAP
00
00
02
02
02
02
3a
46
82
82
82
82
82
46
3a
00
ENDCHAR
STARTCHAR e
ENCODING 101
SWIDTH 480 0
DWIDTH 8 0
BBX 8 16 0 -1
BITMAP
00
00
00
00
00
38
44
82
82
fe
80
82
82
44
38
00
ENDCHAR
STARTCHAR f
ENCODING 102
SWIDTH 480 0
DWIDTH 7 0
BBX 8 16 0 -1
BITMAP
00
18
24
20
20
fc
20
20
20
20
20
20
20
20
20
00
ENDCHAR
STARTCHAR g
ENCODING 103
SWIDTH 480 0
DWIDTH 8 0
BBX 8 16 0 -1
BITMAP
00
00
00
00
00
3a
46
82
82
82
46
3a
82
82
44
38
ENDCHAR
STARTCHAR h
ENCODING 104
SWIDTH 480 0
DWIDTH 8 0
BBX 8 16 0 -1
BITMAP
00
80
80
80
80
80
98
a4
c2
82
82
82
82
82
82
00
ENDCHAR
STARTCHAR i
ENCODING 105
SWIDTH 480 0
DWIDTH 3 0
BBX 4 16 0 -1
BITMAP
00
00
00
40
40
00
00
40
40
40
40
40
40
40
40
00
ENDCHAR
STARTCHAR j
ENCODING 106
SWIDTH 480 0
DWIDTH 6 0
BBX 8 16 0 -1
BITMAP
00
00
00
08
08
00
00
08
08
08
08
08
08
88
88
70
ENDCHAR
STARTCHAR k
ENCODING 107
SWIDTH 480 0
DWIDTH 7 0
BBX 8 16 0 -1
BITMAP
00
00
80
80
80
82
84
88
90
a8
c8
84
84
82
82
00
ENDCHAR
STARTCHAR l
ENCODING 108
SWIDTH 480 0
DWIDTH 4 0
BBX 8 16 0 -1
BITMAP
00
60
20
20
20
20
20
20
20
20
20
20
20
20
20
00
ENDCHAR
STARTCHAR m
ENCODING 109
SWIDTH 480 0
DWIDTH 8 0
BBX 8 16 0 -1
BITMAP
00
00
00
00
00
80
b6
da
92
92
92
92
92
92
92
00
ENDCHAR
STARTCHAR n
ENCODING 110
SWIDTH 480 0
DWIDTH 7 0
BBX 8 16 0 -1
BITMAP
00
00
00
00
00
98
a4
c4
84
84
84
84
84
84
84
00
ENDCHAR
STARTCHAR o
ENCODING 111
SWIDTH 480 0
DWIDTH 8 0
BBX 8 16 0 -1
BITMAP
00
00
00
00
00
38
44
82
82
82
82
82
82
44
38
00
ENDCHAR
STARTCHAR p
ENCODING 112
SWIDTH 480 0
DWIDTH 8 0
BBX 8 16 0 -1
BITMAP
00
00
00
00
00
b8
c4
82
82
82
82
c4
b8
80
80
80
ENDCHAR
STARTCHAR q
ENCODING 113
SWIDTH 480 0
DWIDTH 8 0
BBX 8 16 0 -1
BITMAP
00
00
00
00
00
3a
46
82
82
82
82
46
3a
02
02
02
ENDCHAR
STARTCHAR r
ENCODING 114
SWIDTH 480 0
DWIDTH 7 0
BBX 8 16 0 -1
BITMAP
00
00
00
00
00
98
a4
c0
80
80
80
80
80
80
80
00
ENDCHAR
STARTCHAR s
ENCODING 115
SWIDTH 480 0
DWIDTH 7 0
BBX 8 16 0 -1
BITMAP
00
00
00
00
00
78
84
84
80
60
18
04
84
84
78
00
ENDCHAR
STARTCHAR t
ENCODING 116
SWIDTH 480 0
DWIDTH 7 0
BBX 8 16 0 -1
BITMAP
00
00
00
40
40
40
fc
40
40
40
40
40
44
44
38
00
ENDCHAR
STARTCHAR u
ENCODING 117
SWIDTH 480 0
DWIDTH 8 0
BBX 8 16 0 -1
BITMAP
00
00
00
00
00
42
42
42
42
42
42
42
42
46
3a
00
ENDCHAR
STARTCHAR v
ENCODING 118
SWIDTH 480 0
DWIDTH 8 0
BBX 8 16 0 -1
BITMAP
00
00
00
00
00
82
82
82
82
82
82
82
44
28
10
00
ENDCHAR
STARTCHAR w
ENCODING 119
SWIDTH 480 0
DWIDTH 8 0
BBX 8 16 0 -1
BITMAP
00
00
00
00
00
82
82
82
92
92
aa
aa
44
44
44
00
ENDCHAR
STARTCHAR x
ENCODING 120
SWIDTH 480 0
DWIDTH 8 0
BBX 8 16 0 -1
BITMAP
00
00
00
00
00
82
44
44
28
10
28
44
44
82
00
00
ENDCHAR
STARTCHAR y
ENCODING 121
SWIDTH 480 0
DWIDTH 7 0
BBX 8 16 0 -1
BITMAP
00
00
00
00
00
84
84
84
84
84
44
24
18
10
20
c0
ENDCHAR
STARTCHAR z
ENCODING 122
SWIDTH 480 0
DWIDTH 8 0
BBX 8 16 0 -1
BITMAP
00
00
00
00
00
fe
02
04
08
10
20
40
80
80
fe
00
ENDCHAR
STARTCHAR braceleft
ENCODING 123
SWIDTH 480 0
DWIDTH 5 0
BBX 8 16 0 -1
BITMAP
00
30
40
40
40
40
40
c0
c0
40
40
40
40
40
30
00
ENDCHAR
STARTCHAR bar
ENCODING 124
SWIDTH 480 0
DWIDTH 3 0
BBX 4 16 0 -1
BITMAP
00
40
40
40
40
40
40
40
40
40
40
40
40
40
40
00
ENDCHAR
STARTCHAR braceright
ENCODING 125
SWIDTH 480 0
DWIDTH 5 0
BBX 4 16 0 -1
BITMAP
00
c0
20
20
20
20
20
30
30
20
20
20
20
20
c0
00
ENDCHAR
STARTCHAR asciitilde
ENCODING 126
SWIDTH 480 0
DWIDTH 8 0
BBX 8 16 0 -1
BITMAP
00
00
60
92
0c
00
00
00
00
00
00
00
00
00
00
00
ENDCHAR
STARTCHAR 216b
ENCODING 176
SWIDTH 480 0
DWIDTH 6 0
BBX 8 16 0 -1
BITMAP
00
30
48
48
30
00
00
00
00
00
00
00
00
00
00
00
ENDCHAR
STARTCHAR micro
ENCODING 181
SWIDTH 480 0
DWIDTH 8 0
BBX 8 16 0 -1
BITMAP
00
00
00
00
00
22
22
22
22
44
44
44
6c
b6
82
00
ENDCHAR
STARTCHAR periodcentered
ENCODING 183
SWIDTH 480 0
DWIDTH 3 0
BBX 8 16 0 -1
BITMAP
00
00
00
00
00
00
00
c0
c0
00
00
00
00
00
00
00
ENDCHAR
STARTCHAR ohm
ENCODING 937
SWIDTH 480 0
DWIDTH 8 0
BBX 8 16 0 -1
BITMAP
00
38
44
82
82
82
82
82
82
82
44
28
28
28
ee
00
ENDCHAR
STARTCHAR U+3001
ENCODING 12289
SWIDTH 600 0
DWIDTH 16 0
BBX 16 16 0 -1
BITMAP 
0000
0000
0000
0000
0000
0000
0000
0000
0000
0000
0000
0000
2000
1000
0800
0800
ENDCHAR
STARTCHAR U+3002
ENCODING 12290
SWIDTH 600 0
DWIDTH 16 0
BBX 16 16 0 -1
BITMAP 
0000
0000
0000
0000
0000
0000
0000
0000
0000
0000
0000
3000
4800
4800
3000
0000
ENDCHAR
STARTCHAR 4E00
ENCODING 19968
SWIDTH 600 0
DWIDTH 16 0
BBX 16 16 0 -1
BITMAP
0000
0000
0000
0000
0000
0000
0000
FFFE
0000
0000
0000
0000
0000
0000
0000
0000
ENDCHAR
STARTCHAR 4E01
ENCODING 19969
SWIDTH 600 0
DWIDTH 16 0
BBX 16 16 0 -1
BITMAP
0000
7FFC
0100
0100
0100
0100
0100
0100
0100
0100
0100
0100
0100
0100
0500
0200
ENDCHAR
STARTCHAR 4E03
ENCODING 19971
SWIDTH 600 0
DWIDTH 16 0
BBX 16 16 0 -1
BITMAP
0200
0200
0200
0200
0200
023C
07C0
FA00
0200
0200
0200
0204
0204
0204
01FC
0000
ENDCHAR
STARTCHAR 4E07
ENCODING 19975
SWIDTH 600 0
DWIDTH 16 0
BBX 16 16 0 -1
BITMAP
0000
0000
FFFE
0400
0400
0400
07F0
0410
0410
0810
0810
1010
1010
2010
40A0
8040
ENDCHAR
STARTCHAR 4E08
ENCODING 19976
SWIDTH 600 0
DWIDTH 16 0
BBX 16 16 0 -1
BITMAP
0080
0080
0080
0080
7FFC
0080
1080
1080
0880
0480
0280
0100
0280
0440
1830
E00E
ENDCHAR
STARTCHAR 4E09
ENCODING 19977
SWIDTH 600 0
DWIDTH 16 0
BBX 16 16 0 -1
BITMAP
0000
0000
7FFC
0000
0000
0000
0000
3FF8
0000
0000
0000
0000
0000
FFFE
0000
0000
ENDCHAR
STARTCHAR 4E0A
ENCODING 19978
SWIDTH 600 0
DWIDTH 16 0
BBX 16 16 0 -1
BITMAP
0200
0200
0200
0200
0200
0200
03F8
0200
0200
0200
0200
0200
0200
0200
FFFE
0000
ENDCHAR
STARTCHAR 4E0B
ENCODING 19979
SWIDTH 600 0
DWIDTH 16 0
BBX 16 16 0 -1
BITMAP
0000
FFFE
0200
0200
0200
0200
0240
0220
0210
0208
0208
0200
0200
0200
0200
0200
ENDCHAR
STARTCHAR 4E0C
ENCODING 19980
SWIDTH 600 0
DWIDTH 16 0
BBX 16 16 0 -1
BITMAP
0000
FFFE
0820
0820
0820
0820
0820
0820
0820
0820
0820
1020
1020
2020
4020
8020
ENDCHAR
STARTCHAR 4E0D
ENCODING 19981
SWIDTH 600 0
DWIDTH 16 0
BBX 16 16 0 -1
BITMAP
0000
7FFC
0080
0080
0100
0100
0340
0520
0910
1108
2104
4104
8100
0100
0100
0100
ENDCHAR
STARTCHAR 4E0E
ENCODING 19982
SWIDTH 600 0
DWIDTH 16 0
BBX 16 16 0 -1
BITMAP
1000
1000
1000
1FFC
1000
2000
2000
3FF8
0008
0008
0008
FFC8
0008
0008
0050
0020
ENDCHAR
STARTCHAR 4E10
ENCODING 19984
SWIDTH 600 0
DWIDTH 16 0
BBX 16 16 0 -1
BITMAP
0000
FFFE
0100
0100
2100
21FC
2100
2100
2100
3FFC
0004
0004
0004
0004
0028
0010
ENDCHAR
STARTCHAR 4E11
ENCODING 19985
SWIDTH 600 0
DWIDTH 16 0
BBX 16 16 0 -1
BITMAP
0000
3FF0
0210
0210
0210
0210
0210
3FF0
0410
0410
0410
0410
0410
0410
FFFE
0000
ENDCHAR
STARTCHAR 4E13
ENCODING 19987
SWIDTH 600 0
DWIDTH 16 0
BBX 16 16 0 -1
BITMAP
0100
0100
0100
3FF8
0200
0200
FFFE
0400
0800
0FF0
0010
0020
0640
0180
0040
0020
ENDCHAR
STARTCHAR 4E14
ENCODING 19988
SWIDTH 600 0
DWIDTH 16 0
BBX 16 16 0 -1
BITMAP
0000
1FF0
1010
1010
1010
1FF0
1010
1010
1010
1FF0
1010
1010
1010
1010
FFFE
0000
ENDCHAR
STARTCHAR 4E15
ENCODING 19989
SWIDTH 600 0
DWIDTH 16 0
BBX 16 16 0 -1
BITMAP
0000
7FFC
0080
0100
0100
0340
0520
0910
3108
C104
0100
0100
0100
0000
FFFE
0000
ENDCHAR
STARTCHAR 4E16
ENCODING 19990
SWIDTH 600 0
DWIDTH 16 0
BBX 16 16 0 -1
BITMAP
0220
1220
1220
1220
1220
FFFE
1220
1220
1220
1220
13E0
1000
1000
1000
1FFC
0000
ENDCHAR
STARTCHAR 4E18
ENCODING 19992
SWIDTH 600 0
DWIDTH 16 0
BBX 16 16 0 -1
BITMAP
0010
0078
1F80
1000
1000
1000
1000
1FFC
1040
1040
1040
1040
1040
1040
FFFE
0000
ENDCHAR
STARTCHAR 4E19
ENCODING 19993
SWIDTH 600 0
DWIDTH 16 0
BBX 16 16 0 -1
BITMAP
0000
FFFE
0100
0100
0100
7FFC
4104
4104
4284
4244
4424
4824
4004
4004
4014
4008
ENDCHAR
STARTCHAR 4E1A
ENCODING 19994
SWIDTH 600 0
DWIDTH 16 0
BBX 16 16 0 -1
BITMAP
0440
0440
0440
0440
4444
2444
2448
1448
1450
1460
0440
0440
0440
0440
FFFE
0000
ENDCHAR
STARTCHAR 4E1B
ENCODING 19995
SWIDTH 600 0
DWIDTH 16 0
BBX 16 16 0 -1
BITMAP
0820
0820
0820
0820
0820
0820
0820
1450
1250
2288
2088
4104
8202
0000
FFFE
0000
ENDCHAR
STARTCHAR 4E1C
ENCODING 19996
SWIDTH 600 0
DWIDTH 16 0
BBX 16 16 0 -1
BITMAP
0200
0200
0200
7FFC
0400
0900
1100
2100
3FF8
0100
0920
1110
2108
4104
0500
0200
ENDCHAR
STARTCHAR 4E1D
ENCODING 19997
SWIDTH 600 0
DWIDTH 16 0
BBX 16 16 0 -1
BITMAP
0810
0810
1020
1020
2244
4284
7CF8
0408
0810
1020
2040
7EFC
0000
0000
FFFE
0000
ENDCHAR
STARTCHAR 4E1E
ENCODING 19998
SWIDTH 600 0
DWIDTH 16 0
BBX 16 16 0 -1
BITMAP
0000
3FF0
0020
0040
0080
7D04
0588
0950
0920
1110
2108
4106
8500
0200
FFFE
0000
ENDCHAR
STARTCHAR 4E22
ENCODING 20002
SWIDTH 600 0
DWIDTH 16 0
BBX 16 16 0 -1
BITMAP
0010
00F8
3F00
0100
0100
3FF8
0100
0100
0100
FFFE
0200
0400
0820
1010
3FF8
1008
ENDCHAR
STARTCHAR 4E24
ENCODING 20004
SWIDTH 600 0
DWIDTH 16 0
BBX 16 16 0 -1
BITMAP
0000
FFFE
0440
0440
0440
7FFC
4444
4444
4444
4AA4
4A94
5114
4204
4004
4014
4008
ENDCHAR
STARTCHAR 4E25
ENCODING 20005
SWIDTH 600 0
DWIDTH 16 0
BBX 16 16 0 -1
BITMAP
0000
7FFC
0240
1248
0A50
0240
3FFE
2000
2000
2000
2000
2000
2000
4000
4000
8000
ENDCHAR
STARTCHAR 4E27
ENCODING 20007
SWIDTH 600 0
DWIDTH 16 0
BBX 16 16 0 -1
BITMAP
0100
0100
7FFC
0100
1110
0910
0920
0100
FFFE
1200
1110
10A0
1040
1430
180E
1000
ENDCHAR
STARTCHAR 4E28
ENCODING 20008
SWIDTH 600 0
DWIDTH 16 0
BBX 16 16 0 -1
BITMAP
0100
0100
0100
0100
0100
0100
0100
0100
0100
0100
0100
0100
0100
0100
0100
0100
ENDCHAR
STARTCHAR 4E2A
ENCODING 20010
SWIDTH 600 0
DWIDTH 16 0
BBX 16 16 0 -1
BITMAP
0100
0100
0280
0440
0820
1010
2108
C106
0100
0100
0100
0100
0100
0100
0100
0100
ENDCHAR
STARTCHAR 4E2B
ENCODING 20011
SWIDTH 600 0
DWIDTH 16 0
BBX 16 16 0 -1
BITMAP
0000
2010
1020
0840
0480
0100
0100
0100
0100
0100
0100
0100
0100
0100
0100
0100
ENDCHAR
STARTCHAR 4E2C
ENCODING 20012
SWIDTH 600 0
DWIDTH 16 0
BBX 16 16 0 -1
BITMAP
0100
0100
0100
1100
0900
0900
0100
0300
0500
0900
3100
0100
0100
0100
0100
0100
ENDCHAR
STARTCHAR 4E2D
ENCODING 20013
SWIDTH 600 0
DWIDTH 16 0
BBX 16 16 0 -1
BITMAP
0100
0100
0100
0100
3FF8
2108
2108
2108
2108
2108
3FF8
2108
0100
0100
0100
0100
ENDCHAR
STARTCHAR 4E30
ENCODING 20016
SWIDTH 600 0
DWIDTH 16 0
BBX 16 16 0 -1
BITMAP
0100
0100
0100
7FFC
0100
0100
0100
3FF8
0100
0100
0100
FFFE
0100
0100
0100
0100
ENDCHAR
STARTCHAR 4E32
ENCODING 20018
SWIDTH 600 0
DWIDTH 16 0
BBX 16 16 0 -1
BITMAP
0100
0100
3FF8
2108
2108
3FF8
0100
0100
7FFC
4104
4104
7FFC
4104
0100
0100
0100
ENDCHAR
STARTCHAR 4E34
ENCODING 20020
SWIDTH 600 0
DWIDTH 16 0
BBX 16 16 0 -1
BITMAP
0880
0880
0880
49FE
4940
4A20
4C20
4800
49FC
4924
4924
4924
4924
09FC
0904
0800
ENDCHAR
STARTCHAR 4E36
ENCODING 20022
SWIDTH 600 0
DWIDTH 16 0
BBX 16 16 0 -1
BITMAP
0000
0000
0000
0000
0000
0400
0200
0100
0080
0040
0040
0000
0000
0000
0000
0000
ENDCHAR
STARTCHAR 4E38
ENCODING 20024
SWIDTH 600 0
DWIDTH 16 0
BBX 16 16 0 -1
BITMAP
0200
0200
0200
0200
7FE0
0220
1220
0A20
0420
0420
0A20
0922
1122
2022
401E
8000
ENDCHAR
STARTCHAR 4E39
ENCODING 20025
SWIDTH 600 0
DWIDTH 16 0
BBX 16 16 0 -1
BITMAP
0000
1FF0
1010
1010
1210
1110
1110
1010
FFFE
1010
1010
1010
2010
2010
4050
8020
ENDCHAR
STARTCHAR 4E3A
ENCODING 20026
SWIDTH 600 0
DWIDTH 16 0
BBX 16 16 0 -1
BITMAP
0100
2100
1100
1100
0100
7FF8
0208
0208
0288
0448
0448
0808
1008
2008
4050
8020
ENDCHAR
STARTCHAR 4E3B
ENCODING 20027
SWIDTH 600 0
DWIDTH 16 0
BBX 16 16 0 -1
BITMAP
0200
0100
0000
7FFC
0100
0100
0100
0100
3FF8
0100
0100
0100
0100
0100
FFFE
0000
ENDCHAR
STARTCHAR 4E3D
ENCODING 20029
SWIDTH 600 0
DWIDTH 16 0
BBX 16 16 0 -1
BITMAP
0000
FFFE
0000
0000
3EF8
2288
2288
2288
32C8
2AA8
2AA8
2288
2288
2288
2AA8
2490
ENDCHAR
STARTCHAR 4E3E
ENCODING 20030
SWIDTH 600 0
DWIDTH 16 0
BBX 16 16 0 -1
BITMAP
2208
1108
1110
0020
FFFE
0820
1110
2108
CFE6
0100
0100
7FFC
0100
0100
0100
0100
ENDCHAR
STARTCHAR 4E3F
ENCODING 20031
SWIDTH 600 0
DWIDTH 16 0
BBX 16 16 0 -1
BITMAP
0100
0100
0100
0100
0100
0100
0100
0100
0100
0200
0200
0400
0400
0800
1000
2000
ENDCHAR
STARTCHAR 4E43
ENCODING 20035
SWIDTH 600 0
DWIDTH 16 0
BBX 16 16 0 -1
BITMAP
0000
3FF0
0410
0420
0420
0440
047C
0404
0804
0804
0804
1004
1004
2004
4028
8010
ENDCHAR
STARTCHAR 4E45
ENCODING 20037
SWIDTH 600 0
DWIDTH 16 0
BBX 16 16 0 -1
BITMAP
0400
0400
0400
07E0
0820
0820
1040
2040
4080
0080
0140
0240
0420
0810
3008
C006
ENDCHAR
STARTCHAR 4E47
ENCODING 20039
SWIDTH 600 0
DWIDTH 16 0
BBX 16 16 0 -1
BITMAP
0020
03F0
3E00
0200
0200
0200
0200
03FC
FE00
0200
0200
0204
0204
0204
01FC
0000
ENDCHAR
STARTCHAR 4E48
ENCODING 20040
SWIDTH 600 0
DWIDTH 16 0
BBX 16 16 0 -1
BITMAP
0100
0100
0200
0200
0440
0840
1080
2080
4100
0200
0420
0810
1008
3FFC
1004
0000
ENDCHAR
STARTCHAR 4E49
ENCODING 20041
SWIDTH 600 0
DWIDTH 16 0
BBX 16 16 0 -1
BITMAP
0200
0110
2110
2010
1020
1020
0820
0840
0440
0280
0100
0280
0440
0820
3018
C006
ENDCHAR
STARTCHAR 4E4B
ENCODING 20043
SWIDTH 600 0
DWIDTH 16 0
BBX 16 16 0 -1
BITMAP
0200
0100
0100
0000
7FF8
0010
0020
0040
0080
0100
0200
0400
1800
2400
43FE
0000
ENDCHAR
STARTCHAR 4E4C
ENCODING 20044
SWIDTH 600 0
DWIDTH 16 0
BBX 16 16 0 -1
BITMAP
0100
0200
1FF0
1010
1010
1010
1050
1020
1000
1FFC
0004
0004
7FE4
0004
0028
0010
ENDCHAR
STARTCHAR 4E4D
ENCODING 20045
SWIDTH 600 0
DWIDTH 16 0
BBX 16 16 0 -1
BITMAP
0800
0800
0FFE
1200
1200
2200
43F8
8200
0200
0200
03FC
0200
0200
0200
0200
0200
ENDCHAR
STARTCHAR 4E4E
ENCODING 20046
SWIDTH 600 0
DWIDTH 16 0
BBX 16 16 0 -1
BITMAP
0010
00F8
3F00
0100
1110
0910
0920
0100
FFFE
0100
0100
0100
0100
0100
0500
0200
ENDCHAR
STARTCHAR 4E4F
ENCODING 20047
SWIDTH 600 0
DWIDTH 16 0
BBX 16 16 0 -1
BITMAP
0010
01F8
7E00
0000
0200
0100
0100
7FF8
0030
00C0
0300
0C00
3000
4800
87FE
0000
ENDCHAR
STARTCHAR 4E50
ENCODING 20048
SWIDTH 600 0
DWIDTH 16 0
BBX 16 16 0 -1
BITMAP
0020
00F0
1F00
1000
1100
2100
2100
3FFC
0100
0920
0910
1108
2104
4104
0500
0200
ENDCHAR
STARTCHAR 4E52
ENCODING 20050
SWIDTH 600 0
DWIDTH 16 0
BBX 16 16 0 -1
BITMAP
0020
00F0
1F00
1000
1000
1FF8
1080
1080
1080
1080
FFFE
0000
0800
1000
2000
4000
ENDCHAR
STARTCHAR 4E53
ENCODING 20051
SWIDTH 600 0
DWIDTH 16 0
BBX 16 16 0 -1
BITMAP
0020
00F0
1F00
1000
1000
1FF8
1080
1080
1080
1080
FFFE
0000
0040
0020
0010
0008
ENDCHAR
STARTCHAR 4E54
ENCODING 20052
SWIDTH 600 0
DWIDTH 16 0
BBX 16 16 0 -1
BITMAP
0010
00F8
3F00
0100
0200
7FFC
0440
0820
3018
C826
0820
0820
0820
1020
1020
2020
ENDCHAR
STARTCHAR 4E56
ENCODING 20054
SWIDTH 600 0
DWIDTH 16 0
BBX 16 16 0 -1
BITMAP
0070
1F80
0100
0100
FFFE
0100
0920
0924
7928
0930
0922
1922
E91E
0100
0100
0100
ENDCHAR
STARTCHAR 4E58
ENCODING 20056
SWIDTH 600 0
DWIDTH 16 0
BBX 16 16 0 -1
BITMAP
00F8
3F00
0100
7FFC
0100
0924
F938
0922
3922
CB9E
0540
0920
3118
C106
0100
0100
ENDCHAR
STARTCHAR 4E59
ENCODING 20057
SWIDTH 600 0
DWIDTH 16 0
BBX 16 16 0 -1
BITMAP
0000
7FF0
0020
0040
0080
0100
0200
0400
0800
1000
1000
2004
2004
2004
1FFC
0000
ENDCHAR
STARTCHAR 4E5C
ENCODING 20060
SWIDTH 600 0
DWIDTH 16 0
BBX 16 16 0 -1
BITMAP
0000
0000
1000
1030
10D0
1710
3810
D010
1010
1050
1020
1002
1002
1002
0FFE
0000
ENDCHAR
STARTCHAR 4E5D
ENCODING 20061
SWIDTH 600 0
DWIDTH 16 0
BBX 16 16 0 -1
BITMAP
0400
0400
0400
0400
7FE0
0420
0420
0420
0820
0820
0820
1022
1022
2022
401E
8000
ENDCHAR
STARTCHAR 4E5E
ENCODING 20062
SWIDTH 600 0
DWIDTH 16 0
BBX 16 16 0 -1
BITMAP
0800
0800
1FFC
1000
2000
4000
9FE0
0020
0040
0180
0600
0804
1004
1004
0FFC
0000
ENDCHAR
STARTCHAR 4E5F
ENCODING 20063
SWIDTH 600 0
DWIDTH 16 0
BBX 16 16 0 -1
BITMAP
0100
0100
1100
1130
11D0
1710
3910
D110
1110
1150
1120
1102
1002
1002
0FFE
0000
ENDCHAR
STARTCHAR 4E60
ENCODING 20064
SWIDTH 600 0
DWIDTH 16 0
BBX 16 16 0 -1
BITMAP
0000
7FF8
0008
0008
0808
0408
0208
0208
0068
0188
0E08
7008
2008
0008
0050
0020
ENDCHAR
STARTCHAR 4E61
ENCODING 20065
SWIDTH 600 0
DWIDTH 16 0
BBX 16 16 0 -1
BITMAP
0200
0200
0420
0820
1040
3F80
0108
0208
0410
1FE0
0040
0080
0100
0600
1800
E000
ENDCHAR
STARTCHAR 4E66
ENCODING 20070
SWIDTH 600 0
DWIDTH 16 0
BBX 16 16 0 -1
BITMAP
0220
0210
0208
3FE0
0220
0220
0220
0220
FFFC
0204
0204
0204
0204
0228
0210
0200
ENDCHAR
STARTCHAR 4E69
ENCODING 20073
SWIDTH 600 0
DWIDTH 16 0
BBX 16 16 0 -1
BITMAP
0820
0820
0820
0820
0FA0
0820
0820
0820
7F20
4120
4120
4122
4122
4122
7F1E
4100
ENDCHAR
STARTCHAR 4E70
ENCODING 20080
SWIDTH 600 0
DWIDTH 16 0
BBX 16 16 0 -1
BITMAP
0000
7FFC
0004
0888
0480
2480
1080
1080
0100
FFFE
0100
02C0
0420
0810
3008
C004
ENDCHAR
STARTCHAR 4E71
ENCODING 20081
SWIDTH 600 0
DWIDTH 16 0
BBX 16 16 0 -1
BITMAP
0440
0E40
3840
0840
0840
FF40
0840
0840
3E40
2240
2240
2242
2242
3E42
223E
0000
ENDCHAR
STARTCHAR 4E73
ENCODING 20083
SWIDTH 600 0
DWIDTH 16 0
BBX 16 16 0 -1
BITMAP
0220
0F20
F020
0120
9120
4A20
0020
FE20
0420
0820
0F20
F822
4822
0822
281E
1000
ENDCHAR
STARTCHAR 4E7E
ENCODING 20094
SWIDTH 600 0
DWIDTH 16 0
BBX 16 16 0 -1
BITMAP
1040
1040
1080
FEFE
1100
7E00
44FC
7C08
4410
7C20
1040
FE80
1102
1102
10FE
1000
ENDCHAR
STARTCHAR 4E86
ENCODING 20102
SWIDTH 600 0
DWIDTH 16 0
BBX 16 16 0 -1
BITMAP
0000
7FF8
0010
0020
0040
0180
0100
0100
0100
0100
0100
0100
0100
0100
0500
0200
ENDCHAR
STARTCHAR 4E88
ENCODING 20104
SWIDTH 600 0
DWIDTH 16 0
BBX 16 16 0 -1
BITMAP
0000
1FF0
0010
0220
0140
0080
7FFE
0082
0084
0080
0080
0080
0080
0080
0280
0100
ENDCHAR
STARTCHAR 4E89
ENCODING 20105
SWIDTH 600 0
DWIDTH 16 0
BBX 16 16 0 -1
BITMAP
0800
0800
1FE0
2020
4040
BFF8
0108
0108
7FFE
0108
0108
3FF8
0108
0100
0500
0200
ENDCHAR
STARTCHAR 4E8B
ENCODING 20107
SWIDTH 600 0
DWIDTH 16 0
BBX 16 16 0 -1
BITMAP
0100
0100
FFFE
0100
3FF8
2108
3FF8
0100
3FF8
0108
FFFE
0108
3FF8
0100
0500
0200
ENDCHAR
STARTCHAR 4E8C
ENCODING 20108
SWIDTH 600 0
DWIDTH 16 0
BBX 16 16 0 -1
BITMAP
0000
0000
0000
3FF8
0000
0000
0000
0000
0000
0000
0000
0000
FFFE
0000
0000
0000
ENDCHAR
STARTCHAR 4E8D
ENCODING 20109
SWIDTH 600 0
DWIDTH 16 0
BBX 16 16 0 -1
BITMAP
0000
3FF8
0000
0000
0000
0000
FFFE
0100
0100
0100
0100
0100
0100
0100
0500
0200
ENDCHAR
STARTCHAR 4E8E
ENCODING 20110
SWIDTH 600 0
DWIDTH 16 0
BBX 16 16 0 -1
BITMAP
0000
3FF8
0100
0100
0100
0100
FFFE
0100
0100
0100
0100
0100
0100
0100
0500
0200
ENDCHAR
STARTCHAR 4E8F
ENCODING 20111
SWIDTH 600 0
DWIDTH 16 0
BBX 16 16 0 -1
BITMAP
0000
3FF8
0000
0000
0000
FFFE
0400
0400
0800
0FF0
0010
0010
0010
0010
00A0
0040
ENDCHAR
STARTCHAR 4E91
ENCODING 20113
SWIDTH 600 0
DWIDTH 16 0
BBX 16 16 0 -1
BITMAP
0000
3FF8
0000
0000
0000
0000
FFFE
0200
0400
0400
0840
1020
2010
7FF8
2008
0008
ENDCHAR
STARTCHAR 4E92
ENCODING 20114
SWIDTH 600 0
DWIDTH 16 0
BBX 16 16 0 -1
BITMAP
0000
7FFC
0400
0400
0400
0FF0
0810
0810
1010
1020
1FE0
0020
0040
0040
FFFE
0000
ENDCHAR
STARTCHAR 4E93
ENCODING 20115
SWIDTH 600 0
DWIDTH 16 0
BBX 16 16 0 -1
BITMAP
0000
3FF8
0000
0000
0000
FFFE
0820
0820
0820
0820
0820
1020
1020
2020
4020
8020
ENDCHAR
STARTCHAR 4E94
ENCODING 20116
SWIDTH 600 0
DWIDTH 16 0
BBX 16 16 0 -1
BITMAP
0000
7FFC
0200
0200
0200
0200
3FF0
0410
0410
0410
0410
0810
0810
0810
FFFE
0000
ENDCHAR
STARTCHAR 4E95
ENCODING 20117
SWIDTH 600 0
DWIDTH 16 0
BBX 16 16 0 -1
BITMAP
0820
0820
0820
0820
7FFC
0820
0820
0820
0820
FFFE
0820
0820
1020
1020
2020
4020
ENDCHAR
STARTCHAR 4E98
ENCODING 20120
SWIDTH 600 0
DWIDTH 16 0
BBX 16 16 0 -1
BITMAP
0000
7FFC
0000
0000
1FF0
1010
1010
1FF0
1010
1010
1FF0
1010
0000
0000
FFFE
0000
ENDCHAR
STARTCHAR 4E9A
ENCODING 20122
SWIDTH 600 0
DWIDTH 16 0
BBX 16 16 0 -1
BITMAP
0000
7FFC
0440
0440
0440
0440
4444
2444
2448
1448
1450
0440
0440
0440
FFFE
0000
ENDCHAR
STARTCHAR 4E9B
ENCODING 20123
SWIDTH 600 0
DWIDTH 16 0
BBX 16 16 0 -1
BITMAP
0440
0440
2444
2748
2470
2442
2442
2F42
F03E
4000
0000
1FF0
0000
0000
7FFC
0000
ENDCHAR
STARTCHAR 4E9F
ENCODING 20127
SWIDTH 600 0
DWIDTH 16 0
BBX 16 16 0 -1
BITMAP
0000
3FF0
0020
0040
0180
793C
4904
4944
4928
4910
7928
0144
0500
0200
FFFE
0000
ENDCHAR
STARTCHAR 4EA0
ENCODING 20128
SWIDTH 600 0
DWIDTH 16 0
BBX 16 16 0 -1
BITMAP
0200
0100
0100
FFFE
0000
0000
0000
0000
0000
0000
0000
0000
0000
0000
0000
0000
ENDCHAR
STARTCHAR 4EA1
ENCODING 20129
SWIDTH 600 0
DWIDTH 16 0
BBX 16 16 0 -1
BITMAP
0200
0100
0100
0000
FFFE
1000
1000
1000
1000
1000
1000
1000
1000
1000
1FFC
0000
ENDCHAR
STARTCHAR 4EA2
ENCODING 20130
SWIDTH 600 0
DWIDTH 16 0
BBX 16 16 0 -1
BITMAP
0200
0100
0100
FFFE
0000
0000
0FE0
0820
0820
0820
0820
0822
1022
1022
201E
4000
ENDCHAR
STARTCHAR 4EA4
ENCODING 20132
SWIDTH 600 0
DWIDTH 16 0
BBX 16 16 0 -1
BITMAP
0200
0100
0100
FFFE
0000
1010
1008
2024
4824
0440
0280
0100
0280
0C40
3030
C00E
ENDCHAR
STARTCHAR 4EA5
ENCODING 20133
SWIDTH 600 0
DWIDTH 16 0
BBX 16 16 0 -1
BITMAP
0200
0100
0000
7FFC
0200
0400
0820
1040
3F88
0110
0620
1840
60A0
0310
0C08
7004
ENDCHAR
STARTCHAR 4EA6
ENCODING 20134
SWIDTH 600 0
DWIDTH 16 0
BBX 16 16 0 -1
BITMAP
0200
0100
0100
FFFE
0440
0440
2450
2448
2448
4444
4444
8844
0840
1040
2140
4080
ENDCHAR
STARTCHAR 4EA7
ENCODING 20135
SWIDTH 600 0
DWIDTH 16 0
BBX 16 16 0 -1
BITMAP
0200
0100
7FFC
0000
0820
0420
0440
3FFE
2000
2000
2000
2000
2000
4000
4000
8000
ENDCHAR
STARTCHAR 4EA8
ENCODING 20136
SWIDTH 600 0
DWIDTH 16 0
BBX 16 16 0 -1
BITMAP
0200
0100
FFFE
0000
1FF0
1010
1010
1FF0
0000
3FF0
0060
0180
0100
0100
0500
0200
ENDCHAR
STARTCHAR 4EA9
ENCODING 20137
SWIDTH 600 0
DWIDTH 16 0
BBX 16 16 0 -1
BITMAP
0200
0100
0100
FFFE
0000
0000
3FF8
2108
2108
2108
3FF8
2108
2108
2108
3FF8
2008
ENDCHAR
STARTCHAR 4EAB
ENCODING 20139
SWIDTH 600 0
DWIDTH 16 0
BBX 16 16 0 -1
BITMAP
0200
0100
7FFC
0000
1FF0
1010
1FF0
0000
1FE0
0040
0180
FFFE
0100
0100
0500
0200
ENDCHAR
STARTCHAR 4EAC
ENCODING 20140
SWIDTH 600 0
DWIDTH 16 0
BBX 16 16 0 -1
BITMAP
0200
0100
FFFE
0000
0000
1FF0
1010
1010
1010
1FF0
0100
1110
1108
2104
4504
0200
ENDCHAR
STARTCHAR 4EAD
ENCODING 20141
SWIDTH 600 0
DWIDTH 16 0
BBX 16 16 0 -1
BITMAP
0200
0100
7FFC
0000
1FF0
1010
1FF0
0000
7FFE
4002
9FF4
0100
0100
0100
0500
0200
ENDCHAR
STARTCHAR 4EAE
ENCODING 20142
SWIDTH 600 0
DWIDTH 16 0
BBX 16 16 0 -1
BITMAP
0200
0100
7FFC
0000
1FF0
1010
1FF0
0000
7FFE
4002
8FE4
0820
0820
1022
2022
C01E
ENDCHAR
STARTCHAR 4EB2
ENCODING 20146
SWIDTH 600 0
DWIDTH 16 0
BBX 16 16 0 -1
BITMAP
0200
0100
3FF8
0000
0820
0440
FFFE
0100
0100
7FFC
0100
0920
1110
2108
4504
0200
ENDCHAR
STARTCHAR 4EB3
ENCODING 20147
SWIDTH 600 0
DWIDTH 16 0
BBX 16 16 0 -1
BITMAP
0100
7FFC
0000
1FF0
1010
1FF0
0000
7FFE
4002
80F4
3F00
0200
03F8
7E02
0202
01FE
ENDCHAR
STARTCHAR 4EB5
ENCODING 20149
SWIDTH 600 0
DWIDTH 16 0
BBX 16 16 0 -1
BITMAP
0100
FFFE
0000
0840
7DF8
0848
0CC8
784A
08AA
2906
1302
0488
0C50
3530
C60E
0400
ENDCHAR
STARTCHAR 4EBA
ENCODING 20154
SWIDTH 600 0
DWIDTH 16 0
BBX 16 16 0 -1
BITMAP
0100
0100
0100
0100
0100
0100
0280
0280
0440
0440
0820
0820
1010
2008
4004
8002
ENDCHAR
STARTCHAR 4EBB
ENCODING 20155
SWIDTH 600 0
DWIDTH 16 0
BBX 16 16 0 -1
BITMAP
0800
0800
0800
1000
1000
3000
3000
5000
9000
1000
1000
1000
1000
1000
1000
1000
ENDCHAR
STARTCHAR 4EBF
ENCODING 20159
SWIDTH 600 0
DWIDTH 16 0
BBX 16 16 0 -1
BITMAP
0800
0800
0BFC
1008
1010
3020
3040
5080
9080
1100
1100
1202
1202
1202
11FE
1000
ENDCHAR
STARTCHAR 4EC0
ENCODING 20160
SWIDTH 600 0
DWIDTH 16 0
BBX 16 16 0 -1
BITMAP
0820
0820
0820
1020
1020
3020
37FE
5020
9020
1020
1020
1020
1020
1020
1020
1020
ENDCHAR
STARTCHAR 4EC1
ENCODING 20161
SWIDTH 600 0
DWIDTH 16 0
BBX 16 16 0 -1
BITMAP
0800
0800
0800
13FC
1000
3000
3000
5000
9000
1000
1000
1000
17FE
1000
1000
1000
ENDCHAR
STARTCHAR 4EC2
ENCODING 20162
SWIDTH 600 0
DWIDTH 16 0
BBX 16 16 0 -1
BITMAP
0840
0840
0840
1040
13FC
3044
3044
5044
9044
1084
1084
1084
1104
1104
1228
1410
ENDCHAR
STARTCHAR 4EC3
ENCODING 20163
SWIDTH 600 0
DWIDTH 16 0
BBX 16 16 0 -1
BITMAP
0800
0800
0BFE
1020
1020
3020
3020
5020
9020
1020
1020
1020
1020
1020
10A0
1040
ENDCHAR
STARTCHAR 4EC4
ENCODING 20164
SWIDTH 600 0
DWIDTH 16 0
BBX 16 16 0 -1
BITMAP
0000
3FFE
2000
2000
2080
2080
2080
2080
2080
2140
2140
2220
4220
4410
8808
1006
ENDCHAR
STARTCHAR 4EC5
ENCODING 20165
SWIDTH 600 0
DWIDTH 16 0
BBX 16 16 0 -1
BITMAP
0800
0BFC
0904
1104
1104
3088
3088
5088
9050
1050
1020
1020
1050
1088
1104
1602
ENDCHAR
STARTCHAR 4EC6
ENCODING 20166
SWIDTH 600 0
DWIDTH 16 0
BBX 16 16 0 -1
BITMAP
0840
0840
0840
1040
1040
3050
3048
5044
9044
1040
1040
1040
1040
1040
1040
1040
ENDCHAR
STARTCHAR 4EC7
ENCODING 20167
SWIDTH 600 0
DWIDTH 16 0
BBX 16 16 0 -1
BITMAP
0900
0900
0900
1100
17F0
3110
3110
5110
9110
1110
1110
1212
1212
1412
180E
1000
ENDCHAR
STARTCHAR 4EC9
ENCODING 20169
SWIDTH 600 0
DWIDTH 16 0
BBX 16 16 0 -1
BITMAP
0800
09F0
0910
1110
1110
3110
3110
5110
9110
1110
1110
1112
1112
1212
120E
1400
ENDCHAR
STARTCHAR 4ECA
ENCODING 20170
SWIDTH 600 0
DWIDTH 16 0
BBX 16 16 0 -1
BITMAP
0100
0100
0280
0440
0820
1210
2108
C106
0000
1FF0
0010
0020
0020
0040
0080
0100
ENDCHAR
STARTCHAR 4ECB
ENCODING 20171
SWIDTH 600 0
DWIDTH 16 0
BBX 16 16 0 -1
BITMAP
0100
0100
0280
0440
0820
1010
2008
C826
0820
0820
0820
0820
1020
1020
2020
4020
ENDCHAR
STARTCHAR 4ECD
ENCODING 20173
SWIDTH 600 0
DWIDTH 16 0
BBX 16 16 0 -1
BITMAP
0800
0800
0BF8
1088
1090
3090
30A0
50BC
9084
1084
1104
1104
1104
1204
1228
1410
ENDCHAR
STARTCHAR 4ECE
ENCODING 20174
SWIDTH 600 0
DWIDTH 16 0
BBX 16 16 0 -1
BITMAP
0820
0820
0820
0820
0820
0820
0820
0820
0850
1450
1250
1288
2088
2104
4204
8402
ENDCHAR
STARTCHAR 4ED1
ENCODING 20177
SWIDTH 600 0
DWIDTH 16 0
BBX 16 16 0 -1
BITMAP
0100
0100
0280
0440
0820
1010
2008
C806
0830
08C0
0F00
0808
0808
0808
07F8
0000
ENDCHAR
STARTCHAR 4ED3
ENCODING 20179
SWIDTH 600 0
DWIDTH 16 0
BBX 16 16 0 -1
BITMAP
0100
0100
0280
0440
0820
3018
C006
0FE0
0820
0820
08A0
0844
0804
0804
07FC
0000
ENDCHAR
STARTCHAR 4ED4
ENCODING 20180
SWIDTH 600 0
DWIDTH 16 0
BBX 16 16 0 -1
BITMAP
0800
0BF8
0808
1010
1020
3040
3040
57FE
9040
1040
1040
1040
1040
1040
1140
1080
ENDCHAR
STARTCHAR 4ED5
ENCODING 20181
SWIDTH 600 0
DWIDTH 16 0
BBX 16 16 0 -1
BITMAP
0840
0840
0840
1040
1040
3FFE
3040
5040
9040
1040
1040
1040
1040
17FC
1000
1000
ENDCHAR
STARTCHAR 4ED6
ENCODING 20182
SWIDTH 600 0
DWIDTH 16 0
BBX 16 16 0 -1
BITMAP
0840
0840
0A40
1258
1268
32C8
3348
5E48
9248
1248
1258
1242
1202
1202
11FE
1000
ENDCHAR
STARTCHAR 4ED7
ENCODING 20183
SWIDTH 600 0
DWIDTH 16 0
BBX 16 16 0 -1
BITMAP
0810
0810
0810
1010
13FE
3010
3010
5110
9110
1090
1090
1050
1020
1050
1188
1606
ENDCHAR
STARTCHAR 4ED8
ENCODING 20184
SWIDTH 600 0
DWIDTH 16 0
BBX 16 16 0 -1
BITMAP
0810
0810
0810
1010
17FE
3010
3010
5010
9110
1090
1090
1010
1010
1010
1050
1020
ENDCHAR
STARTCHAR 4ED9
ENCODING 20185
SWIDTH 600 0
DWIDTH 16 0
BBX 16 16 0 -1
BITMAP
1040
1040
1040
2040
2444
6444
6444
A444
2444
2444
2444
2444
2444
27FC
2004
2000
ENDCHAR
STARTCHAR 4EDD
ENCODING 20189
SWIDTH 600 0
DWIDTH 16 0
BBX 16 16 0 -1
BITMAP
0100
0100
0280
0440
0820
1010
2008
C006
1FF0
0100
0100
0100
0100
0100
7FFC
0000
ENDCHAR
STARTCHAR 4EDE
ENCODING 20190
SWIDTH 600 0
DWIDTH 16 0
BBX 16 16 0 -1
BITMAP
0800
0800
0BFC
1044
1044
3244
3244
5244
9484
1084
1084
1104
1104
1204
1428
1810
ENDCHAR
STARTCHAR 4EDF
ENCODING 20191
SWIDTH 600 0
DWIDTH 16 0
BBX 16 16 0 -1
BITMAP
0810
0878
0BC0
1040
1040
3040
3040
57FE
9040
1040
1040
1040
1040
1040
1040
1040
ENDCHAR
STARTCHAR 4EE1
ENCODING 20193
SWIDTH 600 0
DWIDTH 16 0
BBX 16 16 0 -1
BITMAP
0880
0880
0900
11FE
1200
3400
31F8
5008
9010
1060
1080
1100
1202
1202
11FE
1000
ENDCHAR
STARTCHAR 4EE3
ENCODING 20195
SWIDTH 600 0
DWIDTH 16 0
BBX 16 16 0 -1
BITMAP
0890
0888
0888
1080
10BE
37C0
3080
5040
9040
1040
1020
1022
1012
100A
1006
1002
ENDCHAR
STARTCHAR 4EE4
ENCODING 20196
SWIDTH 600 0
DWIDTH 16 0
BBX 16 16 0 -1
BITMAP
0100
0100
0280
0440
0A20
1110
2108
C006
1FF0
0010
0020
0440
0280
0100
0080
0080
ENDCHAR
STARTCHAR 4EE5
ENCODING 20197
SWIDTH 600 0
DWIDTH 16 0
BBX 16 16 0 -1
BITMAP
0010
0410
2210
2110
2110
2010
2010
2020
2020
2020
2440
2850
3088
2104
0202
0402
ENDCHAR
STARTCHAR 4EE8
ENCODING 20200
SWIDTH 600 0
DWIDTH 16 0
BBX 16 16 0 -1
BITMAP
0800
0800
0BFC
1000
1000
3000
3000
51F8
9000
1000
1000
1000
1000
17FE
1000
1000
ENDCHAR
STARTCHAR 4EEA
ENCODING 20202
SWIDTH 600 0
DWIDTH 16 0
BBX 16 16 0 -1
BITMAP
0880
0848
0A48
1208
1208
3110
3110
5110
90A0
10A0
1040
1040
10A0
1110
1208
1406
ENDCHAR
STARTCHAR 4EEB
ENCODING 20203
SWIDTH 600 0
DWIDTH 16 0
BBX 16 16 0 -1
BITMAP
0840
0840
0880
1080
1100
3110
3210
5420
9020
1040
1080
1108
1204
17FE
1202
1000
ENDCHAR
STARTCHAR 4EEC
ENCODING 20204
SWIDTH 600 0
DWIDTH 16 0
BBX 16 16 0 -1
BITMAP
0900
0880
08BC
1204
1204
3204
3204
5204
9204
1204
1204
1204
1204
1204
1214
1208
ENDCHAR
STARTCHAR 4EF0
ENCODING 20208
SWIDTH 600 0
DWIDTH 16 0
BBX 16 16 0 -1
BITMAP
0800
0880
0B3C
1224
1224
3224
3224
5224
9224
1224
12B4
1328
1220
1020
1020
1020
ENDCHAR
STARTCHAR 4EF2
ENCODING 20210
SWIDTH 600 0
DWIDTH 16 0
BBX 16 16 0 -1
BITMAP
0840
0840
0840
1040
17FC
3444
3444
5444
9444
1444
17FC
1444
1040
1040
1040
1040
ENDCHAR
STARTCHAR 4EF3
ENCODING 20211
SWIDTH 600 0
DWIDTH 16 0
BBX 16 16 0 -1
BITMAP
0820
0A20
0A20
1222
1222
3224
33A8
5230
9220
1220
1220
1222
12A2
1322
121E
1000
ENDCHAR
STARTCHAR 4EF5
ENCODING 20213
SWIDTH 600 0
DWIDTH 16 0
BBX 16 16 0 -1
BITMAP
1100
1100
1100
23F8
2240
6240
6440
A040
2040
2FFE
2040
2040
2040
2040
2040
2040
ENDCHAR
STARTCHAR 4EF6
ENCODING 20214
SWIDTH 600 0
DWIDTH 16 0
BBX 16 16 0 -1
BITMAP
0820
0820
0920
1120
11FC
3220
3220
5420
9020
17FE
1020
1020
1020
1020
1020
1020
ENDCHAR
STARTCHAR 4EF7
ENCODING 20215
SWIDTH 600 0
DWIDTH 16 0
BBX 16 16 0 -1
BITMAP
0840
0840
08A0
10A0
1110
3208
3406
5110
9110
1110
1110
1110
1110
1210
1210
1410
ENDCHAR
STARTCHAR 4EFB
ENCODING 20219
SWIDTH 600 0
DWIDTH 16 0
BBX 16 16 0 -1
BITMAP
0810
0878
0BC0
1040
1040
3040
3040
5FFE
9040
1040
1040
1040
1040
1040
17FC
1000
ENDCHAR
STARTCHAR 4EFD
ENCODING 20221
SWIDTH 600 0
DWIDTH 16 0
BBX 16 16 0 -1
BITMAP
0810
0890
0890
1088
1108
3104
3204
55FA
9088
1088
1088
1088
1108
1108
1228
1410
ENDCHAR
STARTCHAR 4EFF
ENCODING 20223
SWIDTH 600 0
DWIDTH 16 0
BBX 16 16 0 -1
BITMAP
0880
0840
0840
17FE
1100
3100
3100
51F8
9108
1108
1108
1108
1208
1208
1450
1820
ENDCHAR
STARTCHAR 4F01
ENCODING 20225
SWIDTH 600 0
DWIDTH 16 0
BBX 16 16 0 -1
BITMAP
0100
0100
0280
0440
0820
3118
C106
0100
1100
11F8
1100
1100
1100
1100
FFFE
0000
ENDCHAR
STARTCHAR 4F09
ENCODING 20233
SWIDTH 600 0
DWIDTH 16 0
BBX 16 16 0 -1
BITMAP
0880
0840
0840
13FC
1000
3000
31F0
5110
9110
1110
1110
1112
1112
1212
120E
1400
ENDCHAR
STARTCHAR 4F0A
ENCODING 20234
SWIDTH 600 0
DWIDTH 16 0
BBX 16 16 0 -1
BITMAP
0800
0BF8
0888
1088
1088
37FE
3088
5088
9088
13F8
1088
1080
1100
1100
1200
1400
ENDCHAR
STARTCHAR 4F0D
ENCODING 20237
SWIDTH 600 0
DWIDTH 16 0
BBX 16 16 0 -1
BITMAP
0800
0BFC
0840
1040
1040
3040
33F8
5088
9088
1088
1088
1108
1108
1108
17FE
1000
ENDCHAR
STARTCHAR 4F0E
ENCODING 20238
SWIDTH 600 0
DWIDTH 16 0
BBX 16 16 0 -1
BITMAP
0840
0840
0840
17FE
1040
3040
3040
57F8
9208
1208
1110
10A0
1040
10A0
1118
1606
ENDCHAR
STARTCHAR 4F0F
ENCODING 20239
SWIDTH 600 0
DWIDTH 16 0
BBX 16 16 0 -1
BITMAP
0840
0850
0848
1048
1040
37FE
3040
5040
90A0
10A0
10A0
1110
1110
1208
1404
1802
ENDCHAR
STARTCHAR 4F10
ENCODING 20240
SWIDTH 600 0
DWIDTH 16 0
BBX 16 16 0 -1
BITMAP
0890
0888
0888
1080
10BE
37C0
3080
5044
9044
1048
1030
1022
1052
118A
1606
1002
ENDCHAR
STARTCHAR 4F11
ENCODING 20241
SWIDTH 600 0
DWIDTH 16 0
BBX 16 16 0 -1
BITMAP
0840
0840
0840
1040
17FE
3040
30E0
50E0
9150
1150
1248
1444
1842
1040
1040
1040
ENDCHAR
STARTCHAR 4F17
ENCODING 20247
SWIDTH 600 0
DWIDTH 16 0
BBX 16 16 0 -1
BITMAP
0100
0100
0280
0440
0820
1010
2828
C826
0820
0820
0820
1450
1250
2288
4104
8202
ENDCHAR
STARTCHAR 4F18
ENCODING 20248
SWIDTH 600 0
DWIDTH 16 0
BBX 16 16 0 -1
BITMAP
0890
0888
0888
1080
17FE
30A0
30A0
50A0
90A0
10A0
1120
1122
1122
1222
121E
1400
ENDCHAR
STARTCHAR 4F19
ENCODING 20249
SWIDTH 600 0
DWIDTH 16 0
BBX 16 16 0 -1
BITMAP
0840
0840
0840
1040
1244
3244
3248
5450
9040
10A0
10A0
1110
1110
1208
1404
1802
ENDCHAR
STARTCHAR 4F1A
ENCODING 20250
SWIDTH 600 0
DWIDTH 16 0
BBX 16 16 0 -1
BITMAP
0100
0100
0280
0440
0820
3018
CFE6
0000
0000
7FFC
0200
0400
0820
1010
3FF8
1008
ENDCHAR
STARTCHAR 4F1B
ENCODING 20251
SWIDTH 600 0
DWIDTH 16 0
BBX 16 16 0 -1
BITMAP
0800
0BFC
0A00
1208
1288
3250
3250
5220
9220
1250
1250
1288
1308
1200
13FE
1000
ENDCHAR
STARTCHAR 4F1E
ENCODING 20254
SWIDTH 600 0
DWIDTH 16 0
BBX 16 16 0 -1
BITMAP
0100
0100
0280
0440
0820
3018
C106
1110
0910
0920
0100
FFFE
0100
0100
0100
0100
ENDCHAR
STARTCHAR 4F1F
ENCODING 20255
SWIDTH 600 0
DWIDTH 16 0
BBX 16 16 0 -1
BITMAP
0840
0840
0840
17FE
1040
3040
33FC
5040
9040
17FE
1042
1042
104A
1044
1040
1040
ENDCHAR
STARTCHAR 4F20
ENCODING 20256
SWIDTH 600 0
DWIDTH 16 0
BBX 16 16 0 -1
BITMAP
0840
0840
0840
13F8
1040
3080
37FE
5080
9100
13F8
1008
1110
10A0
1040
1020
1020
ENDCHAR
STARTCHAR 4F22
ENCODING 20258
SWIDTH 600 0
DWIDTH 16 0
BBX 16 16 0 -1
BITMAP
0800
0BFC
0810
1110
1110
3110
3210
53FE
9030
1050
1090
1110
1210
1410
1050
1020
ENDCHAR
STARTCHAR 4F24
ENCODING 20260
SWIDTH 600 0
DWIDTH 16 0
BBX 16 16 0 -1
BITMAP
0880
0880
0900
11FE
1200
3440
3040
53FC
9044
1044
1084
1084
1104
1104
1228
1410
ENDCHAR
STARTCHAR 4F25
ENCODING 20261
SWIDTH 600 0
DWIDTH 16 0
BBX 16 16 0 -1
BITMAP
0900
0908
0908
1110
1120
3140
3100
57FE
9140
1120
1120
1110
1108
1144
1182
1100
ENDCHAR
STARTCHAR 4F26
ENCODING 20262
SWIDTH 600 0
DWIDTH 16 0
BBX 16 16 0 -1
BITMAP
0840
0840
08A0
10A0
1110
3208
3406
5110
9120
1140
1180
1100
1104
1104
10FC
1000
ENDCHAR
STARTCHAR 4F27
ENCODING 20263
SWIDTH 600 0
DWIDTH 16 0
BBX 16 16 0 -1
BITMAP
0840
0840
08A0
1110
1208
3404
3BF2
5210
9210
1210
1250
1220
1204
1204
11FC
1000
ENDCHAR
STARTCHAR 4F2A
ENCODING 20266
SWIDTH 600 0
DWIDTH 16 0
BBX 16 16 0 -1
BITMAP
0840
0A40
0940
1140
1040
37FC
3044
5044
9084
10A4
1094
1114
1104
1204
1428
1810
ENDCHAR
STARTCHAR 4F2B
ENCODING 20267
SWIDTH 600 0
DWIDTH 16 0
BBX 16 16 0 -1
BITMAP
0840
0820
0820
1000
13FE
3202
3404
5000
9000
1000
1000
1000
1000
13FE
1000
1000
ENDCHAR
STARTCHAR 4F2F
ENCODING 20271
SWIDTH 600 0
DWIDTH 16 0
BBX 16 16 0 -1
BITMAP
0840
0840
0880
13FC
1204
3204
3204
5204
93FC
1204
1204
1204
1204
1204
13FC
1204
ENDCHAR
STARTCHAR 4F30
ENCODING 20272
SWIDTH 600 0
DWIDTH 16 0
BBX 16 16 0 -1
BITMAP
0840
0840
0840
1040
17FE
3040
3040
5040
93F8
1208
1208
1208
1208
1208
13F8
1208
ENDCHAR
STARTCHAR 4F32
ENCODING 20274
SWIDTH 600 0
DWIDTH 16 0
BBX 16 16 0 -1
BITMAP
0800
0BFC
0A04
1204
1204
33FC
3200
5240
9244
1248
1270
1240
1442
1442
183E
1000
ENDCHAR
STARTCHAR 4F34
ENCODING 20276
SWIDTH 600 0
DWIDTH 16 0
BBX 16 16 0 -1
BITMAP
0840
0A44
0948
1150
1040
37FC
3040
5040
9040
1FFE
1040
1040
1040
1040
1040
1040
ENDCHAR
STARTCHAR 4F36
ENCODING 20278
SWIDTH 600 0
DWIDTH 16 0
BBX 16 16 0 -1
BITMAP
0840
0840
08A0
10A0
1110
3248
3426
5020
93F8
1008
1010
1110
10A0
1040
1020
1020
ENDCHAR
STARTCHAR 4F38
ENCODING 20280
SWIDTH 600 0
DWIDTH 16 0
BBX 16 16 0 -1
BITMAP
0840
0840
0840
17FC
1444
3444
3444
57FC
9444
1444
1444
17FC
1444
1040
1040
1040
ENDCHAR
STARTCHAR 4F3A
ENCODING 20282
SWIDTH 600 0
DWIDTH 16 0
BBX 16 16 0 -1
BITMAP
0800
0BFC
0804
1004
17F4
3004
3004
53E4
9224
1224
1224
13E4
1004
1004
1014
1008
ENDCHAR
STARTCHAR 4F3C
ENCODING 20284
SWIDTH 600 0
DWIDTH 16 0
BBX 16 16 0 -1
BITMAP
1008
1108
1088
2448
2448
6408
6408
A408
2410
2410
2410
2528
2624
2444
2082
2102
ENDCHAR
STARTCHAR 4F3D
ENCODING 20285
SWIDTH 600 0
DWIDTH 16 0
BBX 16 16 0 -1
BITMAP
1400
1400
1400
243C
2FA4
64A4
64A4
A4A4
24A4
24A4
24A4
24A4
28A4
28BC
32A4
2100
ENDCHAR
STARTCHAR 4F43
ENCODING 20291
SWIDTH 600 0
DWIDTH 16 0
BBX 16 16 0 -1
BITMAP
1000
1000
17FC
2444
2444
6444
6444
A7FC
2444
2444
2444
2444
2444
27FC
2404
2000
ENDCHAR
STARTCHAR 4F46
ENCODING 20294
SWIDTH 600 0
DWIDTH 16 0
BBX 16 16 0 -1
BITMAP
0800
0800
0BFC
1204
1204
3204
33FC
5204
9204
1204
13FC
1204
1000
1000
17FE
1000
ENDCHAR
STARTCHAR 4F4D
ENCODING 20301
SWIDTH 600 0
DWIDTH 16 0
BBX 16 16 0 -1
BITMAP
0880
0840
0840
1000
17FC
3000
3008
5208
9208
1110
1110
1110
1120
1020
1FFE
1000
ENDCHAR
STARTCHAR 4F4E
ENCODING 20302
SWIDTH 600 0
DWIDTH 16 0
BBX 16 16 0 -1
BITMAP
0808
083C
0BE0
1220
1220
3220
3220
53FE
9220
1210
1210
1212
120A
128A
1326
1212
ENDCHAR
STARTCHAR 4F4F
ENCODING 20303
SWIDTH 600 0
DWIDTH 16 0
BBX 16 16 0 -1
BITMAP
0880
0840
0800
17FC
1040
3040
3040
5040
97FC
1040
1040
1040
1040
1040
1FFE
1000
ENDCHAR
STARTCHAR 4F50
ENCODING 20304
SWIDTH 600 0
DWIDTH 16 0
BBX 16 16 0 -1
BITMAP
0880
0880
0880
1080
17FE
3080
3100
5100
91FC
1220
1220
1420
1420
1820
13FE
1000
ENDCHAR
STARTCHAR 4F51
ENCODING 20305
SWIDTH 600 0
DWIDTH 16 0
BBX 16 16 0 -1
BITMAP
0840
0840
0840
1040
17FE
3080
3080
5100
93FC
1504
1904
1104
1104
1104
11FC
1104
ENDCHAR
STARTCHAR 4F53
ENCODING 20307
SWIDTH 600 0
DWIDTH 16 0
BBX 16 16 0 -1
BITMAP
0840
0840
0840
1040
17FC
3040
30E0
50E0
9150
1150
1248
15F4
1842
1040
1040
1040
ENDCHAR
STARTCHAR 4F55
ENCODING 20309
SWIDTH 600 0
DWIDTH 16 0
BBX 16 16 0 -1
BITMAP
0800
0800
0FFE
1008
1008
33C8
3248
5248
9248
1248
13C8
1248
1008
1008
1028
1010
ENDCHAR
STARTCHAR 4F57
ENCODING 20311
SWIDTH 600 0
DWIDTH 16 0
BBX 16 16 0 -1
BITMAP
0840
0820
0820
13FE
1202
3404
3100
5108
9110
1120
11C0
1102
1102
1102
10FE
1000
ENDCHAR
STARTCHAR 4F58
ENCODING 20312
SWIDTH 600 0
DWIDTH 16 0
BBX 16 16 0 -1
BITMAP
0100
0100
0280
0440
0820
3018
CFE6
0000
0000
7FFC
0100
1110
1108
2104
4504
0200
ENDCHAR
STARTCHAR 4F59
ENCODING 20313
SWIDTH 600 0
DWIDTH 16 0
BBX 16 16 0 -1
BITMAP
0100
0100
0280
0440
0820
1010
2FE8
C106
0100
3FF8
0100
1110
1108
2104
4504
0200
ENDCHAR
STARTCHAR 4F5A
ENCODING 20314
SWIDTH 600 0
DWIDTH 16 0
BBX 16 16 0 -1
BITMAP
1040
1040
1240
2240
23FC
6240
6440
A040
2FFE
2040
20A0
20A0
2110
2208
2404
2802
ENDCHAR
STARTCHAR 4F5B
ENCODING 20315
SWIDTH 600 0
DWIDTH 16 0
BBX 16 16 0 -1
BITMAP
1120
1120
1120
2FFC
2124
6124
67FC
A520
2920
2FFE
2122
2122
222A
2224
2420
2820
ENDCHAR
STARTCHAR 4F5C
ENCODING 20316
SWIDTH 600 0
DWIDTH 16 0
BBX 16 16 0 -1
BITMAP
0900
0900
0900
11FE
1280
3280
3480
50F8
9080
1080
1080
10FC
1080
1080
1080
1080
ENDCHAR
STARTCHAR 4F5D
ENCODING 20317
SWIDTH 600 0
DWIDTH 16 0
BBX 16 16 0 -1
BITMAP
1100
1100
1200
23FC
2404
6804
63E4
A224
2224
2224
2224
23E4
2224
2004
2028
2010
ENDCHAR
STARTCHAR 4F5E
ENCODING 20318
SWIDTH 600 0
DWIDTH 16 0
BBX 16 16 0 -1
BITMAP
1000
13F8
1000
2000
2FFE
6080
6080
AFFE
2108
2210
2610
21A0
2060
2090
2308
2C04
ENDCHAR
STARTCHAR 4F5F
ENCODING 20319
SWIDTH 600 0
DWIDTH 16 0
BBX 16 16 0 -1
BITMAP
0880
0880
08F8
1108
1310
34A0
3040
50A0
9318
1C06
10C0
1020
1010
1180
1060
1010
ENDCHAR
STARTCHAR 4F60
ENCODING 20320
SWIDTH 600 0
DWIDTH 16 0
BBX 16 16 0 -1
BITMAP
0880
0880
0880
11FE
1102
3204
3420
5020
9128
1124
1224
1222
1422
1020
10A0
1040
ENDCHAR
STARTCHAR 4F63
ENCODING 20323
SWIDTH 600 0
DWIDTH 16 0
BBX 16 16 0 -1
BITMAP
1000
17FC
1444
2444
2444
67FC
6444
A444
2444
27FC
2444
2444
2444
2844
2854
3008
ENDCHAR
STARTCHAR 4F64
ENCODING 20324
SWIDTH 600 0
DWIDTH 16 0
BBX 16 16 0 -1
BITMAP
0800
0800
0FFC
1100
1100
31F0
3110
5110
9190
1250
1250
1210
1212
1292
1312
120E
ENDCHAR
STARTCHAR 4F65
ENCODING 20325
SWIDTH 600 0
DWIDTH 16 0
BBX 16 16 0 -1
BITMAP
0100
0100
0280
0440
0820
1010
2FE8
C006
0210
1110
0910
0920
0820
0040
7FFC
0000
ENDCHAR
STARTCHAR 4F67
ENCODING 20327
SWIDTH 600 0
DWIDTH 16 0
BBX 16 16 0 -1
BITMAP
0840
0840
0840
107C
1040
3040
3040
57FE
9040
1040
1050
1048
1044
1040
1040
1040
ENDCHAR
STARTCHAR 4F69
ENCODING 20329
SWIDTH 600 0
DWIDTH 16 0
BBX 16 16 0 -1
BITMAP
1000
17FC
1404
2404
25F4
6444
6444
A5F4
2554
2554
2554
2554
2574
2446
2446
2842
ENDCHAR
STARTCHAR 4F6C
ENCODING 20332
SWIDTH 600 0
DWIDTH 16 0
BBX 16 16 0 -1
BITMAP
0840
0840
0844
13F4
1048
3050
37FE
5040
9080
1184
1298
14E0
1882
1082
107E
1000
ENDCHAR
STARTCHAR 4F6F
ENCODING 20335
SWIDTH 600 0
DWIDTH 16 0
BBX 16 16 0 -1
BITMAP
0A08
0908
0910
1000
17FC
3040
3040
53F8
9040
1040
17FE
1040
1040
1040
1040
1040
ENDCHAR
STARTCHAR 4F70
ENCODING 20336
SWIDTH 600 0
DWIDTH 16 0
BBX 16 16 0 -1
BITMAP
0800
0BFE
0820
1020
1040
31FC
3104
5104
9104
11FC
1104
1104
1104
1104
11FC
1104
ENDCHAR
STARTCHAR 4F73
ENCODING 20339
SWIDTH 600 0
DWIDTH 16 0
BBX 16 16 0 -1
BITMAP
0840
0840
0BFC
1040
1040
3040
3FFE
5000
9040
1040
13FC
1040
1040
1040
1FFE
1000
ENDCHAR
STARTCHAR 4F74
ENCODING 20340
SWIDTH 600 0
DWIDTH 16 0
BBX 16 16 0 -1
BITMAP
0800
0BFE
0908
1108
1108
31F8
3108
5108
91F8
1108
1108
111E
17E8
1008
1008
1008
ENDCHAR
STARTCHAR 4F76
ENCODING 20342
SWIDTH 600 0
DWIDTH 16 0
BBX 16 16 0 -1
BITMAP
0840
0840
0840
1FFE
1040
3040
37FC
5000
9000
13F8
1208
1208
1208
1208
13F8
1208
ENDCHAR
STARTCHAR 4F7B
ENCODING 20347
SWIDTH 600 0
DWIDTH 16 0
BBX 16 16 0 -1
BITMAP
0890
0890
0890
1492
1294
3098
3090
5198
9294
1492
1090
1090
1112
1112
1212
140E
ENDCHAR
STARTCHAR 4F7C
ENCODING 20348
SWIDTH 600 0
DWIDTH 16 0
BBX 16 16 0 -1
BITMAP
1080
1040
1040
27FC
2000
6110
6208
A404
2110
2110
20A0
2040
20A0
2110
2208
2C06
ENDCHAR
STARTCHAR 4F7E
ENCODING 20350
SWIDTH 600 0
DWIDTH 16 0
BBX 16 16 0 -1
BITMAP
0810
0910
0908
1208
1404
3BFA
3208
5208
93F8
1208
1208
13F8
1208
1208
1228
1210
ENDCHAR
STARTCHAR 4F7F
ENCODING 20351
SWIDTH 600 0
DWIDTH 16 0
BBX 16 16 0 -1
BITMAP
1040
1040
1FFE
2040
2040
67FC
6444
A444
27FC
2040
2240
2140
2080
2140
2230
2C0E
ENDCHAR
STARTCHAR 4F83
ENCODING 20355
SWIDTH 600 0
DWIDTH 16 0
BBX 16 16 0 -1
BITMAP
1000
17FC
1404
2404
2404
67FC
6000
A248
2248
2248
2248
2248
224A
244A
244A
2806
ENDCHAR
STARTCHAR 4F84
ENCODING 20356
SWIDTH 600 0
DWIDTH 16 0
BBX 16 16 0 -1
BITMAP
1000
17FE
1040
2080
2110
6208
67FC
A044
2040
2040
27FC
2040
2040
2040
2FFE
2000
ENDCHAR
STARTCHAR 4F88
ENCODING 20360
SWIDTH 600 0
DWIDTH 16 0
BBX 16 16 0 -1
BITMAP
1080
1080
11F8
2210
2520
60C0
6090
A320
2C7C
2084
2108
2690
2060
2040
2180
2E00
ENDCHAR
STARTCHAR 4F89
ENCODING 20361
SWIDTH 600 0
DWIDTH 16 0
BBX 16 16 0 -1
BITMAP
1040
1040
17FC
20A0
2110
6208
6DF6
A000
27FC
2080
2100
23F8
2008
2008
2050
2020
ENDCHAR
STARTCHAR 4F8B
ENCODING 20363
SWIDTH 600 0
DWIDTH 16 0
BBX 16 16 0 -1
BITMAP
1004
1004
17C4
2214
2214
63D4
6254
A454
2654
2554
2894
2094
2104
2204
2414
2808
ENDCHAR
STARTCHAR 4F8D
ENCODING 20365
SWIDTH 600 0
DWIDTH 16 0
BBX 16 16 0 -1
BITMAP
0840
0840
0840
13FC
1040
3040
37FE
5010
9010
17FE
1010
1210
1110
1110
1050
1020
ENDCHAR
STARTCHAR 4F8F
ENCODING 20367
SWIDTH 600 0
DWIDTH 16 0
BBX 16 16 0 -1
BITMAP
0840
0A40
0A40
13FC
1440
3040
3040
57FE
90E0
1150
1150
1248
1444
1842
1040
1040
ENDCHAR
STARTCHAR 4F91
ENCODING 20369
SWIDTH 600 0
DWIDTH 16 0
BBX 16 16 0 -1
BITMAP
0840
0840
0FFE
1080
1100
31FC
3304
5504
99FC
1104
1104
11FC
1104
1104
1114
1108
ENDCHAR
STARTCHAR 4F94
ENCODING 20372
SWIDTH 600 0
DWIDTH 16 0
BBX 16 16 0 -1
BITMAP
0840
0840
0890
1108
13FC
3024
3120
5120
91FC
1220
1020
17FE
1020
1020
1020
1020
ENDCHAR
STARTCHAR 4F97
ENCODING 20375
SWIDTH 600 0
DWIDTH 16 0
BBX 16 16 0 -1
BITMAP
1000
17FC
1404
2404
25F4
6404
6404
A5F4
2514
2514
2514
25F4
2404
2404
2414
2408
ENDCHAR
STARTCHAR 4F9B
ENCODING 20379
SWIDTH 600 0
DWIDTH 16 0
BBX 16 16 0 -1
BITMAP
0910
0910
0910
1110
13FC
3110
3110
5110
9110
17FE
1000
1110
1108
1208
1404
1804
ENDCHAR
STARTCHAR 4F9D
ENCODING 20381
SWIDTH 600 0
DWIDTH 16 0
BBX 16 16 0 -1
BITMAP
0880
0840
0840
17FE
1080
3080
3140
5144
9348
1530
1920
1110
1108
1144
1182
1100
ENDCHAR
STARTCHAR 4FA0
ENCODING 20384
SWIDTH 600 0
DWIDTH 16 0
BBX 16 16 0 -1
BITMAP
0840
0840
0840
17FC
1040
3248
3150
5040
9FFE
10A0
10A0
1110
1110
1208
1404
1802
ENDCHAR
STARTCHAR 4FA3
ENCODING 20387
SWIDTH 600 0
DWIDTH 16 0
BBX 16 16 0 -1
BITMAP
1000
13F8
1208
2208
2208
6208
63F8
A000
2000
27FC
2404
2404
2404
2404
27FC
2404
ENDCHAR
STARTCHAR 4FA5
ENCODING 20389
SWIDTH 600 0
DWIDTH 16 0
BBX 16 16 0 -1
BITMAP
0880
0880
08BC
13C0
1050
3024
30D4
530C
9000
17FE
1090
1090
1112
1112
120E
1400
ENDCHAR
STARTCHAR 4FA6
ENCODING 20390
SWIDTH 600 0
DWIDTH 16 0
BBX 16 16 0 -1
BITMAP
0840
0840
087E
1040
1040
33F8
3208
5248
9248
1248
1248
1248
10A0
1110
1208
1404
ENDCHAR
STARTCHAR 4FA7
ENCODING 20391
SWIDTH 600 0
DWIDTH 16 0
BBX 16 16 0 -1
BITMAP
1004
17C4
1444
2454
2554
6554
6554
A554
2554
2554
2554
2104
2284
2244
2414
2808
ENDCHAR
STARTCHAR 4FA8
ENCODING 20392
SWIDTH 600 0
DWIDTH 16 0
BBX 16 16 0 -1
BITMAP
0810
0878
0BC0
1040
1040
37FE
30A0
5110
9208
1516
1110
1110
1110
1210
1210
1410
ENDCHAR
STARTCHAR 4FA9
ENCODING 20393
SWIDTH 600 0
DWIDTH 16 0
BBX 16 16 0 -1
BITMAP
0840
0840
08A0
1110
1208
3406
31F0
5000
9000
17FC
1040
1080
1110
1208
17FC
1204
ENDCHAR
STARTCHAR 4FAA
ENCODING 20394
SWIDTH 600 0
DWIDTH 16 0
BBX 16 16 0 -1
BITMAP
0880
0840
0FFE
1208
1110
30A0
3040
51B0
960E
1110
1110
1110
1110
1210
1210
1410
ENDCHAR
STARTCHAR 4FAC
ENCODING 20396
SWIDTH 600 0
DWIDTH 16 0
BBX 16 16 0 -1
BITMAP
1040
1040
1040
27FC
2484
6888
6140
A144
2348
2530
2920
2110
2108
2144
2182
2100
ENDCHAR
STARTCHAR 4FAE
ENCODING 20398
SWIDTH 600 0
DWIDTH 16 0
BBX 16 16 0 -1
BITMAP
0900
0900
09FC
1200
15F8
3108
3148
5128
97FE
1108
1248
1228
13FC
1008
1050
1020
ENDCHAR
STARTCHAR 4FAF
ENCODING 20399
SWIDTH 600 0
DWIDTH 16 0
BBX 16 16 0 -1
BITMAP
0800
0BF8
0808
1008
17FE
3100
3100
53F8
9440
1040
1FFE
1040
10A0
1110
1208
1C06
ENDCHAR
STARTCHAR 4FB5
ENCODING 20405
SWIDTH 600 0
DWIDTH 16 0
BBX 16 16 0 -1
BITMAP
0800
0BF8
0808
11F8
1008
33F8
3000
57FC
9404
13F0
1110
1110
10A0
1040
11B0
160E
ENDCHAR
STARTCHAR 4FBF
ENCODING 20415
SWIDTH 600 0
DWIDTH 16 0
BBX 16 16 0 -1
BITMAP
1000
17FE
1040
27FC
2444
6444
67FC
A444
2444
27FC
2240
2140
2080
2140
2230
2C0E
ENDCHAR
STARTCHAR 4FC3
ENCODING 20419
SWIDTH 600 0
DWIDTH 16 0
BBX 16 16 0 -1
BITMAP
0800
0BF8
0A08
1208
1208
3208
33F8
5040
9040
1240
127C
1240
1240
1540
18FE
1000
ENDCHAR
STARTCHAR 4FC4
ENCODING 20420
SWIDTH 600 0
DWIDTH 16 0
BBX 16 16 0 -1
BITMAP
1028
11A4
1724
2120
2120
6FFE
6120
A124
21A4
2328
2D28
2110
2112
212A
2546
2282
ENDCHAR
STARTCHAR 4FC5
ENCODING 20421
SWIDTH 600 0
DWIDTH 16 0
BBX 16 16 0 -1
BITMAP
0850
0848
0848
1040
17FE
3040
3244
5164
9168
10D0
1150
1248
1444
1042
1140
1080
ENDCHAR
STARTCHAR 4FCA
ENCODING 20426
SWIDTH 600 0
DWIDTH 16 0
BBX 16 16 0 -1
BITMAP
0840
0840
0888
1104
13FE
3002
3088
5144
9242
10F8
1188
1250
1020
1050
1188
1606
ENDCHAR
STARTCHAR 4FCE
ENCODING 20430
SWIDTH 600 0
DWIDTH 16 0
BBX 16 16 0 -1
BITMAP
1000
11F8
1108
2908
2508
45F8
9108
1108
1108
11F8
2908
2508
4508
8108
07FE
0000
ENDCHAR
STARTCHAR 4FCF
ENCODING 20431
SWIDTH 600 0
DWIDTH 16 0
BBX 16 16 0 -1
BITMAP
0840
0A48
0948
1150
1040
33F8
3208
5208
93F8
1208
1208
13F8
1208
1208
1228
1210
ENDCHAR
STARTCHAR 4FD0
ENCODING 20432
SWIDTH 600 0
DWIDTH 16 0
BBX 16 16 0 -1
BITMAP
1084
11C4
1704
2114
2114
6114
6FD4
A114
2314
2394
2554
2504
2904
2104
2114
2108
ENDCHAR
STARTCHAR 4FD1
ENCODING 20433
SWIDTH 600 0
DWIDTH 16 0
BBX 16 16 0 -1
BITMAP
1000
17F8
1010
21A0
2040
67FC
6444
A444
27FC
2444
2444
27FC
2444
2444
2454
2408
ENDCHAR
STARTCHAR 4FD7
ENCODING 20439
SWIDTH 600 0
DWIDTH 16 0
BBX 16 16 0 -1
BITMAP
0910
0908
0A04
1444
1040
30A0
3110
5208
9C06
13F8
1208
1208
1208
1208
13F8
1208
ENDCHAR
STARTCHAR 4FD8
ENCODING 20440
SWIDTH 600 0
DWIDTH 16 0
BBX 16 16 0 -1
BITMAP
0808
083C
0BC0
1004
1244
3128
3000
53F8
9010
1020
17FE
1020
1020
1020
10A0
1040
ENDCHAR
STARTCHAR 4FDA
ENCODING 20442
SWIDTH 600 0
DWIDTH 16 0
BBX 16 16 0 -1
BITMAP
1000
17FC
1444
2444
27FC
6444
6444
A7FC
2040
2040
27FC
2040
2040
2040
2FFE
2000
ENDCHAR
STARTCHAR 4FDC
ENCODING 20444
SWIDTH 600 0
DWIDTH 16 0
BBX 16 16 0 -1
BITMAP
1040
1040
17FC
2444
27FC
6444
67FC
A000
3FFE
2100
2200
23FC
2004
2004
2028
2010
ENDCHAR
STARTCHAR 4FDD
ENCODING 20445
SWIDTH 600 0
DWIDTH 16 0
BBX 16 16 0 -1
BITMAP
0800
0BF8
0A08
1208
1208
33F8
3040
5040
97FC
10E0
1150
1248
1444
1842
1040
1040
ENDCHAR
STARTCHAR 4FDE
ENCODING 20446
SWIDTH 600 0
DWIDTH 16 0
BBX 16 16 0 -1
BITMAP
0100
0280
0440
0820
3018
CFE6
0000
3E08
2248
3E48
2248
3E48
2248
2208
2A28
2410
ENDCHAR
STARTCHAR 4FDF
ENCODING 20447
SWIDTH 600 0
DWIDTH 16 0
BBX 16 16 0 -1
BITMAP
1040
1080
1110
2208
27FC
6104
6100
A3F8
2440
2040
2FFE
2040
20A0
2110
2208
2C06
ENDCHAR
STARTCHAR 4FE1
ENCODING 20449
SWIDTH 600 0
DWIDTH 16 0
BBX 16 16 0 -1
BITMAP
0840
0820
0BFE
1000
1000
31FC
3000
5000
91FC
1000
1000
11FC
1104
1104
11FC
1104
ENDCHAR
STARTCHAR 4FE3
ENCODING 20451
SWIDTH 600 0
DWIDTH 16 0
BBX 16 16 0 -1
BITMAP
0800
0BF8
0A08
1208
13F8
3000
3000
57FC
9040
1040
1FFE
1040
10A0
1110
1208
1406
ENDCHAR
STARTCHAR 4FE6
ENCODING 20454
SWIDTH 600 0
DWIDTH 16 0
BBX 16 16 0 -1
BITMAP
1040
1040
17FC
2040
23F8
6080
67FE
A090
2110
21FE
2210
2290
2450
2810
2050
2020
ENDCHAR
STARTCHAR 4FE8
ENCODING 20456
SWIDTH 600 0
DWIDTH 16 0
BBX 16 16 0 -1
BITMAP
0800
0BFC
0890
1294
1198
3090
33FE
5200
9200
1200
1200
1200
1200
1400
1400
1800
ENDCHAR
STARTCHAR 4FE9
ENCODING 20457
SWIDTH 600 0
DWIDTH 16 0
BBX 16 16 0 -1
BITMAP
1000
1FFE
1120
2120
2120
6FFC
6924
A924
2924
2AA4
2A54
2C4C
2884
2804
2814
2808
ENDCHAR
STARTCHAR 4FEA
ENCODING 20458
SWIDTH 600 0
DWIDTH 16 0
BBX 16 16 0 -1
BITMAP
1000
1FFE
1000
2000
27BC
64A4
64A4
A4A4
26B4
25AC
24A4
24A4
24A4
24A4
24A4
25AC
ENDCHAR
STARTCHAR 4FED
ENCODING 20461
SWIDTH 600 0
DWIDTH 16 0
BBX 16 16 0 -1
BITMAP
0840
0840
08A0
10A0
1110
3208
35F6
5000
9088
1048
1248
1150
1110
1020
17FE
1000
ENDCHAR
STARTCHAR 4FEE
ENCODING 20462
SWIDTH 600 0
DWIDTH 16 0
BBX 16 16 0 -1
BITMAP
1080
1080
11F8
2108
2A90
6C60
A998
2E26
28C0
2B10
2820
28C8
2B10
2060
2180
2600
ENDCHAR
STARTCHAR 4FEF
ENCODING 20463
SWIDTH 600 0
DWIDTH 16 0
BBX 16 16 0 -1
BITMAP
1040
1020
17FE
2400
2488
6488
6508
A57E
2708
2548
2528
2528
2908
2908
3128
2110
ENDCHAR
STARTCHAR 4FF1
ENCODING 20465
SWIDTH 600 0
DWIDTH 16 0
BBX 16 16 0 -1
BITMAP
0800
0BF8
0A08
1208
13F8
3208
33F8
5208
93F8
1208
1208
1FFE
1000
1110
1208
1404
ENDCHAR
STARTCHAR 4FF3
ENCODING 20467
SWIDTH 600 0
DWIDTH 16 0
BBX 16 16 0 -1
BITMAP
0890
0890
0890
179E
1090
3090
3090
539C
9090
1090
1090
179E
1090
1090
1090
1090
ENDCHAR
STARTCHAR 4FF8
ENCODING 20472
SWIDTH 600 0
DWIDTH 16 0
BBX 16 16 0 -1
BITMAP
0840
0840
0FFC
1040
13F8
3080
37FC
5110
9248
1446
11F0
1040
17FC
1040
1040
1040
ENDCHAR
STARTCHAR 4FFA
ENCODING 20474
SWIDTH 600 0
DWIDTH 16 0
BBX 16 16 0 -1
BITMAP
0840
0880
0BFC
1110
1248
3446
33F8
5248
9248
13F8
1248
1248
13F8
1042
1042
103E
ENDCHAR
STARTCHAR 4FFE
ENCODING 20478
SWIDTH 600 0
DWIDTH 16 0
BBX 16 16 0 -1
BITMAP
0840
0880
0BFC
1224
1224
33FC
3224
5244
93FC
1090
1110
17FE
1010
1010
1010
1010
ENDCHAR
STARTCHAR 500C
ENCODING 20492
SWIDTH 600 0
DWIDTH 16 0
BBX 16 16 0 -1
BITMAP
0840
0820
0BFE
1202
1404
31F8
3108
5108
91F8
1100
1100
11FC
1104
1104
11FC
1104
ENDCHAR
STARTCHAR 500D
ENCODING 20493
SWIDTH 600 0
DWIDTH 16 0
BBX 16 16 0 -1
BITMAP
0880
0840
0BFC
1000
1208
3108
3110
57FE
9000
1000
13FC
1204
1204
1204
13FC
1204
ENDCHAR
STARTCHAR 500F
ENCODING 20495
SWIDTH 600 0
DWIDTH 16 0
BBX 16 16 0 -1
BITMAP
1080
1080
11F8
2108
2A90
6C60
A998
2E46
2850
2848
2BFC
2840
28A0
2110
2208
2404
ENDCHAR
STARTCHAR 5012
ENCODING 20498
SWIDTH 600 0
DWIDTH 16 0
BBX 16 16 0 -1
BITMAP
1004
1004
1FC4
2214
2214
6494
67D4
A114
2114
27D4
2114
2114
21C4
2E04
2414
2008
ENDCHAR
STARTCHAR 5014
ENCODING 20500
SWIDTH 600 0
DWIDTH 16 0
BBX 16 16 0 -1
BITMAP
1000
17FC
1404
2404
27FC
6420
6524
A524
2524
25FC
2420
2524
2524
2924
29FC
3004
ENDCHAR
STARTCHAR 5018
ENCODING 20504
SWIDTH 600 0
DWIDTH 16 0
BBX 16 16 0 -1
BITMAP
1040
1248
1148
2150
2040
67FC
6404
A404
25F4
2514
2514
2514
25F4
2404
2414
2408
ENDCHAR
STARTCHAR 5019
ENCODING 20505
SWIDTH 600 0
DWIDTH 16 0
BBX 16 16 0 -1
BITMAP
1000
13F8
1008
2808
2FFE
6900
6900
ABF8
2C40
2840
2FFE
2840
28A0
2110
2208
2C06
ENDCHAR
STARTCHAR 501A
ENCODING 20506
SWIDTH 600 0
DWIDTH 16 0
BBX 16 16 0 -1
BITMAP
0840
0840
0BFC
10A0
1110
3208
37FE
5008
93C8
1248
1248
1248
13C8
1008
1028
1010
ENDCHAR
STARTCHAR 501C
ENCODING 20508
SWIDTH 600 0
DWIDTH 16 0
BBX 16 16 0 -1
BITMAP
1000
17FC
1444
2444
25F4
6444
6444
A7FC
2404
25F4
2514
2514
25F4
2404
2414
2808
ENDCHAR
STARTCHAR 501F
ENCODING 20511
SWIDTH 600 0
DWIDTH 16 0
BBX 16 16 0 -1
BITMAP
0910
0910
0910
17FC
1110
3110
3FFE
5000
93F8
1208
1208
13F8
1208
1208
13F8
1208
ENDCHAR
STARTCHAR 5021
ENCODING 20513
SWIDTH 600 0
DWIDTH 16 0
BBX 16 16 0 -1
BITMAP
09F8
0908
0908
11F8
1108
3108
31F8
5000
93FC
1204
1204
13FC
1204
1204
13FC
1204
ENDCHAR
STARTCHAR 5025
ENCODING 20517
SWIDTH 600 0
DWIDTH 16 0
BBX 16 16 0 -1
BITMAP
0840
0820
0820
13FE
1202
3494
3108
5204
9000
11FC
1020
1020
1020
1020
17FE
1000
ENDCHAR
STARTCHAR 5026
ENCODING 20518
SWIDTH 600 0
DWIDTH 16 0
BBX 16 16 0 -1
BITMAP
1040
1248
1150
27FC
2080
6100
6FFE
A210
2408
2BF4
3212
2210
2250
2224
2204
21FC
ENDCHAR
STARTCHAR 5028
ENCODING 20520
SWIDTH 600 0
DWIDTH 16 0
BBX 16 16 0 -1
BITMAP
0800
0BFC
0A04
1204
13FC
3220
3220
53FE
9220
1220
12FC
1284
1284
1484
14FC
1884
ENDCHAR
STARTCHAR 5029
ENCODING 20521
SWIDTH 600 0
DWIDTH 16 0
BBX 16 16 0 -1
BITMAP
0840
0840
0FFC
1040
13F8
3040
37FE
5000
93F8
1208
13F8
1208
13F8
1208
1228
1210
ENDCHAR
STARTCHAR 502A
ENCODING 20522
SWIDTH 600 0
DWIDTH 16 0
BBX 16 16 0 -1
BITMAP
0800
0840
0B9C
1204
1204
339C
3204
5204
93FC
1090
1090
1090
1090
1112
1212
140E
ENDCHAR
STARTCHAR 502C
ENCODING 20524
SWIDTH 600 0
DWIDTH 16 0
BBX 16 16 0 -1
BITMAP
0840
0840
087E
1040
13FC
3204
33FC
5204
93FC
1244
1040
17FE
1040
1040
1040
1040
ENDCHAR
STARTCHAR 502D
ENCODING 20525
SWIDTH 600 0
DWIDTH 16 0
BBX 16 16 0 -1
BITMAP
0838
0BC0
0840
1040
17FC
3150
3248
5486
9080
17FC
1110
1210
11A0
1060
1090
1308
ENDCHAR
STARTCHAR 502E
ENCODING 20526
SWIDTH 600 0
DWIDTH 16 0
BBX 16 16 0 -1
BITMAP
0800
0BF8
0A48
1248
13F8
3248
3248
53F8
9040
17FC
10E0
1150
1248
1446
1040
1040
ENDCHAR
STARTCHAR 503A
ENCODING 20538
SWIDTH 600 0
DWIDTH 16 0
BBX 16 16 0 -1
BITMAP
0840
0840
0FFC
1040
13F8
3040
37FE
5000
93F8
1208
1248
1248
1248
10A0
1110
1608
ENDCHAR
STARTCHAR 503C
ENCODING 20540
SWIDTH 600 0
DWIDTH 16 0
BBX 16 16 0 -1
BITMAP
0840
0840
0FFC
1040
1040
33F8
3208
53F8
9208
13F8
1208
13F8
1208
1208
1FFE
1000
ENDCHAR
STARTCHAR 503E
ENCODING 20542
SWIDTH 600 0
DWIDTH 16 0
BBX 16 16 0 -1
BITMAP
1000
10FE
1410
2420
247C
6444
6754
A454
2454
2454
2554
2654
2420
2028
2044
2082
ENDCHAR
STARTCHAR 5043
ENCODING 20547
SWIDTH 600 0
DWIDTH 16 0
BBX 16 16 0 -1
BITMAP
0800
0BFE
0A00
12FC
1284
32FC
3284
52FC
9220
13FE
1248
12C8
1230
1248
1284
13FE
ENDCHAR
STARTCHAR 5047
ENCODING 20551
SWIDTH 600 0
DWIDTH 16 0
BBX 16 16 0 -1
BITMAP
1000
17BC
1484
2484
2484
67BC
6400
A400
27BC
2424
2424
27A8
2410
2428
2444
2482
ENDCHAR
STARTCHAR 5048
ENCODING 20552
SWIDTH 600 0
DWIDTH 16 0
BBX 16 16 0 -1
BITMAP
0800
0BF8
0A08
13F8
1208
33F8
3100
53FC
9444
1244
12A4
1204
13F4
1004
1028
1010
ENDCHAR
STARTCHAR 504C
ENCODING 20556
SWIDTH 600 0
DWIDTH 16 0
BBX 16 16 0 -1
BITMAP
1108
1108
17FE
2108
2148
6040
67FE
A080
2100
23FC
2504
2904
2104
2104
21FC
2104
ENDCHAR
STARTCHAR 504E
ENCODING 20558
SWIDTH 600 0
DWIDTH 16 0
BBX 16 16 0 -1
BITMAP
0800
0BF8
0A48
1248
13F8
3248
3248
53F8
9000
17FE
1240
1244
1228
1290
1308
1206
ENDCHAR
STARTCHAR 504F
ENCODING 20559
SWIDTH 600 0
DWIDTH 16 0
BBX 16 16 0 -1
BITMAP
1080
1040
17FC
2404
2404
67FC
6400
A400
27FC
26A4
2AA4
2BFC
2AA4
2AA4
32A4
220C
ENDCHAR
STARTCHAR 5055
ENCODING 20565
SWIDTH 600 0
DWIDTH 16 0
BBX 16 16 0 -1
BITMAP
0A20
0A24
0BA8
1230
12A2
3322
325E
5080
93FC
1204
1204
13FC
1204
1204
13FC
1204
ENDCHAR
STARTCHAR 505A
ENCODING 20570
SWIDTH 600 0
DWIDTH 16 0
BBX 16 16 0 -1
BITMAP
1210
1210
1210
2FA0
223E
6244
6224
AFA4
28A4
28A8
28A8
2890
2FA8
2828
2044
2082
ENDCHAR
STARTCHAR 505C
ENCODING 20572
SWIDTH 600 0
DWIDTH 16 0
BBX 16 16 0 -1
BITMAP
1080
1040
17FC
2000
23F8
6208
63F8
A000
2FFE
2802
23F8
2040
2040
2040
2140
2080
ENDCHAR
STARTCHAR 5065
ENCODING 20581
SWIDTH 600 0
DWIDTH 16 0
BBX 16 16 0 -1
BITMAP
1020
1020
10FC
2E24
23FE
6224
64FC
A420
2EFC
2220
2220
2BFE
2420
2620
29FE
3000
ENDCHAR
STARTCHAR 506C
ENCODING 20588
SWIDTH 600 0
DWIDTH 16 0
BBX 16 16 0 -1
BITMAP
1100
1100
13FC
2494
2B94
6164
6254
A484
2128
2210
2040
2124
252A
250A
28F8
2000
ENDCHAR
STARTCHAR 5076
ENCODING 20598
SWIDTH 600 0
DWIDTH 16 0
BBX 16 16 0 -1
BITMAP
1000
17FC
1444
2444
27FC
6444
6444
A7FC
2040
2FFE
2842
2852
2BF2
2912
280A
2804
ENDCHAR
STARTCHAR 5077
ENCODING 20599
SWIDTH 600 0
DWIDTH 16 0
BBX 16 16 0 -1
BITMAP
0840
08A0
0910
1208
15F6
3000
33C4
5254
9254
13D4
1254
1254
13D4
1244
1254
12C8
ENDCHAR
STARTCHAR 507B
ENCODING 20603
SWIDTH 600 0
DWIDTH 16 0
BBX 16 16 0 -1
BITMAP
0820
0924
08A8
1020
13FE
30A8
3124
5202
9040
17FE
1088
1108
1190
1060
1198
1604
ENDCHAR
STARTCHAR 507E
ENCODING 20606
SWIDTH 600 0
DWIDTH 16 0
BBX 16 16 0 -1
BITMAP
1040
1040
17FC
2040
2248
6FFE
6208
A000
27FC
2404
2444
2444
2444
20B0
230C
2C02
ENDCHAR
STARTCHAR 507F
ENCODING 20607
SWIDTH 600 0
DWIDTH 16 0
BBX 16 16 0 -1
BITMAP
0840
0A48
0950
1040
17FE
3402
3804
51F0
9000
1000
17FC
1080
1110
1208
17FC
1204
ENDCHAR
STARTCHAR 5080
ENCODING 20608
SWIDTH 600 0
DWIDTH 16 0
BBX 16 16 0 -1
BITMAP
1040
1080
17FC
2444
2444
67FC
6444
A484
27FC
2080
2150
2164
227C
2442
2842
303E
ENDCHAR
STARTCHAR 5085
ENCODING 20613
SWIDTH 600 0
DWIDTH 16 0
BBX 16 16 0 -1
BITMAP
0850
0848
0FFE
1040
17FC
3444
37FC
5444
97FC
1444
1008
1FFE
1208
1108
1128
1010
ENDCHAR
STARTCHAR 5088
ENCODING 20616
SWIDTH 600 0
DWIDTH 16 0
BBX 16 16 0 -1
BITMAP
1000
17FC
10A0
20A0
27FC
64A4
64A4
A7FC
2040
2040
27FC
20E0
2150
2248
2C46
2040
ENDCHAR
STARTCHAR 508D
ENCODING 20621
SWIDTH 600 0
DWIDTH 16 0
BBX 16 16 0 -1
BITMAP
1080
1040
17FC
2208
2110
67FE
6402
A884
2040
27FC
2100
21F8
2108
2208
2228
2410
ENDCHAR
STARTCHAR 50A3
ENCODING 20643
SWIDTH 600 0
DWIDTH 16 0
BBX 16 16 0 -1
BITMAP
0840
0840
0FFC
1040
13F8
3080
37FC
5110
9248
1446
1248
1150
1248
1444
1140
1080
ENDCHAR
STARTCHAR 50A5
ENCODING 20645
SWIDTH 600 0
DWIDTH 16 0
BBX 16 16 0 -1
BITMAP
0840
0A48
0950
1040
17FE
3402
3804
53F8
9208
1208
13F8
10A0
1120
1124
1224
141C
ENDCHAR
STARTCHAR 50A7
ENCODING 20647
SWIDTH 600 0
DWIDTH 16 0
BBX 16 16 0 -1
BITMAP
1080
1040
17FE
2402
2814
63E0
6200
A200
23FC
2210
2210
2FFE
2000
2110
2208
2404
ENDCHAR
STARTCHAR 50A8
ENCODING 20648
SWIDTH 600 0
DWIDTH 16 0
BBX 16 16 0 -1
BITMAP
1020
1020
18FA
2424
2428
61FE
6020
BC40
24FC
2544
2644
247C
2544
2644
247C
2044
ENDCHAR
STARTCHAR 50A9
ENCODING 20649
SWIDTH 600 0
DWIDTH 16 0
BBX 16 16 0 -1
BITMAP
1028
1024
1740
217E
21C8
6948
657E
A548
2248
227E
2548
2548
2948
207E
2040
2040
ENDCHAR
STARTCHAR 50AC
ENCODING 20652
SWIDTH 600 0
DWIDTH 16 0
BBX 16 16 0 -1
BITMAP
0820
0A22
0BFE
1090
1088
31FE
3310
5510
91FE
1110
1110
11FE
1110
1110
11FE
1100
ENDCHAR
STARTCHAR 50B2
ENCODING 20658
SWIDTH 600 0
DWIDTH 16 0
BBX 16 16 0 -1
BITMAP
1210
1210
1FD0
2220
2FBE
6244
BFA4
2424
2424
27A8
24A8
2490
24A8
29A8
2844
3082
ENDCHAR
STARTCHAR 50BA
ENCODING 20666
SWIDTH 600 0
DWIDTH 16 0
BBX 16 16 0 -1
BITMAP
0900
0910
0BDC
1254
1554
3288
3108
52F4
9402
1000
13FC
1040
1150
1248
1544
1080
ENDCHAR
STARTCHAR 50BB
ENCODING 20667
SWIDTH 600 0
DWIDTH 16 0
BBX 16 16 0 -1
BITMAP
0840
0880
0BFC
1294
1264
3294
33FC
5090
9108
1284
14FA
1108
1290
1060
1198
1606
ENDCHAR
STARTCHAR 50CF
ENCODING 20687
SWIDTH 600 0
DWIDTH 16 0
BBX 16 16 0 -1
BITMAP
0900
09F0
0A10
17FC
1A24
3244
33FC
5080
9144
16A8
1130
1668
10A8
1124
16A2
1040
ENDCHAR
STARTCHAR 50D6
ENCODING 20694
SWIDTH 600 0
DWIDTH 16 0
BBX 16 16 0 -1
BITMAP
1040
17FC
1040
23F8
2000
63F8
6208
A3F8
2110
2FFE
2000
23F8
2208
2208
23F8
2208
ENDCHAR
STARTCHAR 50DA
ENCODING 20698
SWIDTH 600 0
DWIDTH 16 0
BBX 16 16 0 -1
BITMAP
1040
1040
17FC
20A0
2514
6208
67FC
AA0A
23F8
2208
23F8
2040
2248
2444
2944
2080
ENDCHAR
STARTCHAR 50E6
ENCODING 20710
SWIDTH 600 0
DWIDTH 16 0
BBX 16 16 0 -1
BITMAP
1414
1212
1F92
2010
207E
6F90
6890
A890
2F90
2228
2B28
2AA8
3228
224A
2A4A
2486
ENDCHAR
STARTCHAR 50E7
ENCODING 20711
SWIDTH 600 0
DWIDTH 16 0
BBX 16 16 0 -1
BITMAP
0904
0888
0800
13FE
1222
32AA
3272
5222
93FE
1000
11FC
1104
11FC
1104
11FC
1104
ENDCHAR
STARTCHAR 50EC
ENCODING 20716
SWIDTH 600 0
DWIDTH 16 0
BBX 16 16 0 -1
BITMAP
1140
1120
13FE
2220
2620
6BFC
6220
A220
23FC
2220
2220
23FE
2200
2524
2492
2892
ENDCHAR
STARTCHAR 50ED
ENCODING 20717
SWIDTH 600 0
DWIDTH 16 0
BBX 16 16 0 -1
BITMAP
1000
17BC
1108
2528
27BC
6318
65AA
A946
2000
23F8
2208
2208
23F8
2208
2208
23F8
ENDCHAR
STARTCHAR 50EE
ENCODING 20718
SWIDTH 600 0
DWIDTH 16 0
BBX 16 16 0 -1
BITMAP
0840
0BF8
0910
10A0
17FC
3000
33F8
5248
93F8
1248
13F8
1040
13F8
1040
17FE
1000
ENDCHAR
STARTCHAR 50F3
ENCODING 20723
SWIDTH 600 0
DWIDTH 16 0
BBX 16 16 0 -1
BITMAP
1000
17FC
10A0
20A0
27FC
64A4
64A4
A7FC
2248
2150
27FC
20E0
2150
2248
2C46
2040
ENDCHAR
STARTCHAR 50F5
ENCODING 20725
SWIDTH 600 0
DWIDTH 16 0
BBX 16 16 0 -1
BITMAP
1000
1FFE
1000
27FC
2444
67FC
6444
AFFE
2000
27FC
2444
27FC
2444
27FC
2000
2FFE
ENDCHAR
STARTCHAR 50FB
ENCODING 20731
SWIDTH 600 0
DWIDTH 16 0
BBX 16 16 0 -1
BITMAP
1010
1008
1788
24BE
2480
6494
6788
A47E
2408
2788
26BE
2A88
2A88
2B88
3288
2008
ENDCHAR
STARTCHAR 5106
ENCODING 20742
SWIDTH 600 0
DWIDTH 16 0
BBX 16 16 0 -1
BITMAP
1288
1288
17E8
2290
241E
67E4
6454
A854
2754
2554
2554
2748
2548
2054
2294
2122
ENDCHAR
STARTCHAR 5107
ENCODING 20743
SWIDTH 600 0
DWIDTH 16 0
BBX 16 16 0 -1
BITMAP
0800
0BFC
0A94
1294
13FC
3000
37FE
5000
93FC
1204
13FC
10A2
1114
1308
1D44
1182
ENDCHAR
STARTCHAR 510B
ENCODING 20747
SWIDTH 600 0
DWIDTH 16 0
BBX 16 16 0 -1
BITMAP
1200
13F8
1410
27FE
2D48
7624
67FE
A400
25FC
2400
25FC
2400
25FC
2904
29FC
3104
ENDCHAR
STARTCHAR 5112
ENCODING 20754
SWIDTH 600 0
DWIDTH 16 0
BBX 16 16 0 -1
BITMAP
1000
17FC
1040
2FFE
2842
6358
6040
A358
2000
2FFE
2040
27FC
24A4
24A4
24A4
240C
ENDCHAR
STARTCHAR 5121
ENCODING 20769
SWIDTH 600 0
DWIDTH 16 0
BBX 16 16 0 -1
BITMAP
13F8
1248
1248
23F8
2248
6248
63F8
A000
2FBE
2AAA
2AAA
2FBE
2AAA
2AAA
2FBE
28A2
ENDCHAR
STARTCHAR 513F
ENCODING 20799
SWIDTH 600 0
DWIDTH 16 0
BBX 16 16 0 -1
BITMAP
0840
0840
0840
0840
0840
0840
0840
0840
0840
0840
0840
1042
1042
2042
403E
8000
ENDCHAR
STARTCHAR 5140
ENCODING 20800
SWIDTH 600 0
DWIDTH 16 0
BBX 16 16 0 -1
BITMAP
0000
0000
FFFE
0840
0840
0840
0840
0840
0840
0840
0840
1044
1044
2044
403C
8000
ENDCHAR
STARTCHAR 5141
ENCODING 20801
SWIDTH 600 0
DWIDTH 16 0
BBX 16 16 0 -1
BITMAP
0100
0100
0200
0440
0820
1010
3FF8
0448
0440
0440
0440
0840
0842
1042
2042
C03E
ENDCHAR
STARTCHAR 5143
ENCODING 20803
SWIDTH 600 0
DWIDTH 16 0
BBX 16 16 0 -1
BITMAP
0000
3FF8
0000
0000
0000
FFFE
0440
0440
0440
0440
0840
0842
1042
2042
403E
8000
ENDCHAR
STARTCHAR 5144
ENCODING 20804
SWIDTH 600 0
DWIDTH 16 0
BBX 16 16 0 -1
BITMAP
0000
3FF8
2008
2008
2008
2008
2008
3FF8
0440
0440
0440
0840
0840
1042
2042
C03E
ENDCHAR
STARTCHAR 5145
ENCODING 20805
SWIDTH 600 0
DWIDTH 16 0
BBX 16 16 0 -1
BITMAP
0200
0100
FFFE
0400
0400
0820
1010
3FF8
0448
0440
0440
0440
0844
0844
1044
603C
ENDCHAR
STARTCHAR 5146
ENCODING 20806
SWIDTH 600 0
DWIDTH 16 0
BBX 16 16 0 -1
BITMAP
0440
0440
4444
2448
1450
1440
0460
0C50
1448
2444
4440
0842
0842
1042
203E
4000
ENDCHAR
STARTCHAR 5148
ENCODING 20808
SWIDTH 600 0
DWIDTH 16 0
BBX 16 16 0 -1
BITMAP
0100
1100
1100
1FF8
2100
4100
0100
FFFE
0440
0440
0440
0840
0842
1042
203E
C000
ENDCHAR
STARTCHAR 5149
ENCODING 20809
SWIDTH 600 0
DWIDTH 16 0
BBX 16 16 0 -1
BITMAP
0100
2108
1108
0910
0920
0100
FFFE
0440
0440
0440
0440
0842
0842
1042
203E
C000
ENDCHAR
STARTCHAR 514B
ENCODING 20811
SWIDTH 600 0
DWIDTH 16 0
BBX 16 16 0 -1
BITMAP
0100
0100
FFFE
0100
0100
3FF8
2008
2008
2008
3FF8
0440
0440
0840
1042
2042
C03E
ENDCHAR
STARTCHAR 514D
ENCODING 20813
SWIDTH 600 0
DWIDTH 16 0
BBX 16 16 0 -1
BITMAP
0800
0800
0FE0
1020
2040
7FF8
A108
2108
2108
3FF8
2288
0480
0880
1082
2082
C07E
ENDCHAR
STARTCHAR 5151
ENCODING 20817
SWIDTH 600 0
DWIDTH 16 0
BBX 16 16 0 -1
BITMAP
1010
0820
0440
0000
1FF0
1010
1010
1010
1FF0
1450
0440
0440
0844
0844
1044
603C
ENDCHAR
STARTCHAR 5154
ENCODING 20820
SWIDTH 600 0
DWIDTH 16 0
BBX 16 16 0 -1
BITMAP
0800
0800
0FE0
1020
2040
7FF8
A108
2108
2108
3FF8
2288
04A0
0890
1092
2082
C07E
ENDCHAR
STARTCHAR 5155
ENCODING 20821
SWIDTH 600 0
DWIDTH 16 0
BBX 16 16 0 -1
BITMAP
0000
3C78
2448
2448
2448
27C8
2008
2008
3FF8
2448
0440
0440
0840
1042
2042
C03E
ENDCHAR
STARTCHAR 5156
ENCODING 20822
SWIDTH 600 0
DWIDTH 16 0
BBX 16 16 0 -1
BITMAP
0200
0100
FFFE
0820
1110
2208
4444
0820
1FF0
0450
0440
0840
0840
1042
2042
C03E
ENDCHAR
STARTCHAR 515A
ENCODING 20826
SWIDTH 600 0
DWIDTH 16 0
BBX 16 16 0 -1
BITMAP
0100
1110
0910
0920
7FFE
4002
8004
1FF0
1010
1010
1FF0
0440
0440
0842
3042
C03E
ENDCHAR
STARTCHAR 515C
ENCODING 20828
SWIDTH 600 0
DWIDTH 16 0
BBX 16 16 0 -1
BITMAP
0100
1200
67DC
4444
4444
47C4
4444
4444
57C4
601C
0440
0440
0440
0844
1044
603C
ENDCHAR
STARTCHAR 5162
ENCODING 20834
SWIDTH 600 0
DWIDTH 16 0
BBX 16 16 0 -1
BITMAP
0820
0820
0820
7EFE
0820
0820
7EFC
4284
4284
7EFC
1450
1450
2550
2692
4492
810E
ENDCHAR
STARTCHAR 5165
ENCODING 20837
SWIDTH 600 0
DWIDTH 16 0
BBX 16 16 0 -1
BITMAP
0400
0200
0100
0100
0100
0280
0280
0280
0440
0440
0820
0820
1010
2010
4008
8006
ENDCHAR
STARTCHAR 5168
ENCODING 20840
SWIDTH 600 0
DWIDTH 16 0
BBX 16 16 0 -1
BITMAP
0100
0100
0280
0440
0820
1010
2FE8
C106
0100
0100
1FF0
0100
0100
0100
7FFC
0000
ENDCHAR
STARTCHAR 516B
ENCODING 20843
SWIDTH 600 0
DWIDTH 16 0
BBX 16 16 0 -1
BITMAP
0000
0040
0440
0440
0440
0440
0440
0420
0820
0820
0810
1010
1008
2008
2004
4002
ENDCHAR
STARTCHAR 516C
ENCODING 20844
SWIDTH 600 0
DWIDTH 16 0
BBX 16 16 0 -1
BITMAP
0080
0480
0480
0840
0840
1020
2010
4208
8206
0400
0440
0820
1020
3FF0
1010
0000
ENDCHAR
STARTCHAR 516D
ENCODING 20845
SWIDTH 600 0
DWIDTH 16 0
BBX 16 16 0 -1
BITMAP
0200
0100
0080
0080
0000
FFFE
0000
0000
0440
0420
0810
0808
1008
2004
4004
0000
ENDCHAR
STARTCHAR 516E
ENCODING 20846
SWIDTH 600 0
DWIDTH 16 0
BBX 16 16 0 -1
BITMAP
0440
0440
0820
0820
1010
2008
DFF6
0400
0800
0FE0
0020
0020
0020
0020
0140
0080
ENDCHAR
STARTCHAR 5170
ENCODING 20848
SWIDTH 600 0
DWIDTH 16 0
BBX 16 16 0 -1
BITMAP
1010
0810
0420
0440
0000
7FFC
0000
0000
0000
3FF8
0000
0000
0000
0000
FFFE
0000
ENDCHAR
STARTCHAR 5171
ENCODING 20849
SWIDTH 600 0
DWIDTH 16 0
BBX 16 16 0 -1
BITMAP
0420
0420
0420
0420
3FFC
0420
0420
0420
0420
0420
7FFE
0000
0420
0810
1008
2004
ENDCHAR
STARTCHAR 5173
ENCODING 20851
SWIDTH 600 0
DWIDTH 16 0
BBX 16 16 0 -1
BITMAP
1010
0810
0820
0000
3FF8
0100
0100
0100
FFFE
0100
0280
0280
0440
0820
3018
C006
ENDCHAR
STARTCHAR 5174
ENCODING 20852
SWIDTH 600 0
DWIDTH 16 0
BBX 16 16 0 -1
BITMAP
0408
0208
2108
1110
0810
0820
0040
FFFE
0000
0440
0420
0810
0808
1008
2004
4004
ENDCHAR
STARTCHAR 5175
ENCODING 20853
SWIDTH 600 0
DWIDTH 16 0
BBX 16 16 0 -1
BITMAP
0020
00F0
1F00
1000
1000
1FF8
1080
1080
1080
1080
FFFE
0000
0840
1020
2010
4008
ENDCHAR
STARTCHAR 5176
ENCODING 20854
SWIDTH 600 0
DWIDTH 16 0
BBX 16 16 0 -1
BITMAP
0820
0820
7FFC
0820
0820
0FE0
0820
0820
0FE0
0820
0820
FFFE
0000
0820
1010
2008
ENDCHAR
STARTCHAR 5177
ENCODING 20855
SWIDTH 600 0
DWIDTH 16 0
BBX 16 16 0 -1
BITMAP
0000
1FF0
1010
1010
1FF0
1010
1FF0
1010
1FF0
1010
1010
FFFE
0440
0820
1010
2008
ENDCHAR
STARTCHAR 5178
ENCODING 20856
SWIDTH 600 0
DWIDTH 16 0
BBX 16 16 0 -1
BITMAP
0440
0440
0440
3FF8
2448
2448
2448
3FF8
2448
2448
2448
FFFE
0440
0820
1010
2008
ENDCHAR
STARTCHAR 5179
ENCODING 20857
SWIDTH 600 0
DWIDTH 16 0
BBX 16 16 0 -1
BITMAP
0820
0420
0440
FFFE
1020
1020
2040
2448
4488
78F0
0810
1020
1428
2244
7EFC
0204
ENDCHAR
STARTCHAR 517B
ENCODING 20859
SWIDTH 600 0
DWIDTH 16 0
BBX 16 16 0 -1
BITMAP
0820
0440
0000
7FFC
0100
3FF8
0200
FFFE
0440
0820
3458
C446
0440
0840
1040
2040
ENDCHAR
STARTCHAR 517C
ENCODING 20860
SWIDTH 600 0
DWIDTH 16 0
BBX 16 16 0 -1
BITMAP
1020
0840
7FFC
0480
0480
3FF0
0490
FFFE
0490
3FF0
0CC0
14A0
2498
C486
0480
0480
ENDCHAR
STARTCHAR 517D
ENCODING 20861
SWIDTH 600 0
DWIDTH 16 0
BBX 16 16 0 -1
BITMAP
0820
0440
3FF8
2108
3FF8
2108
3FF8
0000
FFFE
0000
1FF0
1010
1010
1010
1FF0
1010
ENDCHAR
STARTCHAR 5180
ENCODING 20864
SWIDTH 600 0
DWIDTH 16 0
BBX 16 16 0 -1
BITMAP
0444
7C78
0442
1C3E
E400
3FF8
2108
3FF8
2108
3FF8
0440
3FF8
0440
FFFE
1010
2008
ENDCHAR
STARTCHAR 5181
ENCODING 20865
SWIDTH 600 0
DWIDTH 16 0
BBX 16 16 0 -1
BITMAP
4400
25FE
2902
7D02
55FE
5524
7D24
557E
5524
7D24
11FE
1152
FD54
1248
1264
1442
ENDCHAR
STARTCHAR 5182
ENCODING 20866
SWIDTH 600 0
DWIDTH 16 0
BBX 16 16 0 -1
BITMAP
0000
7FFC
4004
4004
4004
4004
4004
4004
4004
4004
4004
4004
4004
4004
4014
4008
ENDCHAR
STARTCHAR 5185
ENCODING 20869
SWIDTH 600 0
DWIDTH 16 0
BBX 16 16 0 -1
BITMAP
0100
0100
0100
7FFC
4104
4104
4104
4284
4244
4424
4814
5014
4004
4004
4014
4008
ENDCHAR
STARTCHAR 5188
ENCODING 20872
SWIDTH 600 0
DWIDTH 16 0
BBX 16 16 0 -1
BITMAP
0000
7FFC
4004
4004
4004
4824
4444
4284
4104
4284
4444
4824
4004
4004
4014
4008
ENDCHAR
STARTCHAR 5189
ENCODING 20873
SWIDTH 600 0
DWIDTH 16 0
BBX 16 16 0 -1
BITMAP
0100
0100
0100
3FF8
2108
2108
3FF8
2108
2108
2108
FFFE
2008
2008
2008
2028
2010
ENDCHAR
STARTCHAR 518C
ENCODING 20876
SWIDTH 600 0
DWIDTH 16 0
BBX 16 16 0 -1
BITMAP
0000
1E78
1248
1248
1248
1248
1248
FFFE
1248
1248
1248
1248
1248
1288
26A8
4110
ENDCHAR
STARTCHAR 518D
ENCODING 20877
SWIDTH 600 0
DWIDTH 16 0
BBX 16 16 0 -1
BITMAP
0000
FFFE
0100
0100
3FF8
2108
2108
3FF8
2108
2108
FFFE
2008
2008
2008
2028
2010
ENDCHAR
STARTCHAR 5192
ENCODING 20882
SWIDTH 600 0
DWIDTH 16 0
BBX 16 16 0 -1
BITMAP
0000
3FF8
2008
2FE8
2008
2FE8
2008
0000
1FF0
1010
1FF0
1010
1FF0
1010
1FF0
1010
ENDCHAR
STARTCHAR 5195
ENCODING 20885
SWIDTH 600 0
DWIDTH 16 0
BBX 16 16 0 -1
BITMAP
7FFC
4004
5FF4
4004
5FF4
0400
0FE0
1020
3FF8
5108
1108
1FF8
0280
0482
1882
607E
ENDCHAR
STARTCHAR 5196
ENCODING 20886
SWIDTH 600 0
DWIDTH 16 0
BBX 16 16 0 -1
BITMAP
0000
7FFE
4002
8004
0000
0000
0000
0000
0000
0000
0000
0000
0000
0000
0000
0000
ENDCHAR
STARTCHAR 5197
ENCODING 20887
SWIDTH 600 0
DWIDTH 16 0
BBX 16 16 0 -1
BITMAP
0000
0000
7FFE
4002
8004
0000
0FC0
0840
0840
0840
0840
1042
1042
2042
403E
8000
ENDCHAR
STARTCHAR 5199
ENCODING 20889
SWIDTH 600 0
DWIDTH 16 0
BBX 16 16 0 -1
BITMAP
0000
7FFE
4002
9004
1000
1FF8
1000
2000
3FF8
0008
0008
FFC8
0008
0008
0050
0020
ENDCHAR
STARTCHAR 519B
ENCODING 20891
SWIDTH 600 0
DWIDTH 16 0
BBX 16 16 0 -1
BITMAP
0000
7FFE
4002
8204
0200
3FF8
0400
0900
1100
3FF8
0100
0100
FFFE
0100
0100
0100
ENDCHAR
STARTCHAR 519C
ENCODING 20892
SWIDTH 600 0
DWIDTH 16 0
BBX 16 16 0 -1
BITMAP
0100
0100
0100
7FFC
4204
8208
0500
0508
0890
18A0
2840
4820
8810
0A08
0C06
0800
ENDCHAR
STARTCHAR 51A0
ENCODING 20896
SWIDTH 600 0
DWIDTH 16 0
BBX 16 16 0 -1
BITMAP
0000
7FFE
4002
8004
3E08
0008
00FE
7E08
1448
1428
1408
142A
2412
2402
43FE
8000
ENDCHAR
STARTCHAR 51A2
ENCODING 20898
SWIDTH 600 0
DWIDTH 16 0
BBX 16 16 0 -1
BITMAP
0000
7FFE
4002
8004
7FFC
0200
0608
1910
6AA0
04C0
1BA0
6298
0C86
3080
C280
0100
ENDCHAR
STARTCHAR 51A4
ENCODING 20900
SWIDTH 600 0
DWIDTH 16 0
BBX 16 16 0 -1
BITMAP
0000
7FFE
4002
8804
0FE0
1020
2040
5FF8
1108
1108
1FF8
0280
04A0
0892
1082
607E
ENDCHAR
STARTCHAR 51A5
ENCODING 20901
SWIDTH 600 0
DWIDTH 16 0
BBX 16 16 0 -1
BITMAP
0000
7FFE
4002
8004
1FF0
1010
1FF0
1010
1FF0
1210
0100
FFFE
0000
0820
1010
2008
ENDCHAR
STARTCHAR 51AB
ENCODING 20907
SWIDTH 600 0
DWIDTH 16 0
BBX 16 16 0 -1
BITMAP
0000
4000
2000
2000
0000
0800
0800
1000
1000
E000
2000
2000
2000
2000
2000
0000
ENDCHAR
STARTCHAR 51AC
ENCODING 20908
SWIDTH 600 0
DWIDTH 16 0
BBX 16 16 0 -1
BITMAP
0400
0400
0FF0
1010
2820
4440
0380
0C60
3018
C006
0700
00C0
0020
0E00
0180
0040
ENDCHAR
STARTCHAR 51AF
ENCODING 20911
SWIDTH 600 0
DWIDTH 16 0
BBX 16 16 0 -1
BITMAP
0000
47F0
2010
2010
0210
0A10
0A10
13FC
1004
E004
2004
27F4
2004
2004
2028
0010
ENDCHAR
STARTCHAR 51B0
ENCODING 20912
SWIDTH 600 0
DWIDTH 16 0
BBX 16 16 0 -1
BITMAP
0040
4040
2040
2044
0068
0770
1160
1150
2150
E248
2248
2444
2842
2040
2140
0080
ENDCHAR
STARTCHAR 51B1
ENCODING 20913
SWIDTH 600 0
DWIDTH 16 0
BBX 16 16 0 -1
BITMAP
0000
47FE
2080
2080
0080
08F8
0908
1108
1108
2208
E3F8
2010
2010
2010
27FE
0000
ENDCHAR
STARTCHAR 51B2
ENCODING 20914
SWIDTH 600 0
DWIDTH 16 0
BBX 16 16 0 -1
BITMAP
0040
4040
2040
2040
07FC
0444
1444
1444
2444
E444
27FC
2444
2040
2040
2040
0040
ENDCHAR
STARTCHAR 51B3
ENCODING 20915
SWIDTH 600 0
DWIDTH 16 0
BBX 16 16 0 -1
BITMAP
0080
4080
2080
27F8
0088
0088
1088
1088
2FFE
E080
2140
2140
2220
2410
2808
1006
ENDCHAR
STARTCHAR 51B5
ENCODING 20917
SWIDTH 600 0
DWIDTH 16 0
BBX 16 16 0 -1
BITMAP
0000
47F8
2408
2408
0408
0408
17F8
1120
2120
E120
2120
2220
2222
2422
281E
1000
ENDCHAR
STARTCHAR 51B6
ENCODING 20918
SWIDTH 600 0
DWIDTH 16 0
BBX 16 16 0 -1
BITMAP
0040
4040
2080
2110
0208
07FC
1004
1000
23F8
E208
2208
2208
2208
2208
23F8
0208
ENDCHAR
STARTCHAR 51B7
ENCODING 20919
SWIDTH 600 0
DWIDTH 16 0
BBX 16 16 0 -1
BITMAP
0040
4040
20A0
20A0
0110
0248
1426
1020
23F8
E008
2010
2110
20A0
2040
2020
0020
ENDCHAR
STARTCHAR 51BB
ENCODING 20923
SWIDTH 600 0
DWIDTH 16 0
BBX 16 16 0 -1
BITMAP
0040
4040
2040
27FE
0080
0920
0920
1220
13FC
E020
2128
2124
2222
2422
20A0
0040
ENDCHAR
STARTCHAR 51BC
ENCODING 20924
SWIDTH 600 0
DWIDTH 16 0
BBX 16 16 0 -1
BITMAP
0040
4240
2240
23FC
0440
0040
1040
17FE
2120
E120
2120
2120
2222
2222
241E
0800
ENDCHAR
STARTCHAR 51BD
ENCODING 20925
SWIDTH 600 0
DWIDTH 16 0
BBX 16 16 0 -1
BITMAP
0004
4004
2FC4
2224
0224
03A4
12A4
14A4
26A4
E5A4
2924
2124
2204
2204
2414
0808
ENDCHAR
STARTCHAR 51C0
ENCODING 20928
SWIDTH 600 0
DWIDTH 16 0
BBX 16 16 0 -1
BITMAP
0100
4100
23F0
2410
0020
17FC
1044
1044
2FFE
2044
E044
27FC
2044
2040
2140
0080
ENDCHAR
STARTCHAR 51C4
ENCODING 20932
SWIDTH 600 0
DWIDTH 16 0
BBX 16 16 0 -1
BITMAP
0040
4040
27FC
2040
03F8
0048
17FE
1048
23F8
E080
27FE
2108
2390
2060
2198
0604
ENDCHAR
STARTCHAR 51C6
ENCODING 20934
SWIDTH 600 0
DWIDTH 16 0
BBX 16 16 0 -1
BITMAP
0140
4120
2120
23FE
0220
1620
1BFC
1220
2220
23FC
E220
2220
2220
23FE
2200
0200
ENDCHAR
STARTCHAR 51C7
ENCODING 20935
SWIDTH 600 0
DWIDTH 16 0
BBX 16 16 0 -1
BITMAP
0208
4228
2228
2228
0FA4
0244
1254
1692
2710
EAA0
2A20
3228
2244
22FC
2244
0200
ENDCHAR
STARTCHAR 51C9
ENCODING 20937
SWIDTH 600 0
DWIDTH 16 0
BBX 16 16 0 -1
BITMAP
0080
4040
2FFE
2000
0000
03F8
1208
1208
23F8
E040
2250
2248
2444
2844
2140
0080
ENDCHAR
STARTCHAR 51CB
ENCODING 20939
SWIDTH 600 0
DWIDTH 16 0
BBX 16 16 0 -1
BITMAP
0000
47FC
2444
2444
05F4
0444
1444
17FC
2404
E5F4
2514
2514
25F4
2404
2414
0808
ENDCHAR
STARTCHAR 51CC
ENCODING 20940
SWIDTH 600 0
DWIDTH 16 0
BBX 16 16 0 -1
BITMAP
0040
4040
23F8
2040
0040
07FE
1110
1288
2484
E1F0
2310
24A0
2040
20A0
2310
0C0C
ENDCHAR
STARTCHAR 51CF
ENCODING 20943
SWIDTH 600 0
DWIDTH 16 0
BBX 16 16 0 -1
BITMAP
0014
4012
2010
27FE
0410
0410
15D0
1412
2412
E5D4
2554
2548
25DA
242A
2846
1082
ENDCHAR
STARTCHAR 51D1
ENCODING 20945
SWIDTH 600 0
DWIDTH 16 0
BBX 16 16 0 -1
BITMAP
0040
4040
27FC
2040
03F8
0080
17FC
1110
2208
E5F6
2040
23F8
2040
20A0
2110
0608
ENDCHAR
STARTCHAR 51DB
ENCODING 20955
SWIDTH 600 0
DWIDTH 16 0
BBX 16 16 0 -1
BITMAP
0040
4FFE
2000
27FC
0404
05F4
1514
15F4
2404
E7FC
2000
23F8
2000
2FFE
2248
04C4
ENDCHAR
STARTCHAR 51DD
ENCODING 20957
SWIDTH 600 0
DWIDTH 16 0
BBX 16 16 0 -1
BITMAP
0400
457C
2604
24A8
0390
107C
1414
1794
2A50
2250
EFDC
2250
2550
24B0
289E
0100
ENDCHAR
STARTCHAR 51E0
ENCODING 20960
SWIDTH 600 0
DWIDTH 16 0
BBX 16 16 0 -1
BITMAP
0000
0FE0
0820
0820
0820
0820
0820
0820
0820
0820
1020
1022
2022
2022
401E
8000
ENDCHAR
STARTCHAR 51E1
ENCODING 20961
SWIDTH 600 0
DWIDTH 16 0
BBX 16 16 0 -1
BITMAP
0000
0FE0
0820
0820
0820
0A20
0920
08A0
08A0
0820
1020
1022
2022
2022
401E
8000
ENDCHAR
STARTCHAR 51E4
ENCODING 20964
SWIDTH 600 0
DWIDTH 16 0
BBX 16 16 0 -1
BITMAP
0000
3FF8
2008
2008
2FC8
2048
2848
2488
2288
2108
2288
244A
284A
400A
4006
8002
ENDCHAR
STARTCHAR 51EB
ENCODING 20971
SWIDTH 600 0
DWIDTH 16 0
BBX 16 16 0 -1
BITMAP
0200
0400
3FE0
2020
2420
22A0
2040
3FF8
0008
1F88
10A8
1090
1082
2082
407E
8000
ENDCHAR
STARTCHAR 51ED
ENCODING 20973
SWIDTH 600 0
DWIDTH 16 0
BBX 16 16 0 -1
BITMAP
0838
0BC0
1040
3040
57FE
9040
1040
1040
13F8
0000
0FE0
0820
0820
1022
2022
C01E
ENDCHAR
STARTCHAR 51EF
ENCODING 20975
SWIDTH 600 0
DWIDTH 16 0
BBX 16 16 0 -1
BITMAP
1000
92F0
9290
9290
FE90
0090
FE90
0290
0290
7E90
4090
4092
4692
5912
610E
0200
ENDCHAR
STARTCHAR 51F0
ENCODING 20976
SWIDTH 600 0
DWIDTH 16 0
BBX 16 16 0 -1
BITMAP
0000
3FF8
2208
27C8
2448
27C8
2448
27C8
2008
2FE8
2108
27CA
210A
4FEA
4006
8002
ENDCHAR
STARTCHAR 51F3
ENCODING 20979
SWIDTH 600 0
DWIDTH 16 0
BBX 16 16 0 -1
BITMAP
0090
7EA0
0444
2BA8
1010
2FE8
C826
0FE0
0440
7FFC
0000
0FE0
0820
0822
1022
601E
ENDCHAR
STARTCHAR 51F5
ENCODING 20981
SWIDTH 600 0
DWIDTH 16 0
BBX 16 16 0 -1
BITMAP
0000
0000
0000
0000
4004
4004
4004
4004
4004
4004
4004
4004
4004
4004
7FFC
0004
ENDCHAR
STARTCHAR 51F6
ENCODING 20982
SWIDTH 600 0
DWIDTH 16 0
BBX 16 16 0 -1
BITMAP
0000
0010
1010
0820
4444
4284
4104
4284
4444
4824
5014
6014
4004
4004
7FFC
0004
ENDCHAR
STARTCHAR 51F8
ENCODING 20984
SWIDTH 600 0
DWIDTH 16 0
BBX 16 16 0 -1
BITMAP
0000
0FE0
0820
0820
0820
0820
0820
783C
4004
4004
4004
4004
4004
4004
7FFC
4004
ENDCHAR
STARTCHAR 51F9
ENCODING 20985
SWIDTH 600 0
DWIDTH 16 0
BBX 16 16 0 -1
BITMAP
0000
7C7C
4444
4444
4444
4444
4444
4444
4444
47C4
4004
4004
4004
4004
7FFC
4004
ENDCHAR
STARTCHAR 51FA
ENCODING 20986
SWIDTH 600 0
DWIDTH 16 0
BBX 16 16 0 -1
BITMAP
0100
0100
2108
2108
2108
2108
3FF8
0108
0100
0100
4104
4104
4104
4104
7FFC
0004
ENDCHAR
STARTCHAR 51FB
ENCODING 20987
SWIDTH 600 0
DWIDTH 16 0
BBX 16 16 0 -1
BITMAP
0100
0100
0100
3FF8
0100
0100
0100
FFFE
0100
0100
2108
2108
2108
2108
3FF8
0008
ENDCHAR
STARTCHAR 51FC
ENCODING 20988
SWIDTH 600 0
DWIDTH 16 0
BBX 16 16 0 -1
BITMAP
0100
0100
0100
0110
5D24
4544
4584
4944
4924
5114
6114
4504
4204
4004
7FFC
0004
ENDCHAR
STARTCHAR 51FD
ENCODING 20989
SWIDTH 600 0
DWIDTH 16 0
BBX 16 16 0 -1
BITMAP
0000
3FF0
0020
0040
5194
4924
4544
4104
4544
4924
5114
4504
4204
4004
7FFC
0004
ENDCHAR
STARTCHAR 51FF
ENCODING 20991
SWIDTH 600 0
DWIDTH 16 0
BBX 16 16 0 -1
BITMAP
0440
2448
1450
0440
FFFE
0000
0440
2288
2FE8
2108
2108
2FE8
2108
2108
3FF8
0008
ENDCHAR
STARTCHAR 5200
ENCODING 20992
SWIDTH 600 0
DWIDTH 16 0
BBX 16 16 0 -1
BITMAP
0000
0000
3FF8
0208
0208
0208
0208
0208
0208
0408
0408
0808
0808
1008
2050
4020
ENDCHAR
STARTCHAR 5201
ENCODING 20993
SWIDTH 600 0
DWIDTH 16 0
BBX 16 16 0 -1
BITMAP
0000
3FF8
0008
0008
0008
0048
0088
0108
0208
0408
0808
1008
6008
0008
0050
0020
ENDCHAR
STARTCHAR 5202
ENCODING 20994
SWIDTH 600 0
DWIDTH 16 0
BBX 16 16 0 -1
BITMAP
0004
0004
0004
0044
0044
0044
0044
0044
0044
0044
0044
0004
0004
0004
0014
0008
ENDCHAR
STARTCHAR 5203
ENCODING 20995
SWIDTH 600 0
DWIDTH 16 0
BBX 16 16 0 -1
BITMAP
0000
3FF8
0208
0208
0208
2208
2208
2208
4208
0208
0408
0408
0808
0808
1050
6020
ENDCHAR
STARTCHAR 5206
ENCODING 20998
SWIDTH 600 0
DWIDTH 16 0
BBX 16 16 0 -1
BITMAP
0040
0440
0420
0820
1010
2008
4004
9FE2
0420
0420
0420
0820
0820
1020
2140
4080
ENDCHAR
STARTCHAR 5207
ENCODING 20999
SWIDTH 600 0
DWIDTH 16 0
BBX 16 16 0 -1
BITMAP
1000
1000
11FC
1044
1044
1E44
F044
1044
1044
1244
1444
1884
1084
0104
0228
0410
ENDCHAR
STARTCHAR 5208
ENCODING 21000
SWIDTH 600 0
DWIDTH 16 0
BBX 16 16 0 -1
BITMAP
0004
0104
0104
2124
1124
0A24
0A24
0424
0424
0A24
0A24
1124
2104
4004
8014
0008
ENDCHAR
STARTCHAR 520A
ENCODING 21002
SWIDTH 600 0
DWIDTH 16 0
BBX 16 16 0 -1
BITMAP
0004
7F04
0804
0824
0824
0824
0824
FFA4
0824
0824
0824
0824
0804
0804
0814
0808
ENDCHAR
STARTCHAR 520D
ENCODING 21005
SWIDTH 600 0
DWIDTH 16 0
BBX 16 16 0 -1
BITMAP
0400
0400
0FF0
1010
2020
4040
BFF8
0008
0008
0008
1FF8
0008
0008
0008
3FF8
0008
ENDCHAR
STARTCHAR 520E
ENCODING 21006
SWIDTH 600 0
DWIDTH 16 0
BBX 16 16 0 -1
BITMAP
2004
2004
2004
3FA4
54A4
94A4
14A4
24A4
24A4
48A4
88A4
10A4
2084
4084
8514
0208
ENDCHAR
STARTCHAR 5211
ENCODING 21009
SWIDTH 600 0
DWIDTH 16 0
BBX 16 16 0 -1
BITMAP
0004
7F84
1204
1224
1224
1224
1224
FFE4
1224
1224
1224
1224
2204
2204
4214
8208
ENDCHAR
STARTCHAR 5212
ENCODING 21010
SWIDTH 600 0
DWIDTH 16 0
BBX 16 16 0 -1
BITMAP
1004
1404
1204
1024
13A4
FC24
1024
1124
1124
1224
0C24
08A4
1484
2284
C194
0088
ENDCHAR
STARTCHAR 5216
ENCODING 21014
SWIDTH 600 0
DWIDTH 16 0
BBX 16 16 0 -1
BITMAP
0004
3F04
2104
2124
2124
3F24
2124
2124
2124
3F24
2124
2124
2104
4104
4514
8208
ENDCHAR
STARTCHAR 5217
ENCODING 21015
SWIDTH 600 0
DWIDTH 16 0
BBX 16 16 0 -1
BITMAP
0004
7F84
0804
0824
1F24
1124
2124
2124
5224
8A24
0424
0424
0804
1004
2014
4008
ENDCHAR
STARTCHAR 5218
ENCODING 21016
SWIDTH 600 0
DWIDTH 16 0
BBX 16 16 0 -1
BITMAP
1004
0804
0804
FFA4
0224
4224
2224
1424
1424
0824
0824
1424
2404
4204
8214
0008
ENDCHAR
STARTCHAR 5219
ENCODING 21017
SWIDTH 600 0
DWIDTH 16 0
BBX 16 16 0 -1
BITMAP
0004
7F04
4104
4124
4924
4924
4924
4924
4924
4924
4924
1424
1204
2104
4094
8088
ENDCHAR
STARTCHAR 521A
ENCODING 21018
SWIDTH 600 0
DWIDTH 16 0
BBX 16 16 0 -1
BITMAP
0004
7F04
4104
4124
6524
5524
5524
4924
4924
5524
5524
6524
4104
4104
4514
4208
ENDCHAR
STARTCHAR 521B
ENCODING 21019
SWIDTH 600 0
DWIDTH 16 0
BBX 16 16 0 -1
BITMAP
0804
0804
1404
1224
2124
40A4
BE24
2224
2224
2224
2A24
2424
2084
2084
1F94
0008
ENDCHAR
STARTCHAR 521D
ENCODING 21021
SWIDTH 600 0
DWIDTH 16 0
BBX 16 16 0 -1
BITMAP
2000
1000
01FC
FC44
0844
1044
1044
3444
5844
9444
1444
1084
1084
1104
1228
1410
ENDCHAR
STARTCHAR 5220
ENCODING 21024
SWIDTH 600 0
DWIDTH 16 0
BBX 16 16 0 -1
BITMAP
0002
7BC2
4A42
4A4A
4A4A
4A4A
4A4A
FFEA
4A4A
4A4A
4A4A
4A4A
4A42
5A42
854A
0884
ENDCHAR
STARTCHAR 5224
ENCODING 21028
SWIDTH 600 0
DWIDTH 16 0
BBX 16 16 0 -1
BITMAP
0404
4484
2484
2524
0424
7FA4
0424
0424
0424
FFE4
0424
0824
0804
1004
2014
4008
ENDCHAR
STARTCHAR 5228
ENCODING 21032
SWIDTH 600 0
DWIDTH 16 0
BBX 16 16 0 -1
BITMAP
1004
1004
3F04
2124
4124
BD24
2524
2524
3D24
2124
2524
2224
2084
2084
1F94
0008
ENDCHAR
STARTCHAR 5229
ENCODING 21033
SWIDTH 600 0
DWIDTH 16 0
BBX 16 16 0 -1
BITMAP
0104
0784
7C04
0424
0424
0424
FFA4
0C24
1624
1524
24A4
2424
4404
8404
0414
0408
ENDCHAR
STARTCHAR 522B
ENCODING 21035
SWIDTH 600 0
DWIDTH 16 0
BBX 16 16 0 -1
BITMAP
0004
7F04
4104
4124
4124
7F24
1024
1024
FF24
1124
1124
1124
2104
2104
4A14
8408
ENDCHAR
STARTCHAR 522D
ENCODING 21037
SWIDTH 600 0
DWIDTH 16 0
BBX 16 16 0 -1
BITMAP
0004
7F04
0204
0424
0C24
1224
2124
C0A4
0024
7F24
0824
0824
0804
0F04
F014
4008
ENDCHAR
STARTCHAR 522E
ENCODING 21038
SWIDTH 600 0
DWIDTH 16 0
BBX 16 16 0 -1
BITMAP
0204
0F04
7804
0824
0824
FFA4
0824
0824
0824
7F24
4124
4124
4104
4104
7F14
4108
ENDCHAR
STARTCHAR 5230
ENCODING 21040
SWIDTH 600 0
DWIDTH 16 0
BBX 16 16 0 -1
BITMAP
0004
FF84
0804
1024
2224
4124
FFA4
08A4
0824
0824
7F24
0824
0804
0F84
F814
4008
ENDCHAR
STARTCHAR 5233
ENCODING 21043
SWIDTH 600 0
DWIDTH 16 0
BBX 16 16 0 -1
BITMAP
0804
0804
FF84
1424
2224
4124
BEA4
0024
FFA4
1024
2024
7F24
0104
0104
0A14
0408
ENDCHAR
STARTCHAR 5236
ENCODING 21046
SWIDTH 600 0
DWIDTH 16 0
BBX 16 16 0 -1
BITMAP
0404
2404
2404
3FA4
4424
0424
FFE4
0424
0424
3FA4
24A4
24A4
2684
2504
0414
0408
ENDCHAR
STARTCHAR 5237
ENCODING 21047
SWIDTH 600 0
DWIDTH 16 0
BBX 16 16 0 -1
BITMAP
0002
3FC2
2042
2042
3FD2
2212
2212
2212
3FD2
5252
5252
5252
9342
1282
020A
0204
ENDCHAR
STARTCHAR 5238
ENCODING 21048
SWIDTH 600 0
DWIDTH 16 0
BBX 16 16 0 -1
BITMAP
0100
1110
0920
3FF8
0200
0200
7FFC
0820
1010
2FE8
C426
0420
0820
0820
1140
2080
ENDCHAR
STARTCHAR 5239
ENCODING 21049
SWIDTH 600 0
DWIDTH 16 0
BBX 16 16 0 -1
BITMAP
0104
6204
1404
0824
1424
2224
4924
0824
FFA4
0824
2A24
2924
4884
8884
2814
1008
ENDCHAR
STARTCHAR 523A
ENCODING 21050
SWIDTH 600 0
DWIDTH 16 0
BBX 16 16 0 -1
BITMAP
0804
0804
FF84
0824
0824
7F24
4924
4924
4D24
4A24
1C24
2A24
4904
8884
0814
0808
ENDCHAR
STARTCHAR 523B
ENCODING 21051
SWIDTH 600 0
DWIDTH 16 0
BBX 16 16 0 -1
BITMAP
1004
0804
0004
FFA4
0824
1124
2124
7E24
0424
0924
1224
2424
CC04
1204
2114
C088
ENDCHAR
STARTCHAR 523D
ENCODING 21053
SWIDTH 600 0
DWIDTH 16 0
BBX 16 16 0 -1
BITMAP
0804
0804
1404
2224
4124
BEA4
0024
0024
FFA4
1024
1024
2224
4104
FF04
4114
0008
ENDCHAR
STARTCHAR 523F
ENCODING 21055
SWIDTH 600 0
DWIDTH 16 0
BBX 16 16 0 -1
BITMAP
0804
4904
4904
4924
7F24
1024
1024
3F24
4124
A124
1224
1424
0804
1004
2014
C008
ENDCHAR
STARTCHAR 5240
ENCODING 21056
SWIDTH 600 0
DWIDTH 16 0
BBX 16 16 0 -1
BITMAP
0804
4904
4904
4924
7F24
0024
7F24
0124
0124
3F24
2024
2024
2304
2C04
3014
0008
ENDCHAR
STARTCHAR 5241
ENCODING 21057
SWIDTH 600 0
DWIDTH 16 0
BBX 16 16 0 -1
BITMAP
0004
3E04
2204
2224
2224
49A4
8824
0824
FFA4
0824
1C24
2A24
4904
8884
0814
0808
ENDCHAR
STARTCHAR 5242
ENCODING 21058
SWIDTH 600 0
DWIDTH 16 0
BBX 16 16 0 -1
BITMAP
1004
0804
FF84
0224
6424
1824
2624
C124
22A4
2224
2224
2224
2204
4204
4214
8208
ENDCHAR
STARTCHAR 5243
ENCODING 21059
SWIDTH 600 0
DWIDTH 16 0
BBX 16 16 0 -1
BITMAP
4204
2204
2404
FF24
0924
0924
FF24
8824
8824
FFA4
18A4
28A4
4A84
8904
0814
0808
ENDCHAR
STARTCHAR 524A
ENCODING 21066
SWIDTH 600 0
DWIDTH 16 0
BBX 16 16 0 -1
BITMAP
0804
4904
2904
2A24
0824
7F24
4124
4124
7F24
4124
4124
7F24
4104
4104
4514
4208
ENDCHAR
STARTCHAR 524C
ENCODING 21068
SWIDTH 600 0
DWIDTH 16 0
BBX 16 16 0 -1
BITMAP
0804
0804
FF84
0824
0824
7F24
4924
4924
7F24
0824
1C24
2A24
4904
8804
0814
0808
ENDCHAR
STARTCHAR 524D
ENCODING 21069
SWIDTH 600 0
DWIDTH 16 0
BBX 16 16 0 -1
BITMAP
1010
0810
0820
FFFE
0000
3E08
2248
2248
3E48
2248
2248
3E48
2208
2208
2A28
2410
ENDCHAR
STARTCHAR 5250
ENCODING 21072
SWIDTH 600 0
DWIDTH 16 0
BBX 16 16 0 -1
BITMAP
0004
7F04
4104
4124
4124
7F24
0824
0824
FFA4
88A4
94A4
A2A4
C284
8084
8294
8108
ENDCHAR
STARTCHAR 5251
ENCODING 21073
SWIDTH 600 0
DWIDTH 16 0
BBX 16 16 0 -1
BITMAP
0804
0804
1404
1224
2124
40A4
BE24
0024
1124
0924
4924
2224
2204
0784
7814
2008
ENDCHAR
STARTCHAR 5254
ENCODING 21076
SWIDTH 600 0
DWIDTH 16 0
BBX 16 16 0 -1
BITMAP
0004
3F04
2104
2124
3F24
2124
2124
3F24
1024
3FA4
4AA4
92A4
2484
4884
1294
2108
ENDCHAR
STARTCHAR 5256
ENCODING 21078
SWIDTH 600 0
DWIDTH 16 0
BBX 16 16 0 -1
BITMAP
1004
0804
7F84
0024
2124
1224
FFE4
0024
0024
3F24
2124
2124
2104
3F04
2114
0008
ENDCHAR
STARTCHAR 525C
ENCODING 21084
SWIDTH 600 0
DWIDTH 16 0
BBX 16 16 0 -1
BITMAP
0804
0404
7F84
40A4
2024
3BA4
2AA4
2AA4
2AA4
5AA4
4BA4
8A24
1204
1284
2314
4208
ENDCHAR
STARTCHAR 525E
ENCODING 21086
SWIDTH 600 0
DWIDTH 16 0
BBX 16 16 0 -1
BITMAP
0804
0804
7F84
1424
2224
4124
FFE4
0124
7924
4924
4924
4924
7904
0104
0514
0208
ENDCHAR
STARTCHAR 5261
ENCODING 21089
SWIDTH 600 0
DWIDTH 16 0
BBX 16 16 0 -1
BITMAP
0804
0904
4904
4A24
8824
1424
2224
4924
8824
4924
4924
8A24
1404
2204
4114
8088
ENDCHAR
STARTCHAR 5265
ENCODING 21093
SWIDTH 600 0
DWIDTH 16 0
BBX 16 16 0 -1
BITMAP
0004
7E04
0204
3E24
0224
FFA4
0824
0924
4924
2A24
1C24
2A24
C904
0904
2814
1008
ENDCHAR
STARTCHAR 5267
ENCODING 21095
SWIDTH 600 0
DWIDTH 16 0
BBX 16 16 0 -1
BITMAP
0004
3F84
2084
20A4
3FA4
2424
2424
3FA4
2424
2424
3FA4
50A4
5084
9084
1F94
1088
ENDCHAR
STARTCHAR 5269
ENCODING 21097
SWIDTH 600 0
DWIDTH 16 0
BBX 16 16 0 -1
BITMAP
0702
7802
0802
FF82
2A12
2A92
EB12
2A92
6A92
A992
1C12
2A12
4902
8882
080A
0804
ENDCHAR
STARTCHAR 526A
ENCODING 21098
SWIDTH 600 0
DWIDTH 16 0
BBX 16 16 0 -1
BITMAP
0820
FFFE
0000
3E08
2248
3E48
2248
3E48
2208
2618
0000
7FF8
0408
0808
1050
6020
ENDCHAR
STARTCHAR 526F
ENCODING 21103
SWIDTH 600 0
DWIDTH 16 0
BBX 16 16 0 -1
BITMAP
0002
7FC2
0002
3F82
2092
2092
3F92
0012
7FD2
4452
4452
7FD2
4442
4442
7FCA
4044
ENDCHAR
STARTCHAR 5272
ENCODING 21106
SWIDTH 600 0
DWIDTH 16 0
BBX 16 16 0 -1
BITMAP
1004
0804
FF84
80A4
0924
7F24
0824
7F24
0824
FFA4
0824
7F24
4104
4104
7F14
4108
ENDCHAR
STARTCHAR 527D
ENCODING 21117
SWIDTH 600 0
DWIDTH 16 0
BBX 16 16 0 -1
BITMAP
0002
FFE2
0A02
7FC2
4A52
4A52
7FD2
0012
7FD2
0012
FFF2
0412
2482
4442
942A
0804
ENDCHAR
STARTCHAR 527F
ENCODING 21119
SWIDTH 600 0
DWIDTH 16 0
BBX 16 16 0 -1
BITMAP
4904
9204
4904
0024
7F24
4924
7F24
4924
7F24
0824
FFA4
1C24
2A04
4904
8814
0808
ENDCHAR
STARTCHAR 5281
ENCODING 21121
SWIDTH 600 0
DWIDTH 16 0
BBX 16 16 0 -1
BITMAP
1202
1102
3FC2
2202
6212
BFD2
2212
2212
3FD2
2212
2212
3FD2
2002
5482
4A4A
8A44
ENDCHAR
STARTCHAR 5282
ENCODING 21122
SWIDTH 600 0
DWIDTH 16 0
BBX 16 16 0 -1
BITMAP
0002
7FF2
4002
514A
4A4A
5F7A
449A
442A
550A
554A
5F4A
444A
44A2
48A2
492A
9204
ENDCHAR
STARTCHAR 5288
ENCODING 21128
SWIDTH 600 0
DWIDTH 16 0
BBX 16 16 0 -1
BITMAP
0040
7C20
45FC
4488
7C50
43FE
7C20
A5FC
2420
3C20
0000
7FF8
0408
0808
1050
6020
ENDCHAR
STARTCHAR 5290
ENCODING 21136
SWIDTH 600 0
DWIDTH 16 0
BBX 16 16 0 -1
BITMAP
1102
7FC2
1502
1202
3FD2
6412
BF92
2412
3F92
2412
3FD2
2012
7F82
1102
0E0A
7184
ENDCHAR
STARTCHAR 5293
ENCODING 21139
SWIDTH 600 0
DWIDTH 16 0
BBX 16 16 0 -1
BITMAP
0802
3F82
2082
3F82
2092
3F92
0012
7FD2
4452
7FD2
4452
7FD2
0002
FFE2
110A
2104
ENDCHAR
STARTCHAR 529B
ENCODING 21147
SWIDTH 600 0
DWIDTH 16 0
BBX 16 16 0 -1
BITMAP
0200
0200
0200
0200
7FF8
0208
0208
0208
0208
0408
0408
0808
0808
1088
2050
4020
ENDCHAR
STARTCHAR 529D
ENCODING 21149
SWIDTH 600 0
DWIDTH 16 0
BBX 16 16 0 -1
BITMAP
0040
0040
0040
FC40
05FC
0444
4844
2844
1044
1084
2884
2484
4504
8104
0228
0410
ENDCHAR
STARTCHAR 529E
ENCODING 21150
SWIDTH 600 0
DWIDTH 16 0
BBX 16 16 0 -1
BITMAP
0200
0200
0200
0200
7FF0
0210
0210
1218
1214
2412
4412
0810
0810
1010
20A0
4040
ENDCHAR
STARTCHAR 529F
ENCODING 21151
SWIDTH 600 0
DWIDTH 16 0
BBX 16 16 0 -1
BITMAP
0040
0040
0040
FE40
11FC
1044
1044
1044
1044
1084
1084
1E84
F104
4104
0228
0410
ENDCHAR
STARTCHAR 52A0
ENCODING 21152
SWIDTH 600 0
DWIDTH 16 0
BBX 16 16 0 -1
BITMAP
1000
1000
1000
107C
FE44
1244
1244
1244
1244
1244
1244
1244
2244
227C
4A44
8400
ENDCHAR
STARTCHAR 52A1
ENCODING 21153
SWIDTH 600 0
DWIDTH 16 0
BBX 16 16 0 -1
BITMAP
0400
0400
0FF0
1820
24C0
0300
0CC0
3230
C20E
1FF0
0210
0410
0410
0810
10A0
2040
ENDCHAR
STARTCHAR 52A2
ENCODING 21154
SWIDTH 600 0
DWIDTH 16 0
BBX 16 16 0 -1
BITMAP
0020
0020
FF20
2020
20FC
2024
3E24
2224
2224
2224
2224
2224
4244
4244
94A8
0910
ENDCHAR
STARTCHAR 52A3
ENCODING 21155
SWIDTH 600 0
DWIDTH 16 0
BBX 16 16 0 -1
BITMAP
0100
1110
1108
2124
4144
0180
0E00
F100
0100
3FF8
0208
0208
0408
0808
1050
6020
ENDCHAR
STARTCHAR 52A8
ENCODING 21160
SWIDTH 600 0
DWIDTH 16 0
BBX 16 16 0 -1
BITMAP
0040
0040
7C40
0040
01FC
0044
FE44
2044
2044
2084
4884
4484
FD04
4504
0228
0410
ENDCHAR
STARTCHAR 52A9
ENCODING 21161
SWIDTH 600 0
DWIDTH 16 0
BBX 16 16 0 -1
BITMAP
0020
7C20
4420
4420
44FC
7C24
4424
4424
7C24
4424
4424
4444
4E44
F084
0128
0210
ENDCHAR
STARTCHAR 52AA
ENCODING 21162
SWIDTH 600 0
DWIDTH 16 0
BBX 16 16 0 -1
BITMAP
1000
1000
FEFC
2284
4488
2850
1020
2858
C586
0200
0200
7FF8
0408
0808
1050
6020
ENDCHAR
STARTCHAR 52AB
ENCODING 21163
SWIDTH 600 0
DWIDTH 16 0
BBX 16 16 0 -1
BITMAP
0820
0820
0820
7E20
08FC
0824
0824
FF24
1024
1024
2024
4444
FE44
4284
0128
0210
ENDCHAR
STARTCHAR 52AC
ENCODING 21164
SWIDTH 600 0
DWIDTH 16 0
BBX 16 16 0 -1
BITMAP
2020
2020
2020
7E20
42FC
8224
7A24
4A24
4A24
4A24
7A24
4A44
0244
0284
1528
0A10
ENDCHAR
STARTCHAR 52AD
ENCODING 21165
SWIDTH 600 0
DWIDTH 16 0
BBX 16 16 0 -1
BITMAP
0020
7E20
1220
1220
22FC
2A24
4424
8024
3E24
2224
2224
2224
2244
3E44
22A8
0110
ENDCHAR
STARTCHAR 52B1
ENCODING 21169
SWIDTH 600 0
DWIDTH 16 0
BBX 16 16 0 -1
BITMAP
0010
7FD0
4010
4010
5F7E
4812
4812
4F12
4912
4912
4912
4912
4912
5122
952A
2244
ENDCHAR
STARTCHAR 52B2
ENCODING 21170
SWIDTH 600 0
DWIDTH 16 0
BBX 16 16 0 -1
BITMAP
0020
7E20
0420
0820
18FC
2424
4224
8124
0024
7E24
0824
0844
0844
0E84
F128
4210
ENDCHAR
STARTCHAR 52B3
ENCODING 21171
SWIDTH 600 0
DWIDTH 16 0
BBX 16 16 0 -1
BITMAP
0820
0820
FFFE
0820
0000
7FFE
4202
8204
3FF0
0210
0210
0410
0410
0810
10A0
2040
ENDCHAR
STARTCHAR 52BE
ENCODING 21182
SWIDTH 600 0
DWIDTH 16 0
BBX 16 16 0 -1
BITMAP
1020
0820
0820
FF20
08FC
1024
2224
7C24
0924
1224
2424
C824
1444
2244
C0A8
0110
ENDCHAR
STARTCHAR 52BF
ENCODING 21183
SWIDTH 600 0
DWIDTH 16 0
BBX 16 16 0 -1
BITMAP
0840
0840
7DF8
0848
0C48
19C8
684A
08AA
2886
1302
0200
7FF8
0408
0808
1050
6020
ENDCHAR
STARTCHAR 52C3
ENCODING 21187
SWIDTH 600 0
DWIDTH 16 0
BBX 16 16 0 -1
BITMAP
0820
0820
7F20
0820
08FC
7F24
4124
8224
3C24
0424
0824
0F44
7844
0884
2928
1210
ENDCHAR
STARTCHAR 52C7
ENCODING 21191
SWIDTH 600 0
DWIDTH 16 0
BBX 16 16 0 -1
BITMAP
3FF0
0660
0180
3FF8
2108
3FF8
2108
3FF8
2108
2208
0200
7FF8
0408
0808
1050
6020
ENDCHAR
STARTCHAR 52C9
ENCODING 21193
SWIDTH 600 0
DWIDTH 16 0
BBX 16 16 0 -1
BITMAP
2020
2020
3E20
4420
88FC
7F24
4924
4924
4924
7F44
1444
1494
250A
2402
43FE
8000
ENDCHAR
STARTCHAR 52CB
ENCODING 21195
SWIDTH 600 0
DWIDTH 16 0
BBX 16 16 0 -1
BITMAP
0020
3E20
2220
2220
3EFC
0024
7F24
4124
4924
4924
4924
4944
1444
1284
2128
C210
ENDCHAR
STARTCHAR 52D0
ENCODING 21200
SWIDTH 600 0
DWIDTH 16 0
BBX 16 16 0 -1
BITMAP
0020
3E20
0420
0820
7EFC
0824
0824
2824
1024
7F24
5524
5544
5544
5784
FD28
0210
ENDCHAR
STARTCHAR 52D2
ENCODING 21202
SWIDTH 600 0
DWIDTH 16 0
BBX 16 16 0 -1
BITMAP
2220
2220
FFA0
2220
3EFC
0824
7F24
4924
4924
7F24
0824
FFC4
0844
0884
0928
0A10
ENDCHAR
STARTCHAR 52D6
ENCODING 21206
SWIDTH 600 0
DWIDTH 16 0
BBX 16 16 0 -1
BITMAP
0020
FF20
8120
BD20
81FC
BD24
8124
0024
7E24
4224
7E24
4224
7E44
4244
7EA8
4310
ENDCHAR
STARTCHAR 52D8
ENCODING 21208
SWIDTH 600 0
DWIDTH 16 0
BBX 16 16 0 -1
BITMAP
2220
2220
FF20
2220
3EFC
2224
3E24
2224
2224
FF24
4024
5444
6244
4084
7F28
0210
ENDCHAR
STARTCHAR 52DF
ENCODING 21215
SWIDTH 600 0
DWIDTH 16 0
BBX 16 16 0 -1
BITMAP
0440
7FFC
0440
1FF0
1010
1FF0
1010
1FF0
0400
FFFE
1010
2208
DFF6
0410
0850
3020
ENDCHAR
STARTCHAR 52E4
ENCODING 21220
SWIDTH 600 0
DWIDTH 16 0
BBX 16 16 0 -1
BITMAP
2220
2220
FFA0
2220
3EFC
0824
7F24
4924
7F24
0824
7F24
0844
7F44
0884
0F28
F210
ENDCHAR
STARTCHAR 52F0
ENCODING 21232
SWIDTH 600 0
DWIDTH 16 0
BBX 16 16 0 -1
BITMAP
1000
10FE
7E92
1292
22FE
2A92
4492
80FE
4410
FF08
5528
5520
5564
55AA
5928
B318
ENDCHAR
STARTCHAR 52F9
ENCODING 21241
SWIDTH 600 0
DWIDTH 16 0
BBX 16 16 0 -1
BITMAP
1000
1000
3FFC
2004
4004
8004
0004
0004
0004
0004
0004
0004
0004
0004
0028
0010
ENDCHAR
STARTCHAR 52FA
ENCODING 21242
SWIDTH 600 0
DWIDTH 16 0
BBX 16 16 0 -1
BITMAP
0800
0800
1000
1FF8
2008
4008
8008
0408
0208
0108
0108
0008
0008
0008
0050
0020
ENDCHAR
STARTCHAR 52FE
ENCODING 21246
SWIDTH 600 0
DWIDTH 16 0
BBX 16 16 0 -1
BITMAP
0800
0800
1000
1FF8
2008
4208
8208
0408
0408
0888
1048
3FE8
1028
0008
0050
0020
ENDCHAR
STARTCHAR 52FF
ENCODING 21247
SWIDTH 600 0
DWIDTH 16 0
BBX 16 16 0 -1
BITMAP
0800
0800
0800
1FFC
1244
2244
4244
8444
0444
0884
1084
2104
4204
0404
0828
1010
ENDCHAR
STARTCHAR 5300
ENCODING 21248
SWIDTH 600 0
DWIDTH 16 0
BBX 16 16 0 -1
BITMAP
0800
0800
0FFC
1004
2004
4804
8404
0204
0024
00C4
0304
1C04
0804
0004
0028
0010
ENDCHAR
STARTCHAR 5305
ENCODING 21253
SWIDTH 600 0
DWIDTH 16 0
BBX 16 16 0 -1
BITMAP
0800
0800
1FF0
1010
2010
5F90
9090
1090
1090
1F90
1050
1020
1004
1004
0FFC
0000
ENDCHAR
STARTCHAR 5306
ENCODING 21254
SWIDTH 600 0
DWIDTH 16 0
BBX 16 16 0 -1
BITMAP
0800
0800
0800
1FFC
1244
2244
4244
9C44
0644
0984
10C4
2124
4214
0404
0828
1010
ENDCHAR
STARTCHAR 5308
ENCODING 21256
SWIDTH 600 0
DWIDTH 16 0
BBX 16 16 0 -1
BITMAP
0800
0800
1000
1FF8
2008
4088
8888
2528
2228
2528
28A8
2028
3FE8
0008
0050
0020
ENDCHAR
STARTCHAR 530D
ENCODING 21261
SWIDTH 600 0
DWIDTH 16 0
BBX 16 16 0 -1
BITMAP
1000
1000
1FFC
2244
4224
BFF4
0204
3FE4
2224
3FE4
2224
3FE4
2224
2224
22B4
2048
ENDCHAR
STARTCHAR 530F
ENCODING 21263
SWIDTH 600 0
DWIDTH 16 0
BBX 16 16 0 -1
BITMAP
1040
1040
FEFC
2884
4504
82F4
7C94
0094
FEF4
2084
4094
7C88
0482
0482
287E
1000
ENDCHAR
STARTCHAR 5310
ENCODING 21264
SWIDTH 600 0
DWIDTH 16 0
BBX 16 16 0 -1
BITMAP
1000
1000
1FFC
2004
7FE4
8004
1FC4
1044
1FC4
0004
3FE4
2224
3FE4
2224
3FF4
2028
ENDCHAR
STARTCHAR 5315
ENCODING 21269
SWIDTH 600 0
DWIDTH 16 0
BBX 16 16 0 -1
BITMAP
1000
1000
1000
1008
1030
10C0
1300
1C00
1000
1000
1000
1004
1004
1004
0FFC
0000
ENDCHAR
STARTCHAR 5316
ENCODING 21270
SWIDTH 600 0
DWIDTH 16 0
BBX 16 16 0 -1
BITMAP
0880
0880
0884
1088
1090
30A0
30C0
5080
9180
1280
1480
1082
1082
1082
107E
1000
ENDCHAR
STARTCHAR 5317
ENCODING 21271
SWIDTH 600 0
DWIDTH 16 0
BBX 16 16 0 -1
BITMAP
0440
0440
0440
0444
0448
7C50
0460
0440
0440
0440
0440
0442
1C42
E442
443E
0400
ENDCHAR
STARTCHAR 5319
ENCODING 21273
SWIDTH 600 0
DWIDTH 16 0
BBX 16 16 0 -1
BITMAP
0000
3E40
2240
3E44
2248
3E50
0060
FF40
0844
0844
2F44
283C
2800
5800
4FFE
8000
ENDCHAR
STARTCHAR 531A
ENCODING 21274
SWIDTH 600 0
DWIDTH 16 0
BBX 16 16 0 -1
BITMAP
0000
7FFC
4000
4000
4000
4000
4000
4000
4000
4000
4000
4000
4000
4000
7FFE
0000
ENDCHAR
STARTCHAR 531D
ENCODING 21277
SWIDTH 600 0
DWIDTH 16 0
BBX 16 16 0 -1
BITMAP
0000
7FFC
4080
4080
4080
4FF8
4888
4888
4888
4888
48A8
4890
4080
4080
7FFE
0000
ENDCHAR
STARTCHAR 5320
ENCODING 21280
SWIDTH 600 0
DWIDTH 16 0
BBX 16 16 0 -1
BITMAP
0000
7FFC
4000
4038
47C0
4400
4400
47FC
4420
4420
4420
4820
4820
5020
7FFE
0000
ENDCHAR
STARTCHAR 5321
ENCODING 21281
SWIDTH 600 0
DWIDTH 16 0
BBX 16 16 0 -1
BITMAP
0000
7FFC
4000
4000
4FF8
4080
4080
47F0
4080
4080
4080
4FF8
4000
4000
7FFE
0000
ENDCHAR
STARTCHAR 5323
ENCODING 21283
SWIDTH 600 0
DWIDTH 16 0
BBX 16 16 0 -1
BITMAP
0000
7FFC
4000
4000
4FF8
4888
4888
4FF8
4888
4888
4FF8
4888
4080
4080
7FFE
0000
ENDCHAR
STARTCHAR 5326
ENCODING 21286
SWIDTH 600 0
DWIDTH 16 0
BBX 16 16 0 -1
BITMAP
0000
7FFC
4420
4420
5FA0
4878
5228
5FA8
4228
43A8
5E2A
4A2A
4246
4280
7FFE
0000
ENDCHAR
STARTCHAR 532A
ENCODING 21290
SWIDTH 600 0
DWIDTH 16 0
BBX 16 16 0 -1
BITMAP
0000
7FFC
4240
4240
7E7C
4240
4240
5E78
4240
4240
7E7C
4240
4240
4240
7FFE
0000
ENDCHAR
STARTCHAR 532E
ENCODING 21294
SWIDTH 600 0
DWIDTH 16 0
BBX 16 16 0 -1
BITMAP
0000
7FFC
4080
4FF8
4888
4FF8
4080
7FFE
4000
4FF8
4888
4968
4210
4C08
7FFE
0000
ENDCHAR
STARTCHAR 5339
ENCODING 21305
SWIDTH 600 0
DWIDTH 16 0
BBX 16 16 0 -1
BITMAP
0000
7FFC
4440
4440
4440
4440
4440
4440
4444
4444
4844
483C
5000
4000
7FFE
0000
ENDCHAR
STARTCHAR 533A
ENCODING 21306
SWIDTH 600 0
DWIDTH 16 0
BBX 16 16 0 -1
BITMAP
0000
7FFC
4000
4010
4410
4220
4140
4080
4140
4220
4410
4810
4000
4000
7FFE
0000
ENDCHAR
STARTCHAR 533B
ENCODING 21307
SWIDTH 600 0
DWIDTH 16 0
BBX 16 16 0 -1
BITMAP
0000
7FFC
4400
4400
4FF8
5080
4080
5FFC
4080
4140
4220
4410
5808
4000
7FFE
0000
ENDCHAR
STARTCHAR 533E
ENCODING 21310
SWIDTH 600 0
DWIDTH 16 0
BBX 16 16 0 -1
BITMAP
0000
7FFC
4080
4FF8
4808
4FF8
4800
4FFC
5924
6924
4FFC
4924
492C
4000
7FFE
0000
ENDCHAR
STARTCHAR 533F
ENCODING 21311
SWIDTH 600 0
DWIDTH 16 0
BBX 16 16 0 -1
BITMAP
0000
7FFC
4000
4410
7FFE
4410
4100
7FFE
4400
4FF8
5408
6408
47F8
4000
7FFE
0000
ENDCHAR
STARTCHAR 5341
ENCODING 21313
SWIDTH 600 0
DWIDTH 16 0
BBX 16 16 0 -1
BITMAP
0100
0100
0100
0100
0100
0100
FFFE
0100
0100
0100
0100
0100
0100
0100
0100
0100
ENDCHAR
STARTCHAR 5343
ENCODING 21315
SWIDTH 600 0
DWIDTH 16 0
BBX 16 16 0 -1
BITMAP
0010
00F8
3F00
0100
0100
0100
0100
FFFE
0100
0100
0100
0100
0100
0100
0100
0100
ENDCHAR
STARTCHAR 5345
ENCODING 21317
SWIDTH 600 0
DWIDTH 16 0
BBX 16 16 0 -1
BITMAP
1010
1110
1110
1110
1110
1110
FFFE
1110
1110
1110
1110
1110
1110
2110
2010
4010
ENDCHAR
STARTCHAR 5347
ENCODING 21319
SWIDTH 600 0
DWIDTH 16 0
BBX 16 16 0 -1
BITMAP
0120
07A0
3C20
0420
0420
0420
0420
FFFE
0420
0420
0420
0820
0820
1020
2020
4020
ENDCHAR
STARTCHAR 5348
ENCODING 21320
SWIDTH 600 0
DWIDTH 16 0
BBX 16 16 0 -1
BITMAP
0800
0800
0800
1FF8
1100
2100
4100
0100
0100
FFFE
0100
0100
0100
0100
0100
0100
ENDCHAR
STARTCHAR 5349
ENCODING 21321
SWIDTH 600 0
DWIDTH 16 0
BBX 16 16 0 -1
BITMAP
0100
0100
0100
7FFC
0100
0100
0920
0820
0820
FFFE
0820
0820
1020
1020
2020
4020
ENDCHAR
STARTCHAR 534A
ENCODING 21322
SWIDTH 600 0
DWIDTH 16 0
BBX 16 16 0 -1
BITMAP
0100
2108
1108
0910
0920
0100
3FF8
0100
0100
0100
FFFE
0100
0100
0100
0100
0100
ENDCHAR
STARTCHAR 534E
ENCODING 21326
SWIDTH 600 0
DWIDTH 16 0
BBX 16 16 0 -1
BITMAP
0880
0888
1090
30E0
5180
9684
1084
107C
1100
0100
FFFE
0100
0100
0100
0100
0100
ENDCHAR
STARTCHAR 534F
ENCODING 21327
SWIDTH 600 0
DWIDTH 16 0
BBX 16 16 0 -1
BITMAP
2080
2080
2080
2080
FBF0
2090
2090
2298
2294
2492
2892
2090
2110
2110
2250
2420
ENDCHAR
STARTCHAR 5351
ENCODING 21329
SWIDTH 600 0
DWIDTH 16 0
BBX 16 16 0 -1
BITMAP
0200
0400
3FF8
2108
2108
3FF8
2208
2208
3FF8
0880
1080
FFFE
0080
0080
0080
0080
ENDCHAR
STARTCHAR 5352
ENCODING 21330
SWIDTH 600 0
DWIDTH 16 0
BBX 16 16 0 -1
BITMAP
0200
0100
7FFC
0820
0820
0820
1450
2288
0100
0100
FFFE
0100
0100
0100
0100
0100
ENDCHAR
STARTCHAR 5353
ENCODING 21331
SWIDTH 600 0
DWIDTH 16 0
BBX 16 16 0 -1
BITMAP
0100
01FC
0100
0100
1FF0
1010
1FF0
1010
1FF0
1110
0100
FFFE
0100
0100
0100
0100
ENDCHAR
STARTCHAR 5355
ENCODING 21333
SWIDTH 600 0
DWIDTH 16 0
BBX 16 16 0 -1
BITMAP
1010
0820
0440
3FF8
2108
2108
3FF8
2108
2108
3FF8
0100
0100
FFFE
0100
0100
0100
ENDCHAR
STARTCHAR 5356
ENCODING 21334
SWIDTH 600 0
DWIDTH 16 0
BBX 16 16 0 -1
BITMAP
0100
0100
3FF8
0100
0100
7FFC
0404
0288
1280
0880
0900
FFFE
0240
0420
1810
6008
ENDCHAR
STARTCHAR 5357
ENCODING 21335
SWIDTH 600 0
DWIDTH 16 0
BBX 16 16 0 -1
BITMAP
0100
0100
FFFE
0100
0100
7FFC
4824
4444
4FE4
4104
4104
5FF4
4104
4104
4114
4008
ENDCHAR
STARTCHAR 535A
ENCODING 21338
SWIDTH 600 0
DWIDTH 16 0
BBX 16 16 0 -1
BITMAP
2050
2048
2FFE
2040
27FC
FC44
27FC
2444
27FC
2444
2008
2FFE
2208
2108
2128
2010
ENDCHAR
STARTCHAR 535C
ENCODING 21340
SWIDTH 600 0
DWIDTH 16 0
BBX 16 16 0 -1
BITMAP
0200
0200
0200
0200
0200
0280
0240
0220
0210
0210
0200
0200
0200
0200
0200
0200
ENDCHAR
STARTCHAR 535E
ENCODING 21342
SWIDTH 600 0
DWIDTH 16 0
BBX 16 16 0 -1
BITMAP
0200
0100
0100
0000
FFFE
0200
0200
0240
0220
0210
0210
0200
0200
0200
0200
0200
ENDCHAR
STARTCHAR 535F
ENCODING 21343
SWIDTH 600 0
DWIDTH 16 0
BBX 16 16 0 -1
BITMAP
0040
0040
7C40
4440
4440
4460
4450
4448
4444
4444
7C40
4440
0040
0040
0040
0040
ENDCHAR
STARTCHAR 5360
ENCODING 21344
SWIDTH 600 0
DWIDTH 16 0
BBX 16 16 0 -1
BITMAP
0100
0100
0100
01FE
0100
0100
0100
0100
3FF8
2008
2008
2008
2008
2008
3FF8
2008
ENDCHAR
STARTCHAR 5361
ENCODING 21345
SWIDTH 600 0
DWIDTH 16 0
BBX 16 16 0 -1
BITMAP
0200
0200
03F8
0200
0200
0200
FFFE
0200
0200
0240
0220
0210
0208
0200
0200
0200
ENDCHAR
STARTCHAR 5362
ENCODING 21346
SWIDTH 600 0
DWIDTH 16 0
BBX 16 16 0 -1
BITMAP
0100
0100
01FC
0100
0100
1FF8
1008
1008
1008
1FF8
1008
1000
2000
2000
4000
8000
ENDCHAR
STARTCHAR 5363
ENCODING 21347
SWIDTH 600 0
DWIDTH 16 0
BBX 16 16 0 -1
BITMAP
0100
0100
01FE
0100
0100
3FF8
2008
2008
3F88
2088
2088
3F88
2008
2008
3FF8
2008
ENDCHAR
STARTCHAR 5364
ENCODING 21348
SWIDTH 600 0
DWIDTH 16 0
BBX 16 16 0 -1
BITMAP
0100
0100
01FE
0100
0100
3FF8
2008
2448
2288
2108
2288
2448
2828
2008
3FF8
2008
ENDCHAR
STARTCHAR 5366
ENCODING 21350
SWIDTH 600 0
DWIDTH 16 0
BBX 16 16 0 -1
BITMAP
0820
0820
7F20
0820
0820
0830
FFA8
0024
0822
0820
7F20
0820
0820
0F20
F020
4020
ENDCHAR
STARTCHAR 5367
ENCODING 21351
SWIDTH 600 0
DWIDTH 16 0
BBX 16 16 0 -1
BITMAP
0020
7FA0
4820
4820
4820
7F30
4128
4124
4122
7F22
4820
4820
4820
7FA0
0020
0020
ENDCHAR
STARTCHAR 5369
ENCODING 21353
SWIDTH 600 0
DWIDTH 16 0
BBX 16 16 0 -1
BITMAP
0000
0000
007C
0044
0044
0044
0044
0044
0044
0044
0044
0054
0048
0040
0040
0040
ENDCHAR
STARTCHAR 536B
ENCODING 21355
SWIDTH 600 0
DWIDTH 16 0
BBX 16 16 0 -1
BITMAP
0000
7FF8
0208
0208
0208
0208
0208
0208
0228
0210
0200
0200
0200
0200
FFFE
0000
ENDCHAR
STARTCHAR 536E
ENCODING 21358
SWIDTH 600 0
DWIDTH 16 0
BBX 16 16 0 -1
BITMAP
007C
3F80
2000
2000
3FFE
2000
2000
27F0
2410
2410
2450
2424
2404
4404
43FC
8000
ENDCHAR
STARTCHAR 536F
ENCODING 21359
SWIDTH 600 0
DWIDTH 16 0
BBX 16 16 0 -1
BITMAP
0C00
70FC
4484
4484
4484
4484
4484
4484
4484
4C84
74A8
0490
0880
0880
1080
2080
ENDCHAR
STARTCHAR 5370
ENCODING 21360
SWIDTH 600 0
DWIDTH 16 0
BBX 16 16 0 -1
BITMAP
0000
0600
78FC
4084
4084
4084
7E84
4084
4084
4084
4084
4EA8
7090
0080
0080
0080
ENDCHAR
STARTCHAR 5371
ENCODING 21361
SWIDTH 600 0
DWIDTH 16 0
BBX 16 16 0 -1
BITMAP
0400
0400
0FF0
1010
2020
5FFC
1000
13F0
1210
1210
1250
1220
2204
2204
41FC
8000
ENDCHAR
STARTCHAR 5373
ENCODING 21363
SWIDTH 600 0
DWIDTH 16 0
BBX 16 16 0 -1
BITMAP
0000
7E7C
4244
4244
7E44
4244
4244
7E44
4044
4844
4454
4A48
5240
6040
0040
0040
ENDCHAR
STARTCHAR 5374
ENCODING 21364
SWIDTH 600 0
DWIDTH 16 0
BBX 16 16 0 -1
BITMAP
0800
0800
087C
7F44
0844
0844
0844
FFC4
1044
1044
2444
4254
FF48
4140
0040
0040
ENDCHAR
STARTCHAR 5375
ENCODING 21365
SWIDTH 600 0
DWIDTH 16 0
BBX 16 16 0 -1
BITMAP
0C00
70FC
4484
4484
64A4
5494
5494
4484
4484
4C84
74A8
0490
0880
0880
1080
2080
ENDCHAR
STARTCHAR 5377
ENCODING 21367
SWIDTH 600 0
DWIDTH 16 0
BBX 16 16 0 -1
BITMAP
0100
1110
0920
3FF8
0200
0200
7FFC
0820
1010
2FE8
C826
0820
08A8
0848
0808
07F8
ENDCHAR
STARTCHAR 5378
ENCODING 21368
SWIDTH 600 0
DWIDTH 16 0
BBX 16 16 0 -1
BITMAP
2000
2000
3F7C
4844
8844
0844
7F44
0844
0844
2E44
2844
2854
2F48
F040
4040
0040
ENDCHAR
STARTCHAR 537A
ENCODING 21370
SWIDTH 600 0
DWIDTH 16 0
BBX 16 16 0 -1
BITMAP
1FC0
0044
7D88
0550
0920
3118
C506
0200
3FF8
0000
1FF0
1010
1050
1024
1004
0FFC
ENDCHAR
STARTCHAR 537F
ENCODING 21375
SWIDTH 600 0
DWIDTH 16 0
BBX 16 16 0 -1
BITMAP
0800
73DE
4252
4A52
4A52
4BD2
4A52
4A52
4A52
5BD2
6A12
4A9A
1254
12B0
2310
4210
ENDCHAR
STARTCHAR 5382
ENCODING 21378
SWIDTH 600 0
DWIDTH 16 0
BBX 16 16 0 -1
BITMAP
0000
3FFE
2000
2000
2000
2000
2000
2000
2000
2000
2000
2000
2000
4000
4000
8000
ENDCHAR
STARTCHAR 5384
ENCODING 21380
SWIDTH 600 0
DWIDTH 16 0
BBX 16 16 0 -1
BITMAP
0000
3FFE
2000
2000
27F0
2410
2410
2410
2410
2450
2420
2404
2404
4404
43FC
8000
ENDCHAR
STARTCHAR 5385
ENCODING 21381
SWIDTH 600 0
DWIDTH 16 0
BBX 16 16 0 -1
BITMAP
0000
3FFE
2000
2000
2000
2FFE
2040
2040
2040
2040
2040
2040
2040
4040
4140
8080
ENDCHAR
STARTCHAR 5386
ENCODING 21382
SWIDTH 600 0
DWIDTH 16 0
BBX 16 16 0 -1
BITMAP
0000
3FFE
2000
2080
2080
2080
2FFC
2084
2084
2104
2104
2204
2204
4404
4828
9010
ENDCHAR
STARTCHAR 5389
ENCODING 21385
SWIDTH 600 0
DWIDTH 16 0
BBX 16 16 0 -1
BITMAP
0000
3FFE
2000
2000
2FFE
2100
2100
21F8
2108
2108
2108
2208
2208
4408
4850
9020
ENDCHAR
STARTCHAR 538B
ENCODING 21387
SWIDTH 600 0
DWIDTH 16 0
BBX 16 16 0 -1
BITMAP
0000
3FFE
2000
2080
2080
2080
2080
2FFC
2080
2080
2090
2088
2088
4080
5FFE
8000
ENDCHAR
STARTCHAR 538C
ENCODING 21388
SWIDTH 600 0
DWIDTH 16 0
BBX 16 16 0 -1
BITMAP
0000
3FFE
2000
2080
2090
2088
2080
2FFC
2080
2140
2140
2220
2220
4410
4808
9006
ENDCHAR
STARTCHAR 538D
ENCODING 21389
SWIDTH 600 0
DWIDTH 16 0
BBX 16 16 0 -1
BITMAP
0000
3FFE
2000
2080
2080
2FFC
2100
2240
2440
27FC
2040
2040
4FFE
4040
8040
0040
ENDCHAR
STARTCHAR 5395
ENCODING 21397
SWIDTH 600 0
DWIDTH 16 0
BBX 16 16 0 -1
BITMAP
0000
3FFE
2000
2F84
28A4
28A4
2AA4
2AA4
2AA4
2AA4
2AA4
2224
2504
4484
4894
9008
ENDCHAR
STARTCHAR 5398
ENCODING 21400
SWIDTH 600 0
DWIDTH 16 0
BBX 16 16 0 -1
BITMAP
0000
3FFE
2000
27FC
2444
2444
27FC
2444
2444
27FC
2040
2040
27FC
4040
4040
8FFE
ENDCHAR
STARTCHAR 539A
ENCODING 21402
SWIDTH 600 0
DWIDTH 16 0
BBX 16 16 0 -1
BITMAP
0000
3FFE
2000
27F8
2408
27F8
2408
27F8
2000
27F8
2010
2020
2FFE
4040
4140
8080
ENDCHAR
STARTCHAR 539D
ENCODING 21405
SWIDTH 600 0
DWIDTH 16 0
BBX 16 16 0 -1
BITMAP
0000
3FFE
2210
2210
2FFC
2210
2210
3FFE
2000
27F8
2408
2408
47F8
4408
8408
07F8
ENDCHAR
STARTCHAR 539F
ENCODING 21407
SWIDTH 600 0
DWIDTH 16 0
BBX 16 16 0 -1
BITMAP
0000
3FFE
2080
2100
27F0
2410
2410
27F0
2410
2410
27F0
2080
2490
4888
5284
8100
ENDCHAR
STARTCHAR 53A2
ENCODING 21410
SWIDTH 600 0
DWIDTH 16 0
BBX 16 16 0 -1
BITMAP
0000
3FFE
2200
2200
227C
2F44
2244
267C
2744
2AC4
2A7C
3244
2244
4244
427C
8244
ENDCHAR
STARTCHAR 53A3
ENCODING 21411
SWIDTH 600 0
DWIDTH 16 0
BBX 16 16 0 -1
BITMAP
0000
3FFE
20A0
2090
3FFE
2140
2630
380E
2FF8
2888
2FF8
2888
4FF8
4888
8080
0080
ENDCHAR
STARTCHAR 53A5
ENCODING 21413
SWIDTH 600 0
DWIDTH 16 0
BBX 16 16 0 -1
BITMAP
0000
3FFE
2000
2890
2510
2FBE
2222
2244
2A90
2A90
2F90
2210
4228
4428
8444
0882
ENDCHAR
STARTCHAR 53A6
ENCODING 21414
SWIDTH 600 0
DWIDTH 16 0
BBX 16 16 0 -1
BITMAP
3FFE
2000
3FFC
2100
27F8
2408
27F8
2408
27F8
2408
27F8
2200
47F8
4A08
81F0
1E0E
ENDCHAR
STARTCHAR 53A8
ENCODING 21416
SWIDTH 600 0
DWIDTH 16 0
BBX 16 16 0 -1
BITMAP
0000
3FFE
2008
3F88
2008
2F08
297E
2908
2908
2F48
2028
2908
2608
4388
5C28
8810
ENDCHAR
STARTCHAR 53A9
ENCODING 21417
SWIDTH 600 0
DWIDTH 16 0
BBX 16 16 0 -1
BITMAP
0000
3FFE
2000
2F7E
2910
2910
2F50
2950
297E
2F10
2828
2A28
2928
4B4A
4D4A
8886
ENDCHAR
STARTCHAR 53AE
ENCODING 21422
SWIDTH 600 0
DWIDTH 16 0
BBX 16 16 0 -1
BITMAP
0000
3FFE
2900
290C
3FB0
2920
2920
2F3E
2928
2F28
2928
2928
5FA8
4048
8A88
1108
ENDCHAR
STARTCHAR 53B6
ENCODING 21430
SWIDTH 600 0
DWIDTH 16 0
BBX 16 16 0 -1
BITMAP
0200
0200
0200
0200
0400
0400
0400
0800
0840
1020
1010
2010
7FF8
2008
0008
0000
ENDCHAR
STARTCHAR 53BB
ENCODING 21435
SWIDTH 600 0
DWIDTH 16 0
BBX 16 16 0 -1
BITMAP
0100
0100
0100
3FF8
0100
0100
0100
0100
FFFE
0200
0200
0400
0820
1010
3FF8
0008
ENDCHAR
STARTCHAR 53BF
ENCODING 21439
SWIDTH 600 0
DWIDTH 16 0
BBX 16 16 0 -1
BITMAP
0000
1FF0
1010
1010
1FF0
1010
1010
1FF0
1010
1010
FFFE
0400
0820
1010
3FF8
1008
ENDCHAR
STARTCHAR 53C1
ENCODING 21441
SWIDTH 600 0
DWIDTH 16 0
BBX 16 16 0 -1
BITMAP
0200
0440
0820
1FF0
0200
7FFC
0820
1010
27C8
C006
0000
0FE0
0000
0000
3FF8
0000
ENDCHAR
STARTCHAR 53C2
ENCODING 21442
SWIDTH 600 0
DWIDTH 16 0
BBX 16 16 0 -1
BITMAP
0200
0440
0820
1FF0
0200
7FFC
0820
1090
2308
CC46
0180
0610
1820
00C0
0700
7800
ENDCHAR
STARTCHAR 53C8
ENCODING 21448
SWIDTH 600 0
DWIDTH 16 0
BBX 16 16 0 -1
BITMAP
0000
3FF0
1010
1010
1020
0820
0820
0440
0440
0280
0100
0280
0440
0820
3018
C006
ENDCHAR
STARTCHAR 53C9
ENCODING 21449
SWIDTH 600 0
DWIDTH 16 0
BBX 16 16 0 -1
BITMAP
0000
3FF0
1010
1210
1120
0920
0820
0440
0440
0280
0100
0280
0440
0820
3018
C006
ENDCHAR
STARTCHAR 53CA
ENCODING 21450
SWIDTH 600 0
DWIDTH 16 0
BBX 16 16 0 -1
BITMAP
0000
3FE0
0820
0820
0840
0840
0CF8
0A08
0A08
0910
1110
10A0
2040
20A0
4318
8C06
ENDCHAR
STARTCHAR 53CB
ENCODING 21451
SWIDTH 600 0
DWIDTH 16 0
BBX 16 16 0 -1
BITMAP
0200
0200
0200
FFFE
0400
0400
0FF0
0A10
1210
1120
2140
4080
8140
0620
1818
6006
ENDCHAR
STARTCHAR 53CC
ENCODING 21452
SWIDTH 600 0
DWIDTH 16 0
BBX 16 16 0 -1
BITMAP
0000
0000
FDFC
0484
4484
4484
2888
2888
1050
1050
2820
2820
4450
4488
8104
0202
ENDCHAR
STARTCHAR 53CD
ENCODING 21453
SWIDTH 600 0
DWIDTH 16 0
BBX 16 16 0 -1
BITMAP
0010
00F8
3F00
2000
2000
3FF8
2408
2410
2210
2220
2140
2080
4140
4220
8C18
3006
ENDCHAR
STARTCHAR 53D1
ENCODING 21457
SWIDTH 600 0
DWIDTH 16 0
BBX 16 16 0 -1
BITMAP
0100
1110
1108
2200
3FFC
0200
0400
07F8
0A08
0908
1110
10A0
2040
40A0
0318
1C06
ENDCHAR
STARTCHAR 53D4
ENCODING 21460
SWIDTH 600 0
DWIDTH 16 0
BBX 16 16 0 -1
BITMAP
0800
0800
0EFC
0844
0844
0844
FF44
0028
0828
0828
4A10
4910
8928
0848
2884
1102
ENDCHAR
STARTCHAR 53D6
ENCODING 21462
SWIDTH 600 0
DWIDTH 16 0
BBX 16 16 0 -1
BITMAP
0000
FF80
22FC
2244
3E44
2244
2244
3E44
2228
2228
27A8
FA10
4210
0228
0244
0282
ENDCHAR
STARTCHAR 53D7
ENCODING 21463
SWIDTH 600 0
DWIDTH 16 0
BBX 16 16 0 -1
BITMAP
0008
01FC
7E10
2210
1120
7FFE
4002
8004
3FF0
1010
0820
0440
0380
0C60
3018
C006
ENDCHAR
STARTCHAR 53D8
ENCODING 21464
SWIDTH 600 0
DWIDTH 16 0
BBX 16 16 0 -1
BITMAP
0200
0100
FFFE
0440
1450
2448
4444
0000
3FF0
0820
0440
0280
0100
06C0
1830
E00E
ENDCHAR
STARTCHAR 53D9
ENCODING 21465
SWIDTH 600 0
DWIDTH 16 0
BBX 16 16 0 -1
BITMAP
0800
0800
14FC
2244
4144
BE44
0844
0828
7F28
0828
2A10
2910
4928
8848
2884
1102
ENDCHAR
STARTCHAR 53DB
ENCODING 21467
SWIDTH 600 0
DWIDTH 16 0
BBX 16 16 0 -1
BITMAP
1008
101C
95E0
5900
1100
7DFC
1144
1144
FF44
1128
1128
1110
2110
2228
4244
8482
ENDCHAR
STARTCHAR 53DF
ENCODING 21471
SWIDTH 600 0
DWIDTH 16 0
BBX 16 16 0 -1
BITMAP
0100
0500
3978
2108
2108
3D78
2108
2108
3FF8
0100
3FF0
0820
0440
0380
1C70
E00E
ENDCHAR
STARTCHAR 53E0
ENCODING 21472
SWIDTH 600 0
DWIDTH 16 0
BBX 16 16 0 -1
BITMAP
1FE0
0440
0380
0C40
7EFC
2244
1C38
6244
0000
FFFE
9012
1FF0
1010
1FF0
1010
FFFE
ENDCHAR
STARTCHAR 53E3
ENCODING 21475
SWIDTH 600 0
DWIDTH 16 0
BBX 16 16 0 -1
BITMAP
0000
0000
3FF8
2008
2008
2008
2008
2008
2008
2008
2008
2008
2008
3FF8
2008
0000
ENDCHAR
STARTCHAR 53E4
ENCODING 21476
SWIDTH 600 0
DWIDTH 16 0
BBX 16 16 0 -1
BITMAP
0100
0100
0100
0100
FFFE
0100
0100
0100
1FF0
1010
1010
1010
1010
1010
1FF0
1010
ENDCHAR
STARTCHAR 53E5
ENCODING 21477
SWIDTH 600 0
DWIDTH 16 0
BBX 16 16 0 -1
BITMAP
0800
0800
1000
1FF8
2008
4008
9F88
1088
1088
1088
1088
1F88
1088
0008
0050
0020
ENDCHAR
STARTCHAR 53E6
ENCODING 21478
SWIDTH 600 0
DWIDTH 16 0
BBX 16 16 0 -1
BITMAP
0000
1FF0
1010
1010
1010
1FF0
0200
0200
7FF8
0208
0408
0408
0808
1008
2050
4020
ENDCHAR
STARTCHAR 53E8
ENCODING 21480
SWIDTH 600 0
DWIDTH 16 0
BBX 16 16 0 -1
BITMAP
0000
0000
7DFC
4444
4444
4444
4444
4444
4444
4444
7C44
4484
0084
0104
0228
0410
ENDCHAR
STARTCHAR 53E9
ENCODING 21481
SWIDTH 600 0
DWIDTH 16 0
BBX 16 16 0 -1
BITMAP
0000
00FC
7C84
4484
4484
4484
4484
4484
4484
4484
7C94
4488
0080
0080
0080
0080
ENDCHAR
STARTCHAR 53EA
ENCODING 21482
SWIDTH 600 0
DWIDTH 16 0
BBX 16 16 0 -1
BITMAP
0000
1FF0
1010
1010
1010
1010
1010
1010
1FF0
1010
0000
0820
0810
1008
2004
4004
ENDCHAR
STARTCHAR 53EB
ENCODING 21483
SWIDTH 600 0
DWIDTH 16 0
BBX 16 16 0 -1
BITMAP
0004
0004
7C84
4484
4484
4484
4484
4484
448C
44B4
7CC4
4484
0004
0004
0004
0004
ENDCHAR
STARTCHAR 53EC
ENCODING 21484
SWIDTH 600 0
DWIDTH 16 0
BBX 16 16 0 -1
BITMAP
0000
7FF8
0408
0408
0808
0808
1050
2020
4000
9FF8
1008
1008
1008
1008
1FF8
1008
ENDCHAR
STARTCHAR 53ED
ENCODING 21485
SWIDTH 600 0
DWIDTH 16 0
BBX 16 16 0 -1
BITMAP
0000
0020
7920
4920
4920
4920
4920
4920
4920
4910
7910
4A10
0208
0408
0804
1002
ENDCHAR
STARTCHAR 53EE
ENCODING 21486
SWIDTH 600 0
DWIDTH 16 0
BBX 16 16 0 -1
BITMAP
0000
0000
7BFE
4820
4820
4820
4820
4820
4820
4820
7820
4820
0020
0020
00A0
0040
ENDCHAR
STARTCHAR 53EF
ENCODING 21487
SWIDTH 600 0
DWIDTH 16 0
BBX 16 16 0 -1
BITMAP
0000
7FFE
0010
0010
1F10
1110
1110
1110
1110
1110
1F10
1110
0010
0010
0050
0020
ENDCHAR
STARTCHAR 53F0
ENCODING 21488
SWIDTH 600 0
DWIDTH 16 0
BBX 16 16 0 -1
BITMAP
0200
0200
0400
0820
1010
2008
7FFC
2004
0000
1FF0
1010
1010
1010
1010
1FF0
1010
ENDCHAR
STARTCHAR 53F1
ENCODING 21489
SWIDTH 600 0
DWIDTH 16 0
BBX 16 16 0 -1
BITMAP
0040
0040
7C40
4442
4444
4448
4450
4460
4440
44C0
7D40
4442
0042
0042
003E
0000
ENDCHAR
STARTCHAR 53F2
ENCODING 21490
SWIDTH 600 0
DWIDTH 16 0
BBX 16 16 0 -1
BITMAP
0100
0100
0100
3FF8
2108
2108
2108
3FF8
2108
0100
1100
0900
0600
0580
1870
E00E
ENDCHAR
STARTCHAR 53F3
ENCODING 21491
SWIDTH 600 0
DWIDTH 16 0
BBX 16 16 0 -1
BITMAP
0200
0200
0200
FFFE
0400
0400
0800
0800
1FF8
2808
4808
8808
0808
0808
0FF8
0808
ENDCHAR
STARTCHAR 53F5
ENCODING 21493
SWIDTH 600 0
DWIDTH 16 0
BBX 16 16 0 -1
BITMAP
0000
7FFC
4000
4000
4000
47F0
4410
4410
4410
4410
47F0
4410
4000
4000
7FFE
0000
ENDCHAR
STARTCHAR 53F6
ENCODING 21494
SWIDTH 600 0
DWIDTH 16 0
BBX 16 16 0 -1
BITMAP
0020
0020
7820
4820
4820
4820
4BFE
4820
4820
4820
7820
4820
0020
0020
0020
0020
ENDCHAR
STARTCHAR 53F7
ENCODING 21495
SWIDTH 600 0
DWIDTH 16 0
BBX 16 16 0 -1
BITMAP
0000
1FF0
1010
1010
1010
1FF0
0000
FFFE
0800
1000
1FF0
0010
0010
0010
00A0
0040
ENDCHAR
STARTCHAR 53F8
ENCODING 21496
SWIDTH 600 0
DWIDTH 16 0
BBX 16 16 0 -1
BITMAP
0000
3FF8
0008
0008
7FE8
0008
0008
1F88
1088
1088
1088
1088
1F88
1088
0028
0010
ENDCHAR
STARTCHAR 53F9
ENCODING 21497
SWIDTH 600 0
DWIDTH 16 0
BBX 16 16 0 -1
BITMAP
0000
07F8
7A08
4A08
4A08
4910
4910
4910
48A0
48A0
7840
4840
00A0
0110
0208
0C06
ENDCHAR
STARTCHAR 53FB
ENCODING 21499
SWIDTH 600 0
DWIDTH 16 0
BBX 16 16 0 -1
BITMAP
0040
0040
7840
4840
4BFC
4844
4844
4844
4844
4884
7884
4884
0104
0104
0228
0410
ENDCHAR
STARTCHAR 53FC
ENCODING 21500
SWIDTH 600 0
DWIDTH 16 0
BBX 16 16 0 -1
BITMAP
0000
03FC
7804
4804
4804
4814
4824
4844
4884
4904
4A04
7804
4804
0004
0028
0010
ENDCHAR
STARTCHAR 53FD
ENCODING 21501
SWIDTH 600 0
DWIDTH 16 0
BBX 16 16 0 -1
BITMAP
0000
01F0
7910
4910
4910
4910
4910
4910
4910
4910
7A10
4A12
0212
0412
040E
0800
ENDCHAR
STARTCHAR 5401
ENCODING 21505
SWIDTH 600 0
DWIDTH 16 0
BBX 16 16 0 -1
BITMAP
0000
01FC
7820
4820
4820
4820
4820
4BFE
4820
4820
7820
4820
0020
0020
00A0
0040
ENDCHAR
STARTCHAR 5403
ENCODING 21507
SWIDTH 600 0
DWIDTH 16 0
BBX 16 16 0 -1
BITMAP
0080
0080
7900
49FE
4A00
4C00
49F8
4808
4810
4860
7880
4900
0202
0202
01FE
0000
ENDCHAR
STARTCHAR 5404
ENCODING 21508
SWIDTH 600 0
DWIDTH 16 0
BBX 16 16 0 -1
BITMAP
0400
0400
0FF0
1820
24C0
0300
0CC0
3030
C00E
1FF0
1010
1010
1010
1010
1FF0
1010
ENDCHAR
STARTCHAR 5406
ENCODING 21510
SWIDTH 600 0
DWIDTH 16 0
BBX 16 16 0 -1
BITMAP
0020
0020
7840
4840
4884
4884
4908
4BF8
4910
4810
7820
4840
0088
0104
03FE
0102
ENDCHAR
STARTCHAR 5408
ENCODING 21512
SWIDTH 600 0
DWIDTH 16 0
BBX 16 16 0 -1
BITMAP
0100
0100
0280
0440
0820
3018
CFE6
0000
0000
1FF0
1010
1010
1010
1010
1FF0
1010
ENDCHAR
STARTCHAR 5409
ENCODING 21513
SWIDTH 600 0
DWIDTH 16 0
BBX 16 16 0 -1
BITMAP
0100
0100
0100
FFFE
0100
0100
0100
3FF8
0000
0000
1FF0
1010
1010
1010
1FF0
1010
ENDCHAR
STARTCHAR 540A
ENCODING 21514
SWIDTH 600 0
DWIDTH 16 0
BBX 16 16 0 -1
BITMAP
0000
1FF0
1010
1010
1010
1FF0
0100
0100
3FF8
2108
2108
2108
2128
2110
0100
0100
ENDCHAR
STARTCHAR 540C
ENCODING 21516
SWIDTH 600 0
DWIDTH 16 0
BBX 16 16 0 -1
BITMAP
0000
3FFC
2004
2004
2FF4
2004
2004
27E4
2424
2424
2424
27E4
2424
2004
2014
2008
ENDCHAR
STARTCHAR 540D
ENCODING 21517
SWIDTH 600 0
DWIDTH 16 0
BBX 16 16 0 -1
BITMAP
0200
0200
07F0
0810
1420
6240
0280
0100
0600
1FF8
E808
0808
0808
0808
0FF8
0808
ENDCHAR
STARTCHAR 540E
ENCODING 21518
SWIDTH 600 0
DWIDTH 16 0
BBX 16 16 0 -1
BITMAP
0010
00F8
1F00
1000
1000
1FFE
1000
1000
1000
17F8
1408
2408
2408
4408
87F8
0408
ENDCHAR
STARTCHAR 540F
ENCODING 21519
SWIDTH 600 0
DWIDTH 16 0
BBX 16 16 0 -1
BITMAP
0100
0100
FFFE
0100
0100
3FF8
2108
2108
2108
3FF8
1100
0900
0600
0580
1870
E00E
ENDCHAR
STARTCHAR 5410
ENCODING 21520
SWIDTH 600 0
DWIDTH 16 0
BBX 16 16 0 -1
BITMAP
0040
0040
7840
4840
4840
4840
4FFC
4840
4840
4840
7840
4840
0040
0040
0FFE
0000
ENDCHAR
STARTCHAR 5411
ENCODING 21521
SWIDTH 600 0
DWIDTH 16 0
BBX 16 16 0 -1
BITMAP
0200
0400
0800
7FFC
4004
4004
47C4
4444
4444
4444
4444
47C4
4444
4004
4014
4008
ENDCHAR
STARTCHAR 5412
ENCODING 21522
SWIDTH 600 0
DWIDTH 16 0
BBX 16 16 0 -1
BITMAP
0008
003C
7BC0
4840
4840
4840
4840
487E
4BC0
4840
7840
4842
0042
0042
003E
0000
ENDCHAR
STARTCHAR 5413
ENCODING 21523
SWIDTH 600 0
DWIDTH 16 0
BBX 16 16 0 -1
BITMAP
0000
07FE
7840
4840
4840
4840
4850
4848
4844
4844
7840
4840
0040
0040
0040
0040
ENDCHAR
STARTCHAR 5415
ENCODING 21525
SWIDTH 600 0
DWIDTH 16 0
BBX 16 16 0 -1
BITMAP
0000
1FF0
1010
1010
1010
1010
1FF0
0000
0000
3FF8
2008
2008
2008
2008
3FF8
2008
ENDCHAR
STARTCHAR 5416
ENCODING 21526
SWIDTH 600 0
DWIDTH 16 0
BBX 16 16 0 -1
BITMAP
0000
0202
7904
4888
4850
4820
4820
4820
4820
4820
7820
4820
0020
0020
0020
0020
ENDCHAR
STARTCHAR 5417
ENCODING 21527
SWIDTH 600 0
DWIDTH 16 0
BBX 16 16 0 -1
BITMAP
0000
03F0
7810
4810
4910
4910
4910
49FC
4804
4804
7804
4BF4
0004
0004
0028
0010
ENDCHAR
STARTCHAR 541B
ENCODING 21531
SWIDTH 600 0
DWIDTH 16 0
BBX 16 16 0 -1
BITMAP
0000
3FF8
0408
0408
FFFE
0408
0408
3FF8
0800
0800
1FF8
1808
2808
4808
8FF8
0808
ENDCHAR
STARTCHAR 541D
ENCODING 21533
SWIDTH 600 0
DWIDTH 16 0
BBX 16 16 0 -1
BITMAP
0200
0100
7FFC
0820
0440
0380
0C60
3018
C006
1FF0
1010
1010
1010
1010
1FF0
1010
ENDCHAR
STARTCHAR 541E
ENCODING 21534
SWIDTH 600 0
DWIDTH 16 0
BBX 16 16 0 -1
BITMAP
0000
3FF8
0100
0100
FFFE
0280
0440
0820
3018
DFF6
1010
1010
1010
1010
1FF0
1010
ENDCHAR
STARTCHAR 541F
ENCODING 21535
SWIDTH 600 0
DWIDTH 16 0
BBX 16 16 0 -1
BITMAP
0040
0040
78A0
48A0
4910
4A88
4C46
4840
4800
4BF8
7808
4810
0010
0020
0020
0040
ENDCHAR
STARTCHAR 5420
ENCODING 21536
SWIDTH 600 0
DWIDTH 16 0
BBX 16 16 0 -1
BITMAP
0040
0050
7848
4848
4840
4FFE
4840
4840
48A0
48A0
48A0
7910
4910
0208
0404
0802
ENDCHAR
STARTCHAR 5421
ENCODING 21537
SWIDTH 600 0
DWIDTH 16 0
BBX 16 16 0 -1
BITMAP
0020
0220
7A20
4A22
4A22
4A24
4BA8
4A30
4A20
4A20
7A20
4A22
02A2
0322
021E
0000
ENDCHAR
STARTCHAR 5423
ENCODING 21539
SWIDTH 600 0
DWIDTH 16 0
BBX 16 16 0 -1
BITMAP
0000
0040
F020
9010
9090
9080
9080
9284
9282
9282
F282
9488
0088
0088
0078
0000
ENDCHAR
STARTCHAR 5426
ENCODING 21542
SWIDTH 600 0
DWIDTH 16 0
BBX 16 16 0 -1
BITMAP
0000
7FFC
0080
0100
0300
0560
0918
3104
C102
0000
1FF0
1010
1010
1010
1FF0
1010
ENDCHAR
STARTCHAR 5427
ENCODING 21543
SWIDTH 600 0
DWIDTH 16 0
BBX 16 16 0 -1
BITMAP
0000
03F8
7A48
4A48
4A48
4A48
4A48
4BF8
4A08
4A00
7A00
4A02
0202
0202
01FE
0000
ENDCHAR
STARTCHAR 5428
ENCODING 21544
SWIDTH 600 0
DWIDTH 16 0
BBX 16 16 0 -1
BITMAP
0040
0040
7840
4BFC
4840
4A48
4A48
4A48
4A48
4BF8
7848
4840
0042
0042
003E
0000
ENDCHAR
STARTCHAR 5429
ENCODING 21545
SWIDTH 600 0
DWIDTH 16 0
BBX 16 16 0 -1
BITMAP
0010
0090
7890
4888
4908
4904
4A04
4DFA
4888
4888
4888
7888
4908
0108
0228
0410
ENDCHAR
STARTCHAR 542B
ENCODING 21547
SWIDTH 600 0
DWIDTH 16 0
BBX 16 16 0 -1
BITMAP
0100
0100
0280
0440
0A20
3118
C106
0FE0
0040
0080
1FF0
1010
1010
1010
1FF0
1010
ENDCHAR
STARTCHAR 542C
ENCODING 21548
SWIDTH 600 0
DWIDTH 16 0
BBX 16 16 0 -1
BITMAP
0008
001C
79E0
4900
4900
4900
49FE
4910
4910
4910
7910
4910
0110
0210
0210
0410
ENDCHAR
STARTCHAR 542D
ENCODING 21549
SWIDTH 600 0
DWIDTH 16 0
BBX 16 16 0 -1
BITMAP
0080
0040
7840
4FFC
4800
4800
49F0
4910
4910
4910
7910
4912
0212
0212
040E
0800
ENDCHAR
STARTCHAR 542E
ENCODING 21550
SWIDTH 600 0
DWIDTH 16 0
BBX 16 16 0 -1
BITMAP
0080
0080
7900
4910
4A08
4FFC
4804
4920
4920
4920
7920
4920
0222
0222
041E
0800
ENDCHAR
STARTCHAR 542F
ENCODING 21551
SWIDTH 600 0
DWIDTH 16 0
BBX 16 16 0 -1
BITMAP
0100
0080
1FFC
1004
1004
1004
1FFC
1000
1000
1000
17FC
2404
2404
4404
87FC
0404
ENDCHAR
STARTCHAR 5431
ENCODING 21553
SWIDTH 600 0
DWIDTH 16 0
BBX 16 16 0 -1
BITMAP
0020
0020
7820
4BFE
4820
4820
4820
49FC
4884
4888
7848
4850
0020
0050
0188
0606
ENDCHAR
STARTCHAR 5432
ENCODING 21554
SWIDTH 600 0
DWIDTH 16 0
BBX 16 16 0 -1
BITMAP
0004
03E4
7824
4824
4824
49E4
4904
4904
4A04
4BE4
7824
4824
0024
0024
0144
0084
ENDCHAR
STARTCHAR 5434
ENCODING 21556
SWIDTH 600 0
DWIDTH 16 0
BBX 16 16 0 -1
BITMAP
0000
1FF0
1010
1010
1FF0
0000
0000
3FF8
0100
0100
FFFE
0280
0440
0820
3018
C006
ENDCHAR
STARTCHAR 5435
ENCODING 21557
SWIDTH 600 0
DWIDTH 16 0
BBX 16 16 0 -1
BITMAP
0040
0040
7840
4948
4944
4A42
4A42
4C48
4848
4848
7810
4810
0020
0040
0180
0600
ENDCHAR
STARTCHAR 5438
ENCODING 21560
SWIDTH 600 0
DWIDTH 16 0
BBX 16 16 0 -1
BITMAP
0000
07F8
7908
4910
4910
4920
493C
4904
4904
4A88
7A88
4A50
0420
0450
0888
0306
ENDCHAR
STARTCHAR 5439
ENCODING 21561
SWIDTH 600 0
DWIDTH 16 0
BBX 16 16 0 -1
BITMAP
0080
0080
7880
48FC
4904
4908
4A40
4C40
4840
48A0
78A0
4910
0110
0208
0404
0802
ENDCHAR
STARTCHAR 543B
ENCODING 21563
SWIDTH 600 0
DWIDTH 16 0
BBX 16 16 0 -1
BITMAP
0100
0100
7900
49FC
4AA4
4CA4
48A4
4924
4924
4A44
7C44
4884
0104
0204
0428
0010
ENDCHAR
STARTCHAR 543C
ENCODING 21564
SWIDTH 600 0
DWIDTH 16 0
BBX 16 16 0 -1
BITMAP
0010
07D0
7850
4890
4910
4910
4950
4990
4910
4F10
7910
4912
0112
0112
050E
0200
ENDCHAR
STARTCHAR 543E
ENCODING 21566
SWIDTH 600 0
DWIDTH 16 0
BBX 16 16 0 -1
BITMAP
0000
7FFC
0200
0200
3FF0
0410
0410
0810
FFFE
0000
1FF0
1010
1010
1010
1FF0
1010
ENDCHAR
STARTCHAR 5440
ENCODING 21568
SWIDTH 600 0
DWIDTH 16 0
BBX 16 16 0 -1
BITMAP
0000
03FC
7810
4910
4910
4910
4A10
4BFE
4830
4850
7890
4910
0210
0410
0050
0020
ENDCHAR
STARTCHAR 5443
ENCODING 21571
SWIDTH 600 0
DWIDTH 16 0
BBX 16 16 0 -1
BITMAP
0000
03FE
7A00
4A00
4AF8
4A88
4A88
4A88
4A88
4AA8
7A90
4A82
0482
0482
087E
1000
ENDCHAR
STARTCHAR 5446
ENCODING 21574
SWIDTH 600 0
DWIDTH 16 0
BBX 16 16 0 -1
BITMAP
0000
1FF0
1010
1010
1010
1FF0
0100
0100
7FFC
0380
0540
0920
1110
2108
C106
0100
ENDCHAR
STARTCHAR 5448
ENCODING 21576
SWIDTH 600 0
DWIDTH 16 0
BBX 16 16 0 -1
BITMAP
0000
1FF0
1010
1010
1010
1FF0
0000
0000
7FFC
0100
0100
3FF8
0100
0100
FFFE
0000
ENDCHAR
STARTCHAR 544A
ENCODING 21578
SWIDTH 600 0
DWIDTH 16 0
BBX 16 16 0 -1
BITMAP
0100
1100
1100
1FF8
2100
4100
0100
FFFE
0000
0000
1FF0
1010
1010
1010
1FF0
1010
ENDCHAR
STARTCHAR 544B
ENCODING 21579
SWIDTH 600 0
DWIDTH 16 0
BBX 16 16 0 -1
BITMAP
0040
0040
7840
4BFC
4840
4840
4840
4FFE
4840
48A0
78A0
4910
0110
0208
0404
0802
ENDCHAR
STARTCHAR 5450
ENCODING 21584
SWIDTH 600 0
DWIDTH 16 0
BBX 16 16 0 -1
BITMAP
0040
0040
7840
4BFC
4A44
4A44
4A44
4A44
4AA4
4A94
7B14
4A04
0204
0204
0214
0208
ENDCHAR
STARTCHAR 5452
ENCODING 21586
SWIDTH 600 0
DWIDTH 16 0
BBX 16 16 0 -1
BITMAP
0000
03FC
7840
4840
4840
4840
4FFE
4840
48A0
48A0
78A0
4920
0122
0222
041E
0800
ENDCHAR
STARTCHAR 5453
ENCODING 21587
SWIDTH 600 0
DWIDTH 16 0
BBX 16 16 0 -1
BITMAP
0090
0090
7BFE
4890
4890
4800
4BF8
4810
4820
4840
7880
4900
0202
0202
01FE
0000
ENDCHAR
STARTCHAR 5454
ENCODING 21588
SWIDTH 600 0
DWIDTH 16 0
BBX 16 16 0 -1
BITMAP
0040
0040
7840
4840
4FFE
4840
4840
48A0
48A0
48A0
7910
4910
0288
0248
0444
0802
ENDCHAR
STARTCHAR 5455
ENCODING 21589
SWIDTH 600 0
DWIDTH 16 0
BBX 16 16 0 -1
BITMAP
0000
03FC
7A00
4A08
4A88
4A50
4A50
4A20
4A20
4A50
7A50
4A88
0308
0200
03FE
0000
ENDCHAR
STARTCHAR 5456
ENCODING 21590
SWIDTH 600 0
DWIDTH 16 0
BBX 16 16 0 -1
BITMAP
0000
03FE
7A00
4A20
4A20
4A20
4AFC
4A24
4A24
4A24
7A44
4A44
0484
0484
0928
1210
ENDCHAR
STARTCHAR 5457
ENCODING 21591
SWIDTH 600 0
DWIDTH 16 0
BBX 16 16 0 -1
BITMAP
0000
01FC
7904
4904
4924
4924
4924
4924
4924
4924
7924
4850
0048
0084
0102
0602
ENDCHAR
STARTCHAR 5458
ENCODING 21592
SWIDTH 600 0
DWIDTH 16 0
BBX 16 16 0 -1
BITMAP
0000
1FF0
1010
1010
1FF0
0000
3FF8
2008
2008
2108
2108
2108
02C0
0430
1808
E004
ENDCHAR
STARTCHAR 5459
ENCODING 21593
SWIDTH 600 0
DWIDTH 16 0
BBX 16 16 0 -1
BITMAP
0000
1FF0
1010
1010
1010
1FF0
0100
0100
7FFC
4104
4284
4444
4824
4004
4014
4008
ENDCHAR
STARTCHAR 545B
ENCODING 21595
SWIDTH 600 0
DWIDTH 16 0
BBX 16 16 0 -1
BITMAP
0040
0040
78A0
48A0
4910
4A08
4C06
49F0
4910
4910
7950
4920
0104
0104
00FC
0000
ENDCHAR
STARTCHAR 545C
ENCODING 21596
SWIDTH 600 0
DWIDTH 16 0
BBX 16 16 0 -1
BITMAP
0020
0040
79FC
4904
4904
4904
4914
4908
4900
49FE
7802
4802
03FA
0002
0014
0008
ENDCHAR
STARTCHAR 5462
ENCODING 21602
SWIDTH 600 0
DWIDTH 16 0
BBX 16 16 0 -1
BITMAP
0000
03FC
7A04
4A04
4A04
4BFC
4A00
4A40
4A44
4A48
7A70
4A40
0442
0442
083E
1000
ENDCHAR
STARTCHAR 5464
ENCODING 21604
SWIDTH 600 0
DWIDTH 16 0
BBX 16 16 0 -1
BITMAP
0040
0040
78A0
48A0
4910
4A48
4C26
4820
4BF8
4808
7810
4910
00A0
0040
0020
0020
ENDCHAR
STARTCHAR 5466
ENCODING 21606
SWIDTH 600 0
DWIDTH 16 0
BBX 16 16 0 -1
BITMAP
0020
0120
7120
5220
52FC
54A4
5724
5124
5224
5224
74A4
47A4
00C4
0044
0094
0108
ENDCHAR
STARTCHAR 5468
ENCODING 21608
SWIDTH 600 0
DWIDTH 16 0
BBX 16 16 0 -1
BITMAP
0000
3FF8
2108
2108
2FE8
2108
2108
3FF8
2008
27C8
2448
2448
27C8
4008
4028
8010
ENDCHAR
STARTCHAR 5471
ENCODING 21617
SWIDTH 600 0
DWIDTH 16 0
BBX 16 16 0 -1
BITMAP
0008
003C
7BD0
4A90
4A90
4A90
4A90
4A90
4A90
4A88
7A88
4AC8
02A4
04D4
0492
0800
ENDCHAR
STARTCHAR 5472
ENCODING 21618
SWIDTH 600 0
DWIDTH 16 0
BBX 16 16 0 -1
BITMAP
0090
0090
7890
4A90
4A92
4AD4
4A98
4A90
4A90
4A90
7A90
4A92
03D2
0E12
040E
0000
ENDCHAR
STARTCHAR 5473
ENCODING 21619
SWIDTH 600 0
DWIDTH 16 0
BBX 16 16 0 -1
BITMAP
0040
0040
7840
4BFC
4840
4840
4840
4FFE
48E0
4950
7950
4A48
0444
0842
0040
0040
ENDCHAR
STARTCHAR 5475
ENCODING 21621
SWIDTH 600 0
DWIDTH 16 0
BBX 16 16 0 -1
BITMAP
0000
0000
7BFE
4808
4808
49E8
4928
4928
4928
4928
79E8
4928
0008
0008
0028
0010
ENDCHAR
STARTCHAR 5476
ENCODING 21622
SWIDTH 600 0
DWIDTH 16 0
BBX 16 16 0 -1
BITMAP
0200
0200
E27C
A224
AFA4
A4A4
A4A4
A4A8
A4A8
A928
E510
A210
0528
0948
1084
0102
ENDCHAR
STARTCHAR 5477
ENCODING 21623
SWIDTH 600 0
DWIDTH 16 0
BBX 16 16 0 -1
BITMAP
0000
07FC
F444
9444
9444
97FC
9444
9444
9444
97FC
F444
9040
0040
0040
0040
0040
ENDCHAR
STARTCHAR 5478
ENCODING 21624
SWIDTH 600 0
DWIDTH 16 0
BBX 16 16 0 -1
BITMAP
0000
03FC
7820
4820
4840
4840
48D0
4948
4A44
4C44
7840
4840
0040
0000
07FE
0000
ENDCHAR
STARTCHAR 547B
ENCODING 21627
SWIDTH 600 0
DWIDTH 16 0
BBX 16 16 0 -1
BITMAP
0040
0040
7840
4BF8
4A48
4A48
4A48
4BF8
4A48
4A48
7A48
4BF8
0248
0040
0040
0040
ENDCHAR
STARTCHAR 547C
ENCODING 21628
SWIDTH 600 0
DWIDTH 16 0
BBX 16 16 0 -1
BITMAP
0008
003C
7BE0
4820
4924
48A4
48A8
4820
4BFE
4820
7820
4820
0020
0020
00A0
0040
ENDCHAR
STARTCHAR 547D
ENCODING 21629
SWIDTH 600 0
DWIDTH 16 0
BBX 16 16 0 -1
BITMAP
0100
0100
0280
0440
0820
37D8
C006
0000
3EF8
2288
2288
2288
3EA8
2290
0080
0080
ENDCHAR
STARTCHAR 5480
ENCODING 21632
SWIDTH 600 0
DWIDTH 16 0
BBX 16 16 0 -1
BITMAP
0000
01F8
7908
4908
4908
49F8
4908
4908
4908
49F8
7908
4908
0108
0108
07FE
0000
ENDCHAR
STARTCHAR 5482
ENCODING 21634
SWIDTH 600 0
DWIDTH 16 0
BBX 16 16 0 -1
BITMAP
0000
03FE
7A10
4A10
4A10
4AFE
4A92
4A92
4A92
4A92
7A9A
4A94
0210
0210
03FE
0000
ENDCHAR
STARTCHAR 5484
ENCODING 21636
SWIDTH 600 0
DWIDTH 16 0
BBX 16 16 0 -1
BITMAP
0020
0020
7924
4924
4924
4924
49FC
4824
4820
4820
7A22
4A22
0222
0222
03FE
0002
ENDCHAR
STARTCHAR 5486
ENCODING 21638
SWIDTH 600 0
DWIDTH 16 0
BBX 16 16 0 -1
BITMAP
0080
0080
79FC
4904
4A04
4DF4
4914
4914
4914
49F4
7904
4928
0112
0102
00FE
0000
ENDCHAR
STARTCHAR 548B
ENCODING 21643
SWIDTH 600 0
DWIDTH 16 0
BBX 16 16 0 -1
BITMAP
0100
0100
7900
49FE
4A80
4A80
4C80
48F8
4880
4880
7880
48FC
0080
0080
0080
0080
ENDCHAR
STARTCHAR 548C
ENCODING 21644
SWIDTH 600 0
DWIDTH 16 0
BBX 16 16 0 -1
BITMAP
0400
0E00
7800
087C
0844
FF44
0844
1844
1C44
2A44
2A44
4844
887C
0844
0800
0800
ENDCHAR
STARTCHAR 548E
ENCODING 21646
SWIDTH 600 0
DWIDTH 16 0
BBX 16 16 0 -1
BITMAP
1040
1040
1E50
2248
2244
5444
0840
1440
23FE
C000
1FF0
1010
1010
1010
1FF0
1010
ENDCHAR
STARTCHAR 548F
ENCODING 21647
SWIDTH 600 0
DWIDTH 16 0
BBX 16 16 0 -1
BITMAP
0040
0020
7810
49E0
4822
4834
4BB8
48B0
48A8
48A8
7928
4924
0224
0422
00A0
0040
ENDCHAR
STARTCHAR 5490
ENCODING 21648
SWIDTH 600 0
DWIDTH 16 0
BBX 16 16 0 -1
BITMAP
0088
0088
7888
4908
497E
4B08
4D08
4948
4928
4928
7908
4908
0108
0108
0128
0110
ENDCHAR
STARTCHAR 5492
ENCODING 21650
SWIDTH 600 0
DWIDTH 16 0
BBX 16 16 0 -1
BITMAP
0000
7CF8
4488
4488
4488
7CF8
0000
0000
0FC0
0840
0840
0840
1040
1042
2042
C03E
ENDCHAR
STARTCHAR 5494
ENCODING 21652
SWIDTH 600 0
DWIDTH 16 0
BBX 16 16 0 -1
BITMAP
0040
0040
7840
487C
4840
4840
4840
4FFE
4840
4840
7850
4848
0044
0040
0040
0040
ENDCHAR
STARTCHAR 5495
ENCODING 21653
SWIDTH 600 0
DWIDTH 16 0
BBX 16 16 0 -1
BITMAP
0020
0020
7820
4820
4BFE
4820
4820
4820
49FC
4904
7904
4904
0104
0104
01FC
0104
ENDCHAR
STARTCHAR 5496
ENCODING 21654
SWIDTH 600 0
DWIDTH 16 0
BBX 16 16 0 -1
BITMAP
0400
0400
F400
943C
9FA4
94A4
94A4
94A4
94A4
94A4
F4A4
94A4
08A4
08BC
12A4
2100
ENDCHAR
STARTCHAR 5499
ENCODING 21657
SWIDTH 600 0
DWIDTH 16 0
BBX 16 16 0 -1
BITMAP
0090
0088
7888
4880
4BFE
48A0
48A0
48A4
48A4
4928
7928
4932
0222
0262
049E
0800
ENDCHAR
STARTCHAR 549A
ENCODING 21658
SWIDTH 600 0
DWIDTH 16 0
BBX 16 16 0 -1
BITMAP
0080
0080
78F8
4908
4B10
4CA0
4840
48A0
4B18
4C06
78C0
4820
0010
0180
0060
0010
ENDCHAR
STARTCHAR 549B
ENCODING 21659
SWIDTH 600 0
DWIDTH 16 0
BBX 16 16 0 -1
BITMAP
0040
0020
7820
4BFE
4A02
4C04
4800
4800
4BFE
4820
7820
4820
0020
0020
00A0
0040
ENDCHAR
STARTCHAR 549D
ENCODING 21661
SWIDTH 600 0
DWIDTH 16 0
BBX 16 16 0 -1
BITMAP
0108
0108
7108
5210
5294
54A4
57BC
5108
5108
5210
7420
57BC
0000
0000
0FFE
0000
ENDCHAR
STARTCHAR 54A3
ENCODING 21667
SWIDTH 600 0
DWIDTH 16 0
BBX 16 16 0 -1
BITMAP
0040
0044
7A44
4948
4950
4840
4FFE
4890
4890
4890
7890
4892
0112
0112
020E
0400
ENDCHAR
STARTCHAR 54A4
ENCODING 21668
SWIDTH 600 0
DWIDTH 16 0
BBX 16 16 0 -1
BITMAP
0040
0020
7820
4BFE
4A02
4C04
4838
4BC0
4840
4840
787E
4FC0
0040
0042
0042
003E
ENDCHAR
STARTCHAR 54A6
ENCODING 21670
SWIDTH 600 0
DWIDTH 16 0
BBX 16 16 0 -1
BITMAP
0040
0040
F7FE
9040
97FC
9044
93FC
9240
9440
97FE
F042
90AA
00A4
0110
0208
0C06
ENDCHAR
STARTCHAR 54A7
ENCODING 21671
SWIDTH 600 0
DWIDTH 16 0
BBX 16 16 0 -1
BITMAP
0004
0004
EFC4
A214
A214
A3D4
A254
A454
A654
A554
E894
A094
0104
0204
0414
0808
ENDCHAR
STARTCHAR 54A8
ENCODING 21672
SWIDTH 600 0
DWIDTH 16 0
BBX 16 16 0 -1
BITMAP
4080
2080
09FC
1204
2448
E040
20A0
2318
2C06
0000
1FF0
1010
1010
1010
1FF0
1010
ENDCHAR
STARTCHAR 54A9
ENCODING 21673
SWIDTH 600 0
DWIDTH 16 0
BBX 16 16 0 -1
BITMAP
0104
0084
7888
4800
4BFE
4820
4820
49FC
4820
4820
7BFE
4820
0020
0020
0020
0020
ENDCHAR
STARTCHAR 54AA
ENCODING 21674
SWIDTH 600 0
DWIDTH 16 0
BBX 16 16 0 -1
BITMAP
0040
0040
7A48
4948
4950
4840
4FFE
4840
48E0
4950
7950
4A48
0444
0842
0040
0040
ENDCHAR
STARTCHAR 54AB
ENCODING 21675
SWIDTH 600 0
DWIDTH 16 0
BBX 16 16 0 -1
BITMAP
0000
3E7C
2244
2244
2244
2244
3E7C
2A00
2828
2824
2844
2442
2482
4200
4180
807E
ENDCHAR
STARTCHAR 54AC
ENCODING 21676
SWIDTH 600 0
DWIDTH 16 0
BBX 16 16 0 -1
BITMAP
0080
0040
F040
97FC
9000
9110
9208
9404
9110
9110
F0A0
9040
00A0
0110
0208
0C06
ENDCHAR
STARTCHAR 54AD
ENCODING 21677
SWIDTH 600 0
DWIDTH 16 0
BBX 16 16 0 -1
BITMAP
0020
0020
7820
4BFE
4820
4820
49FC
4800
4800
49FC
7904
4904
0104
0104
01FC
0104
ENDCHAR
STARTCHAR 54AF
ENCODING 21679
SWIDTH 600 0
DWIDTH 16 0
BBX 16 16 0 -1
BITMAP
0080
0080
78F8
4908
4B10
4CA0
4840
48A0
4918
4A06
7DF8
4908
0108
0108
01F8
0108
ENDCHAR
STARTCHAR 54B1
ENCODING 21681
SWIDTH 600 0
DWIDTH 16 0
BBX 16 16 0 -1
BITMAP
0020
0040
79FC
4904
4904
4904
49FC
4904
4904
4904
49FC
7904
4904
0104
01FC
0104
ENDCHAR
STARTCHAR 54B3
ENCODING 21683
SWIDTH 600 0
DWIDTH 16 0
BBX 16 16 0 -1
BITMAP
0040
0020
F020
97FE
9040
9084
9108
93F0
9022
9044
F188
9610
0020
0050
0188
0604
ENDCHAR
STARTCHAR 54B4
ENCODING 21684
SWIDTH 600 0
DWIDTH 16 0
BBX 16 16 0 -1
BITMAP
0040
0040
7840
4BFE
4880
4890
4890
4912
4952
4954
7A90
4A28
0428
0044
0084
0102
ENDCHAR
STARTCHAR 54B8
ENCODING 21688
SWIDTH 600 0
DWIDTH 16 0
BBX 16 16 0 -1
BITMAP
0050
0048
0040
3FFE
2040
2040
2F44
2044
2044
2F28
2928
2912
2F32
494A
4086
8102
ENDCHAR
STARTCHAR 54BB
ENCODING 21691
SWIDTH 600 0
DWIDTH 16 0
BBX 16 16 0 -1
BITMAP
0090
0090
7890
4910
49FE
4B10
4D10
4938
4938
4954
7954
4992
0110
0110
0110
0110
ENDCHAR
STARTCHAR 54BD
ENCODING 21693
SWIDTH 600 0
DWIDTH 16 0
BBX 16 16 0 -1
BITMAP
0000
07FC
F404
9444
9444
9444
97FC
9444
9444
94A4
F494
9514
0604
0404
07FC
0404
ENDCHAR
STARTCHAR 54BF
ENCODING 21695
SWIDTH 600 0
DWIDTH 16 0
BBX 16 16 0 -1
BITMAP
0100
017C
F124
9224
9224
96FE
9A24
9224
9224
927C
F224
9220
0220
0220
0240
0280
ENDCHAR
STARTCHAR 54C0
ENCODING 21696
SWIDTH 600 0
DWIDTH 16 0
BBX 16 16 0 -1
BITMAP
0200
0100
FFFE
0000
0000
1FF0
1010
1010
1FF0
0280
0444
0C28
3410
C508
0606
0400
ENDCHAR
STARTCHAR 54C1
ENCODING 21697
SWIDTH 600 0
DWIDTH 16 0
BBX 16 16 0 -1
BITMAP
0000
1FF0
1010
1010
1010
1010
1FF0
0000
0000
7C7C
4444
4444
4444
4444
7C7C
4444
ENDCHAR
STARTCHAR 54C2
ENCODING 21698
SWIDTH 600 0
DWIDTH 16 0
BBX 16 16 0 -1
BITMAP
0000
07FE
7890
4890
4890
4BFC
4A94
4A94
4A94
4A94
7A9C
4B04
0204
0204
03FC
0204
ENDCHAR
STARTCHAR 54C4
ENCODING 21700
SWIDTH 600 0
DWIDTH 16 0
BBX 16 16 0 -1
BITMAP
0110
0110
7910
4910
4BFC
4910
4910
4910
4910
4FFE
7800
4910
0108
0208
0404
0804
ENDCHAR
STARTCHAR 54C6
ENCODING 21702
SWIDTH 600 0
DWIDTH 16 0
BBX 16 16 0 -1
BITMAP
0080
0080
F1F8
9210
9520
90C0
9090
9320
9C7C
9084
F108
9690
0060
0040
0180
0E00
ENDCHAR
STARTCHAR 54C7
ENCODING 21703
SWIDTH 600 0
DWIDTH 16 0
BBX 16 16 0 -1
BITMAP
0020
0020
79FC
4820
4820
4820
4BFE
4800
4820
4820
79FC
4820
0020
0020
03FE
0000
ENDCHAR
STARTCHAR 54C8
ENCODING 21704
SWIDTH 600 0
DWIDTH 16 0
BBX 16 16 0 -1
BITMAP
0040
0040
78A0
4910
4A08
4C06
4BF8
4800
4800
4BF8
7A08
4A08
0208
0208
03F8
0208
ENDCHAR
STARTCHAR 54C9
ENCODING 21705
SWIDTH 600 0
DWIDTH 16 0
BBX 16 16 0 -1
BITMAP
0840
0848
0844
7F44
0840
0840
FFFE
0040
0044
3E44
2228
222A
2212
3E2A
2246
0082
ENDCHAR
STARTCHAR 54CC
ENCODING 21708
SWIDTH 600 0
DWIDTH 16 0
BBX 16 16 0 -1
BITMAP
0008
003C
F7C0
9400
941C
95E0
9520
9522
9524
9528
F510
9510
0508
0944
0982
1100
ENDCHAR
STARTCHAR 54CD
ENCODING 21709
SWIDTH 600 0
DWIDTH 16 0
BBX 16 16 0 -1
BITMAP
0040
0040
7880
4BFC
4A04
4A04
4AF4
4A94
4A94
4A94
7A94
4AF4
0204
0204
0214
0208
ENDCHAR
STARTCHAR 54CE
ENCODING 21710
SWIDTH 600 0
DWIDTH 16 0
BBX 16 16 0 -1
BITMAP
0110
0110
7BFC
4910
4910
4800
4A08
4A08
4910
4910
78A0
4840
00A0
0110
0208
0C06
ENDCHAR
STARTCHAR 54CF
ENCODING 21711
SWIDTH 600 0
DWIDTH 16 0
BBX 16 16 0 -1
BITMAP
0000
03F8
7A08
4A08
4BF8
4A08
4A08
4BF8
4A44
4A48
7A30
4A20
0210
0288
0306
0200
ENDCHAR
STARTCHAR 54D0
ENCODING 21712
SWIDTH 600 0
DWIDTH 16 0
BBX 16 16 0 -1
BITMAP
0000
03FE
7A00
4A00
4BFC
4A20
4A20
4AF8
4A20
4A20
7A20
4BFC
0200
0200
03FE
0000
ENDCHAR
STARTCHAR 54D1
ENCODING 21713
SWIDTH 600 0
DWIDTH 16 0
BBX 16 16 0 -1
BITMAP
0000
03FC
7890
4890
4890
4892
4C92
4A94
4A94
4A98
7890
4890
0090
0090
07FE
0000
ENDCHAR
STARTCHAR 54D2
ENCODING 21714
SWIDTH 600 0
DWIDTH 16 0
BBX 16 16 0 -1
BITMAP
0010
0210
7910
4910
48FE
4810
4B10
4928
4924
4944
7942
4982
0100
0280
047E
0000
ENDCHAR
STARTCHAR 54D3
ENCODING 21715
SWIDTH 600 0
DWIDTH 16 0
BBX 16 16 0 -1
BITMAP
0080
0080
78BC
4BC0
4850
4824
48D4
4B0C
4800
4BFE
7890
4890
0112
0112
020E
0400
ENDCHAR
STARTCHAR 54D4
ENCODING 21716
SWIDTH 600 0
DWIDTH 16 0
BBX 16 16 0 -1
BITMAP
0110
0112
7914
49D8
4910
4912
4952
498E
4920
4820
7BFE
4820
0020
0020
0020
0020
ENDCHAR
STARTCHAR 54D5
ENCODING 21717
SWIDTH 600 0
DWIDTH 16 0
BBX 16 16 0 -1
BITMAP
0020
0124
7924
4924
49FC
4840
4840
48FC
4904
4A84
7848
4850
0020
0040
0080
0300
ENDCHAR
STARTCHAR 54D7
ENCODING 21719
SWIDTH 600 0
DWIDTH 16 0
BBX 16 16 0 -1
BITMAP
0090
0094
7914
4918
4B10
4D32
4952
490E
4920
4820
7BFE
4820
0020
0020
0020
0020
ENDCHAR
STARTCHAR 54D9
ENCODING 21721
SWIDTH 600 0
DWIDTH 16 0
BBX 16 16 0 -1
BITMAP
0040
0040
78A0
4910
4A08
4C06
49F0
4800
4800
4FFC
7840
4880
0110
0208
07FC
0204
ENDCHAR
STARTCHAR 54DA
ENCODING 21722
SWIDTH 600 0
DWIDTH 16 0
BBX 16 16 0 -1
BITMAP
0000
01F0
7910
4910
4910
4910
4A4E
4C40
4BFC
4840
78E0
4950
0248
0446
0040
0040
ENDCHAR
STARTCHAR 54DC
ENCODING 21724
SWIDTH 600 0
DWIDTH 16 0
BBX 16 16 0 -1
BITMAP
0040
0020
7BFE
4904
4888
4850
4820
48D8
4B06
4888
7888
4888
0088
0108
0108
0208
ENDCHAR
STARTCHAR 54DD
ENCODING 21725
SWIDTH 600 0
DWIDTH 16 0
BBX 16 16 0 -1
BITMAP
0040
0040
F040
97FC
9484
9888
9140
9144
9348
9530
F920
9110
0108
0144
0182
0100
ENDCHAR
STARTCHAR 54DE
ENCODING 21726
SWIDTH 600 0
DWIDTH 16 0
BBX 16 16 0 -1
BITMAP
0040
0040
7890
4908
4BFC
4824
4920
4920
49FC
4A20
7820
4FFE
0020
0020
0020
0020
ENDCHAR
STARTCHAR 54DF
ENCODING 21727
SWIDTH 600 0
DWIDTH 16 0
BBX 16 16 0 -1
BITMAP
0220
0220
F220
943C
9544
9F44
9284
9224
9414
9F94
F404
9004
0184
0E04
0428
0010
ENDCHAR
STARTCHAR 54E5
ENCODING 21733
SWIDTH 600 0
DWIDTH 16 0
BBX 16 16 0 -1
BITMAP
0000
7FFC
0010
1F90
1090
1090
1F90
0000
FFFE
0010
1F90
1090
1090
1F90
0050
0020
ENDCHAR
STARTCHAR 54E6
ENCODING 21734
SWIDTH 600 0
DWIDTH 16 0
BBX 16 16 0 -1
BITMAP
0028
01A4
F724
9120
9120
9FFE
9120
9124
91A4
9328
FD28
9110
0112
012A
0546
0282
ENDCHAR
STARTCHAR 54E7
ENCODING 21735
SWIDTH 600 0
DWIDTH 16 0
BBX 16 16 0 -1
BITMAP
0020
0020
79FC
4820
4820
4820
4BFE
4848
4848
494C
794A
4A4A
0088
0088
0128
0210
ENDCHAR
STARTCHAR 54E8
ENCODING 21736
SWIDTH 600 0
DWIDTH 16 0
BBX 16 16 0 -1
BITMAP
0020
0124
78A4
48A8
4820
49FC
4904
4904
49FC
4904
7904
49FC
0104
0104
0114
0108
ENDCHAR
STARTCHAR 54E9
ENCODING 21737
SWIDTH 600 0
DWIDTH 16 0
BBX 16 16 0 -1
BITMAP
0000
07FC
F444
9444
97FC
9444
9444
97FC
9040
9040
F7FC
9040
0040
0040
0FFE
0000
ENDCHAR
STARTCHAR 54EA
ENCODING 21738
SWIDTH 600 0
DWIDTH 16 0
BBX 16 16 0 -1
BITMAP
0000
0FDE
7252
5252
5254
57D4
5258
5254
5252
5FD2
7252
525A
0254
0450
0550
0890
ENDCHAR
STARTCHAR 54ED
ENCODING 21741
SWIDTH 600 0
DWIDTH 16 0
BBX 16 16 0 -1
BITMAP
0000
3C78
2448
2448
2448
3C78
0000
0110
0108
FFFE
0100
0280
0440
0820
3018
C006
ENDCHAR
STARTCHAR 54EE
ENCODING 21742
SWIDTH 600 0
DWIDTH 16 0
BBX 16 16 0 -1
BITMAP
0040
0044
7BF4
4848
4848
4FFE
4820
4840
4BF8
4910
7A20
4DFE
0820
0020
00A0
0040
ENDCHAR
STARTCHAR 54F2
ENCODING 21746
SWIDTH 600 0
DWIDTH 16 0
BBX 16 16 0 -1
BITMAP
080C
08F0
7E80
0880
0EFE
7888
0888
2908
1208
0000
1FF0
1010
1010
1010
1FF0
1010
ENDCHAR
STARTCHAR 54F3
ENCODING 21747
SWIDTH 600 0
DWIDTH 16 0
BBX 16 16 0 -1
BITMAP
0208
021C
7260
5240
5FC0
5240
527E
52C8
5348
5E48
7248
5248
0248
0248
0A88
0508
ENDCHAR
STARTCHAR 54FA
ENCODING 21754
SWIDTH 600 0
DWIDTH 16 0
BBX 16 16 0 -1
BITMAP
0048
0044
F7FE
9040
9040
93FC
9244
9244
93FC
9244
F244
93FC
0244
0244
0254
0208
ENDCHAR
STARTCHAR 54FC
ENCODING 21756
SWIDTH 600 0
DWIDTH 16 0
BBX 16 16 0 -1
BITMAP
0040
0020
7BFE
4800
49F8
4908
4908
49F8
4800
4BFC
7808
4830
0020
0020
00A0
0040
ENDCHAR
STARTCHAR 54FD
ENCODING 21757
SWIDTH 600 0
DWIDTH 16 0
BBX 16 16 0 -1
BITMAP
0000
07FE
F040
97FC
9444
9444
97FC
9444
9444
97FC
F240
9140
0080
0140
0230
0C0E
ENDCHAR
STARTCHAR 54FF
ENCODING 21759
SWIDTH 600 0
DWIDTH 16 0
BBX 16 16 0 -1
BITMAP
0800
0800
7F7C
1144
1144
2544
427C
0000
FFFE
0010
1F90
1090
1090
1F90
0050
0020
ENDCHAR
STARTCHAR 5501
ENCODING 21761
SWIDTH 600 0
DWIDTH 16 0
BBX 16 16 0 -1
BITMAP
0040
0020
7BFE
4800
4800
49FC
4800
4800
49FC
4800
7800
49FC
0104
0104
01FC
0104
ENDCHAR
STARTCHAR 5506
ENCODING 21766
SWIDTH 600 0
DWIDTH 16 0
BBX 16 16 0 -1
BITMAP
0040
0040
7888
4904
4BFE
4802
4888
4944
4A42
48F8
7988
4A50
0020
0050
0188
0606
ENDCHAR
STARTCHAR 5507
ENCODING 21767
SWIDTH 600 0
DWIDTH 16 0
BBX 16 16 0 -1
BITMAP
0000
3FFC
2000
2FF8
2000
3FFE
2488
2450
2530
260E
2000
2FF8
4808
4808
8FF8
0808
ENDCHAR
STARTCHAR 5509
ENCODING 21769
SWIDTH 600 0
DWIDTH 16 0
BBX 16 16 0 -1
BITMAP
0040
0080
F110
9208
97FC
9104
9100
93F8
9440
9040
9FFE
F040
90A0
0110
0208
0C06
ENDCHAR
STARTCHAR 550F
ENCODING 21775
SWIDTH 600 0
DWIDTH 16 0
BBX 16 16 0 -1
BITMAP
0184
0068
7830
48C8
4B04
4840
4BFE
48A0
4920
4BFC
7D24
4924
0134
0128
0020
0020
ENDCHAR
STARTCHAR 5510
ENCODING 21776
SWIDTH 600 0
DWIDTH 16 0
BBX 16 16 0 -1
BITMAP
0100
0080
3FFE
2080
2FF8
2088
3FFE
2088
2FF8
2080
2FF8
2808
4808
4808
8FF8
0808
ENDCHAR
STARTCHAR 5511
ENCODING 21777
SWIDTH 600 0
DWIDTH 16 0
BBX 16 16 0 -1
BITMAP
0040
0040
F248
9248
9248
9554
98E2
9040
9040
97FC
F040
9040
0040
0040
0FFE
0000
ENDCHAR
STARTCHAR 5514
ENCODING 21780
SWIDTH 600 0
DWIDTH 16 0
BBX 16 16 0 -1
BITMAP
0000
07FC
F040
9040
93F8
9088
9088
97FE
9000
9000
F3F8
9208
0208
0208
03F8
0208
ENDCHAR
STARTCHAR 551B
ENCODING 21787
SWIDTH 600 0
DWIDTH 16 0
BBX 16 16 0 -1
BITMAP
0040
0040
F7FC
9040
93F8
9040
97FE
9080
90F8
9108
F310
94A0
0040
00A0
0318
0C06
ENDCHAR
STARTCHAR 5520
ENCODING 21792
SWIDTH 600 0
DWIDTH 16 0
BBX 16 16 0 -1
BITMAP
0088
0088
7BFE
4888
4800
4BFE
4A02
4C44
4840
4BFC
7844
4884
0084
0104
0228
0410
ENDCHAR
STARTCHAR 5522
ENCODING 21794
SWIDTH 600 0
DWIDTH 16 0
BBX 16 16 0 -1
BITMAP
0020
0124
78A4
48A8
4820
49FC
4904
4924
4924
4924
7924
4924
0050
0088
0104
0202
ENDCHAR
STARTCHAR 5523
ENCODING 21795
SWIDTH 600 0
DWIDTH 16 0
BBX 16 16 0 -1
BITMAP
0020
0040
79FC
4904
4904
49FC
4904
4904
49FC
4840
7840
487E
07C0
0042
0042
003E
ENDCHAR
STARTCHAR 5524
ENCODING 21796
SWIDTH 600 0
DWIDTH 16 0
BBX 16 16 0 -1
BITMAP
0100
0100
F1F0
9210
9420
9BF8
9248
9248
9248
9248
F7FE
90A0
00A0
0110
0208
0C06
ENDCHAR
STARTCHAR 5527
ENCODING 21799
SWIDTH 600 0
DWIDTH 16 0
BBX 16 16 0 -1
BITMAP
0000
07BC
74A4
54A4
54A4
57A4
54A4
54A4
54A4
57A4
7434
5528
04A0
0560
0620
0020
ENDCHAR
STARTCHAR 552A
ENCODING 21802
SWIDTH 600 0
DWIDTH 16 0
BBX 16 16 0 -1
BITMAP
0040
0040
F7FC
9040
93F8
9080
97FC
9110
9248
9446
F1F0
9040
07FC
0040
0040
0040
ENDCHAR
STARTCHAR 552C
ENCODING 21804
SWIDTH 600 0
DWIDTH 16 0
BBX 16 16 0 -1
BITMAP
0040
0040
787C
4840
4BFC
4A44
4A70
4BC0
4A44
4A3C
7A00
4AF0
0490
0492
0912
120E
ENDCHAR
STARTCHAR 552E
ENCODING 21806
SWIDTH 600 0
DWIDTH 16 0
BBX 16 16 0 -1
BITMAP
0900
0880
1FFC
3080
5FF8
9080
1FF8
1080
1FFC
1000
0000
1FF8
1008
1008
1FF8
1008
ENDCHAR
STARTCHAR 552F
ENCODING 21807
SWIDTH 600 0
DWIDTH 16 0
BBX 16 16 0 -1
BITMAP
00A0
0090
7880
49FE
4910
4B10
4DFC
4910
4910
49FC
7910
4910
0110
01FE
0100
0100
ENDCHAR
STARTCHAR 5530
ENCODING 21808
SWIDTH 600 0
DWIDTH 16 0
BBX 16 16 0 -1
BITMAP
0002
07E2
7422
542A
57EA
548A
548A
548A
57EA
56AA
76AA
5AAA
0AA2
12E2
008A
0084
ENDCHAR
STARTCHAR 5531
ENCODING 21809
SWIDTH 600 0
DWIDTH 16 0
BBX 16 16 0 -1
BITMAP
01F8
0108
7908
49F8
4908
4908
49F8
4800
4BFC
4A04
7A04
4BFC
0204
0204
03FC
0204
ENDCHAR
STARTCHAR 5533
ENCODING 21811
SWIDTH 600 0
DWIDTH 16 0
BBX 16 16 0 -1
BITMAP
0040
0020
7BFC
4A04
4A04
4BFC
4A00
4A28
4A24
4BFE
7A20
4A50
0250
0488
0504
0A02
ENDCHAR
STARTCHAR 5537
ENCODING 21815
SWIDTH 600 0
DWIDTH 16 0
BBX 16 16 0 -1
BITMAP
0040
0020
7BFE
4880
4904
4BFE
4802
49FC
4904
49FC
7904
49FC
0104
0104
0114
0108
ENDCHAR
STARTCHAR 553C
ENCODING 21820
SWIDTH 600 0
DWIDTH 16 0
BBX 16 16 0 -1
BITMAP
0080
0040
7BFC
4800
4908
4890
4FFE
4840
4840
4FFE
7888
4908
0090
0060
0198
0604
ENDCHAR
STARTCHAR 553E
ENCODING 21822
SWIDTH 600 0
DWIDTH 16 0
BBX 16 16 0 -1
BITMAP
0010
0078
F3C0
9040
9040
97FC
9248
9248
97FE
9248
F248
97FC
0040
0040
07FC
0000
ENDCHAR
STARTCHAR 553F
ENCODING 21823
SWIDTH 600 0
DWIDTH 16 0
BBX 16 16 0 -1
BITMAP
0100
0100
F3FC
9494
9894
9124
9244
9484
9128
9210
F040
9124
052A
050A
08F8
0000
ENDCHAR
STARTCHAR 5541
ENCODING 21825
SWIDTH 600 0
DWIDTH 16 0
BBX 16 16 0 -1
BITMAP
0000
07FC
F444
9444
95F4
9444
9444
97FC
9404
95F4
F514
9514
05F4
0404
0414
0808
ENDCHAR
STARTCHAR 5543
ENCODING 21827
SWIDTH 600 0
DWIDTH 16 0
BBX 16 16 0 -1
BITMAP
0020
0120
793C
4920
4920
4FFE
4800
4BFC
4A04
4BFC
7A04
4BFC
0204
0204
0214
0208
ENDCHAR
STARTCHAR 5544
ENCODING 21828
SWIDTH 600 0
DWIDTH 16 0
BBX 16 16 0 -1
BITMAP
0000
03FE
7840
4880
4944
4A24
4868
4AB0
4930
4AA8
7868
48A4
0122
0220
00A0
0040
ENDCHAR
STARTCHAR 5546
ENCODING 21830
SWIDTH 600 0
DWIDTH 16 0
BBX 16 16 0 -1
BITMAP
0200
0100
7FFC
0820
0440
3FF8
2008
2448
2828
37D8
2448
2448
27C8
2008
2028
2010
ENDCHAR
STARTCHAR 5549
ENCODING 21833
SWIDTH 600 0
DWIDTH 16 0
BBX 16 16 0 -1
BITMAP
0110
0110
7110
5110
57BC
5110
5110
5338
53B8
5554
7554
5992
0110
0110
0110
0110
ENDCHAR
STARTCHAR 554A
ENCODING 21834
SWIDTH 600 0
DWIDTH 16 0
BBX 16 16 0 -1
BITMAP
0000
0EFC
EA08
AA08
AAE8
AAA8
ACA8
AAA8
AAA8
AAA8
EAE8
AAA8
0C08
0808
0828
0810
ENDCHAR
STARTCHAR 5550
ENCODING 21840
SWIDTH 600 0
DWIDTH 16 0
BBX 16 16 0 -1
BITMAP
0080
0040
F7FC
9000
9110
9110
92A8
9444
9000
9040
F7FE
9040
0040
0040
0040
0040
ENDCHAR
STARTCHAR 5555
ENCODING 21845
SWIDTH 600 0
DWIDTH 16 0
BBX 16 16 0 -1
BITMAP
0100
0100
79FC
4A04
4D04
49E4
4A84
4884
4FF4
4884
7AA4
4AA4
03E4
0004
0028
0010
ENDCHAR
STARTCHAR 5556
ENCODING 21846
SWIDTH 600 0
DWIDTH 16 0
BBX 16 16 0 -1
BITMAP
0040
0244
F244
9448
90A0
9110
9608
9044
9040
9248
F248
9450
00A0
0110
0208
0C06
ENDCHAR
STARTCHAR 555C
ENCODING 21852
SWIDTH 600 0
DWIDTH 16 0
BBX 16 16 0 -1
BITMAP
0000
07BC
7084
5294
5108
5294
54A4
5840
5000
57BC
70A4
52A4
0128
0290
04A8
0846
ENDCHAR
STARTCHAR 5561
ENCODING 21857
SWIDTH 600 0
DWIDTH 16 0
BBX 16 16 0 -1
BITMAP
0090
0090
F090
979E
9090
9090
9090
939C
9090
9090
F090
979E
0090
0090
0090
0090
ENDCHAR
STARTCHAR 5564
ENCODING 21860
SWIDTH 600 0
DWIDTH 16 0
BBX 16 16 0 -1
BITMAP
0040
0080
7BFC
4A24
4A24
4BFC
4A24
4A44
4BFC
4890
7910
4FFE
0010
0010
0010
0010
ENDCHAR
STARTCHAR 5565
ENCODING 21861
SWIDTH 600 0
DWIDTH 16 0
BBX 16 16 0 -1
BITMAP
0040
0040
78A0
4910
4A08
4DF6
4840
4840
4FFC
4840
7840
4BF8
0208
0208
03F8
0208
ENDCHAR
STARTCHAR 5566
ENCODING 21862
SWIDTH 600 0
DWIDTH 16 0
BBX 16 16 0 -1
BITMAP
0120
0110
7110
517E
5780
5104
5144
51C4
5124
5324
7528
5128
0108
0110
057E
0200
ENDCHAR
STARTCHAR 5567
ENCODING 21863
SWIDTH 600 0
DWIDTH 16 0
BBX 16 16 0 -1
BITMAP
0020
0020
7BFE
4820
49FC
4820
4BFE
4800
49FC
4904
7924
4924
0124
0050
0088
0304
ENDCHAR
STARTCHAR 556A
ENCODING 21866
SWIDTH 600 0
DWIDTH 16 0
BBX 16 16 0 -1
BITMAP
0210
0210
7220
527C
5FC4
5244
5244
52C4
537C
5E44
7244
5244
0244
0244
0A7C
0444
ENDCHAR
STARTCHAR 556C
ENCODING 21868
SWIDTH 600 0
DWIDTH 16 0
BBX 16 16 0 -1
BITMAP
0100
0100
7FFC
0100
1110
0920
FFFE
0000
3FF8
2008
27C8
2448
27C8
2008
3FF8
2008
ENDCHAR
STARTCHAR 556D
ENCODING 21869
SWIDTH 600 0
DWIDTH 16 0
BBX 16 16 0 -1
BITMAP
0210
0210
7210
5FBC
5210
5510
557E
5790
5120
513C
71C4
5F08
0528
0110
0108
0104
ENDCHAR
STARTCHAR 556E
ENCODING 21870
SWIDTH 600 0
DWIDTH 16 0
BBX 16 16 0 -1
BITMAP
0040
0040
F27C
9240
9240
9240
9FFE
9000
9444
9444
F4A4
9494
0514
0404
07FC
0004
ENDCHAR
STARTCHAR 5575
ENCODING 21877
SWIDTH 600 0
DWIDTH 16 0
BBX 16 16 0 -1
BITMAP
0010
0410
7210
52FE
5892
5494
5490
52FC
52A4
54A4
7CA8
54A8
0490
0528
0544
0282
ENDCHAR
STARTCHAR 5576
ENCODING 21878
SWIDTH 600 0
DWIDTH 16 0
BBX 16 16 0 -1
BITMAP
0040
0020
7BFE
4A02
4C04
4800
4BFE
4820
4820
4920
793C
4920
02A0
0260
043E
0800
ENDCHAR
STARTCHAR 5577
ENCODING 21879
SWIDTH 600 0
DWIDTH 16 0
BBX 16 16 0 -1
BITMAP
0100
009E
7BD2
4A52
4A54
4BD4
4A58
4A54
4BD2
4A12
7A92
4A5A
02D4
0350
0210
0010
ENDCHAR
STARTCHAR 5578
ENCODING 21880
SWIDTH 600 0
DWIDTH 16 0
BBX 16 16 0 -1
BITMAP
0040
0040
7BF8
4848
4FFE
4848
4BF8
4840
4A48
4A48
7AE8
4B58
0248
0248
0448
0848
ENDCHAR
STARTCHAR 557B
ENCODING 21883
SWIDTH 600 0
DWIDTH 16 0
BBX 16 16 0 -1
BITMAP
0100
3FF8
0820
0440
7FFE
4102
9FF4
1110
1150
1120
0100
3FF8
2008
2008
3FF8
2008
ENDCHAR
STARTCHAR 557C
ENCODING 21884
SWIDTH 600 0
DWIDTH 16 0
BBX 16 16 0 -1
BITMAP
0040
0020
79FC
4800
4888
4850
4BFE
4A22
4C24
49FC
4924
7924
4934
0128
0020
0020
ENDCHAR
STARTCHAR 557E
ENCODING 21886
SWIDTH 600 0
DWIDTH 16 0
BBX 16 16 0 -1
BITMAP
0088
01C8
7708
5108
512A
512A
57AC
5148
5308
5388
7554
5514
0914
0124
0124
0142
ENDCHAR
STARTCHAR 5580
ENCODING 21888
SWIDTH 600 0
DWIDTH 16 0
BBX 16 16 0 -1
BITMAP
0040
0020
7BFE
4A02
4880
48F8
4908
4A90
4860
4998
7E06
49F8
0108
0108
01F8
0108
ENDCHAR
STARTCHAR 5581
ENCODING 21889
SWIDTH 600 0
DWIDTH 16 0
BBX 16 16 0 -1
BITMAP
01FC
0124
7924
49FC
4924
4924
49FC
4820
4820
4BFE
7A22
4A2A
02FA
020A
0202
0206
ENDCHAR
STARTCHAR 5582
ENCODING 21890
SWIDTH 600 0
DWIDTH 16 0
BBX 16 16 0 -1
BITMAP
0000
03F8
7A48
4A48
4BF8
4A48
4A48
4BF8
4800
4FFE
7A40
4A44
0228
0290
0308
0206
ENDCHAR
STARTCHAR 5583
ENCODING 21891
SWIDTH 600 0
DWIDTH 16 0
BBX 16 16 0 -1
BITMAP
0040
0040
F7FC
9040
9040
97FC
9514
94A4
95F4
9444
F444
95F4
0444
0444
0454
0408
ENDCHAR
STARTCHAR 5584
ENCODING 21892
SWIDTH 600 0
DWIDTH 16 0
BBX 16 16 0 -1
BITMAP
0820
0440
7FFC
0100
3FF8
0100
FFFE
1110
0920
FFFE
0000
3FF8
2008
2008
3FF8
2008
ENDCHAR
STARTCHAR 5587
ENCODING 21895
SWIDTH 600 0
DWIDTH 16 0
BBX 16 16 0 -1
BITMAP
0104
0104
77C4
5104
5114
57D4
5554
5554
57D4
5114
7394
5554
0944
0104
0114
0108
ENDCHAR
STARTCHAR 5588
ENCODING 21896
SWIDTH 600 0
DWIDTH 16 0
BBX 16 16 0 -1
BITMAP
0220
0224
7BA8
4A30
4AA2
4B22
4A5E
4880
4BFC
4A04
7A04
4BFC
0204
0204
03FC
0204
ENDCHAR
STARTCHAR 5589
ENCODING 21897
SWIDTH 600 0
DWIDTH 16 0
BBX 16 16 0 -1
BITMAP
0100
0178
7108
5208
52FE
5640
5A40
527C
5290
5210
72FE
5210
0228
0228
0244
0282
ENDCHAR
STARTCHAR 558A
ENCODING 21898
SWIDTH 600 0
DWIDTH 16 0
BBX 16 16 0 -1
BITMAP
0014
0012
7010
57FE
5410
5410
55D0
5412
5412
55D4
7554
5548
05DA
042A
0846
1082
ENDCHAR
STARTCHAR 558B
ENCODING 21899
SWIDTH 600 0
DWIDTH 16 0
BBX 16 16 0 -1
BITMAP
0048
0148
7948
4BFE
4948
4948
4978
4900
49FE
4820
7BFE
4870
00A8
0124
0622
0020
ENDCHAR
STARTCHAR 558F
ENCODING 21903
SWIDTH 600 0
DWIDTH 16 0
BBX 16 16 0 -1
BITMAP
0108
0108
F7FE
9108
9148
9040
97FE
9080
9100
93FC
F504
9904
0104
0104
01FC
0104
ENDCHAR
STARTCHAR 5591
ENCODING 21905
SWIDTH 600 0
DWIDTH 16 0
BBX 16 16 0 -1
BITMAP
0080
0040
7BFC
4800
4908
4890
4FFE
4800
49F8
4908
7908
49F8
0108
0108
01F8
0108
ENDCHAR
STARTCHAR 5594
ENCODING 21908
SWIDTH 600 0
DWIDTH 16 0
BBX 16 16 0 -1
BITMAP
0000
03FC
7A04
4A04
4BFC
4A00
4BFC
4A40
4A88
4BFC
7A24
4A20
05FC
0420
0820
13FE
ENDCHAR
STARTCHAR 5598
ENCODING 21912
SWIDTH 600 0
DWIDTH 16 0
BBX 16 16 0 -1
BITMAP
0040
0444
F444
9444
97FC
9000
9FFE
9040
9080
97FC
F4A4
94A4
04A4
04A4
04A4
040C
ENDCHAR
STARTCHAR 5599
ENCODING 21913
SWIDTH 600 0
DWIDTH 16 0
BBX 16 16 0 -1
BITMAP
0100
01F8
F208
93F0
9010
97FE
9080
9144
9668
90B0
F128
9668
00A4
0122
06A0
0040
ENDCHAR
STARTCHAR 559C
ENCODING 21916
SWIDTH 600 0
DWIDTH 16 0
BBX 16 16 0 -1
BITMAP
0100
7FFC
0100
3FF8
0000
3FF8
2008
3FF8
0820
FFFE
0000
3FF8
2008
2008
3FF8
2008
ENDCHAR
STARTCHAR 559D
ENCODING 21917
SWIDTH 600 0
DWIDTH 16 0
BBX 16 16 0 -1
BITMAP
0000
03F8
7A08
4BF8
4A08
4BF8
4900
4BFC
4C44
4A44
7AA4
4A04
03F4
0004
0028
0010
ENDCHAR
STARTCHAR 559F
ENCODING 21919
SWIDTH 600 0
DWIDTH 16 0
BBX 16 16 0 -1
BITMAP
0000
03FE
7A22
4BFE
4A22
4BFE
4800
49FC
4904
49FC
7904
49FC
0104
0104
0114
0108
ENDCHAR
STARTCHAR 55A7
ENCODING 21927
SWIDTH 600 0
DWIDTH 16 0
BBX 16 16 0 -1
BITMAP
0040
0020
7BFE
4A02
4C04
49FC
4800
49FC
4904
49FC
7904
49FC
0104
0000
03FE
0000
ENDCHAR
STARTCHAR 55B1
ENCODING 21937
SWIDTH 600 0
DWIDTH 16 0
BBX 16 16 0 -1
BITMAP
0000
07FE
F400
95FC
9524
9524
95FC
9524
9524
95FC
F420
9420
05FC
0820
0820
13FE
ENDCHAR
STARTCHAR 55B3
ENCODING 21939
SWIDTH 600 0
DWIDTH 16 0
BBX 16 16 0 -1
BITMAP
0040
0040
F7FC
90E0
9150
9248
9446
93F8
9208
93F8
F208
93F8
0208
0000
0FFE
0000
ENDCHAR
STARTCHAR 55B5
ENCODING 21941
SWIDTH 600 0
DWIDTH 16 0
BBX 16 16 0 -1
BITMAP
0088
0088
7BFE
4888
4888
4800
49FC
4924
4924
4924
79FC
4924
0124
0124
01FC
0104
ENDCHAR
STARTCHAR 55B7
ENCODING 21943
SWIDTH 600 0
DWIDTH 16 0
BBX 16 16 0 -1
BITMAP
0020
01FC
7820
4888
4BFE
4888
4800
49FC
4904
4924
7924
4924
0124
0050
0088
0304
ENDCHAR
STARTCHAR 55B9
ENCODING 21945
SWIDTH 600 0
DWIDTH 16 0
BBX 16 16 0 -1
BITMAP
0040
0040
F7FC
90A0
9110
9248
9DF6
9040
9040
97FC
F000
9040
03F8
0040
0040
0FFE
ENDCHAR
STARTCHAR 55BB
ENCODING 21947
SWIDTH 600 0
DWIDTH 16 0
BBX 16 16 0 -1
BITMAP
0040
00A0
7910
4A08
4DF6
4800
4BC4
4A54
4A54
4BD4
7A54
4A54
03D4
0244
0254
02C8
ENDCHAR
STARTCHAR 55BD
ENCODING 21949
SWIDTH 600 0
DWIDTH 16 0
BBX 16 16 0 -1
BITMAP
0020
0124
78A8
4820
4BFE
48A8
4924
4A02
4840
4FFE
7888
4908
0190
0060
0198
0604
ENDCHAR
STARTCHAR 55BE
ENCODING 21950
SWIDTH 600 0
DWIDTH 16 0
BBX 16 16 0 -1
BITMAP
2208
1110
0020
7FFE
4102
9104
1FF0
2100
0100
FFFE
0000
1FF0
1010
1010
1FF0
1010
ENDCHAR
STARTCHAR 55C4
ENCODING 21956
SWIDTH 600 0
DWIDTH 16 0
BBX 16 16 0 -1
BITMAP
07FC
0080
F3F8
9208
93F8
9208
93F8
9208
93F8
9080
F1F8
9310
04A0
0040
01B0
0E0E
ENDCHAR
STARTCHAR 55C5
ENCODING 21957
SWIDTH 600 0
DWIDTH 16 0
BBX 16 16 0 -1
BITMAP
0040
0080
7BF8
4A08
4BF8
4A08
4BF8
4A08
4BF8
4850
7848
4FFE
00A0
0110
0208
0C06
ENDCHAR
STARTCHAR 55C9
ENCODING 21961
SWIDTH 600 0
DWIDTH 16 0
BBX 16 16 0 -1
BITMAP
0020
0020
7BFE
4820
49FC
4820
4BFE
4840
4888
49F0
7824
4BFE
0022
0124
02A2
0040
ENDCHAR
STARTCHAR 55CC
ENCODING 21964
SWIDTH 600 0
DWIDTH 16 0
BBX 16 16 0 -1
BITMAP
0208
0108
F110
9000
97FC
9000
9110
9208
9404
93F8
F2A8
92A8
02A8
02A8
0FFE
0000
ENDCHAR
STARTCHAR 55CD
ENCODING 21965
SWIDTH 600 0
DWIDTH 16 0
BBX 16 16 0 -1
BITMAP
0440
025E
7292
5012
57D2
511E
5552
5552
5552
57DE
7152
5112
0212
0222
042A
0844
ENDCHAR
STARTCHAR 55D1
ENCODING 21969
SWIDTH 600 0
DWIDTH 16 0
BBX 16 16 0 -1
BITMAP
0020
0020
79FC
4820
4820
4BFE
4880
4904
4BFE
4802
7BFC
4A94
0294
0294
07FE
0000
ENDCHAR
STARTCHAR 55D2
ENCODING 21970
SWIDTH 600 0
DWIDTH 16 0
BBX 16 16 0 -1
BITMAP
0110
0110
F7FC
9110
9040
90A0
9110
9208
95F6
9000
F000
93F8
0208
0208
03F8
0208
ENDCHAR
STARTCHAR 55D3
ENCODING 21971
SWIDTH 600 0
DWIDTH 16 0
BBX 16 16 0 -1
BITMAP
03F0
0110
F0E0
9318
9000
97BC
94A4
9318
94A4
9040
F7FC
90E0
0150
0248
0C46
0040
ENDCHAR
STARTCHAR 55D4
ENCODING 21972
SWIDTH 600 0
DWIDTH 16 0
BBX 16 16 0 -1
BITMAP
0040
0040
F7FC
9040
93F8
9208
93F8
9208
93F8
9208
F3F8
9208
0FFE
0110
0208
0404
ENDCHAR
STARTCHAR 55D6
ENCODING 21974
SWIDTH 600 0
DWIDTH 16 0
BBX 16 16 0 -1
BITMAP
0140
065C
F444
9444
975C
9444
9444
97FC
9040
97FC
F208
9110
00A0
0040
01B0
0E0E
ENDCHAR
STARTCHAR 55DC
ENCODING 21980
SWIDTH 600 0
DWIDTH 16 0
BBX 16 16 0 -1
BITMAP
0040
0044
79F8
4850
4BFE
4840
48F8
4982
4A7E
4C00
79FC
4904
01FC
0104
01FC
0104
ENDCHAR
STARTCHAR 55DD
ENCODING 21981
SWIDTH 600 0
DWIDTH 16 0
BBX 16 16 0 -1
BITMAP
0000
0FFE
F000
93F8
9208
9208
93F8
9000
97FC
9514
F4A4
97FC
0444
0444
0454
0408
ENDCHAR
STARTCHAR 55DF
ENCODING 21983
SWIDTH 600 0
DWIDTH 16 0
BBX 16 16 0 -1
BITMAP
0108
0088
7890
4BFC
4840
49F8
4840
4BFE
4880
4900
79FC
4A20
0420
0820
03FE
0000
ENDCHAR
STARTCHAR 55E1
ENCODING 21985
SWIDTH 600 0
DWIDTH 16 0
BBX 16 16 0 -1
BITMAP
0090
0088
7904
4A42
4C88
49FC
4804
4800
4BDE
4842
7A52
494A
0252
0042
014A
0084
ENDCHAR
STARTCHAR 55E3
ENCODING 21987
SWIDTH 600 0
DWIDTH 16 0
BBX 16 16 0 -1
BITMAP
0000
3E7C
2204
2204
3EF4
0004
7F04
5574
5554
5554
7F54
5554
5574
5504
5114
4308
ENDCHAR
STARTCHAR 55E4
ENCODING 21988
SWIDTH 600 0
DWIDTH 16 0
BBX 16 16 0 -1
BITMAP
0020
0124
7924
49FC
4820
4BFE
4800
4820
49FC
4924
7924
49FC
0020
0024
03FE
0102
ENDCHAR
STARTCHAR 55E5
ENCODING 21989
SWIDTH 600 0
DWIDTH 16 0
BBX 16 16 0 -1
BITMAP
0040
0080
F3F8
9208
93F8
9208
93F8
9080
97FC
9110
F248
9444
0BFA
0040
0040
0040
ENDCHAR
STARTCHAR 55E6
ENCODING 21990
SWIDTH 600 0
DWIDTH 16 0
BBX 16 16 0 -1
BITMAP
0040
0040
F7FC
9040
97FC
9484
9918
93E0
9040
9088
F7FC
9044
0250
0448
0948
0080
ENDCHAR
STARTCHAR 55E8
ENCODING 21992
SWIDTH 600 0
DWIDTH 16 0
BBX 16 16 0 -1
BITMAP
0080
0880
E4FE
A100
AAFC
A484
A4A4
A094
A3FE
A484
ED24
A514
05FE
0404
0428
0010
ENDCHAR
STARTCHAR 55EA
ENCODING 21994
SWIDTH 600 0
DWIDTH 16 0
BBX 16 16 0 -1
BITMAP
0040
0040
F7FC
9040
93F8
9080
97FC
9110
9268
95C6
F040
93F8
00E0
0158
0644
0040
ENDCHAR
STARTCHAR 55EB
ENCODING 21995
SWIDTH 600 0
DWIDTH 16 0
BBX 16 16 0 -1
BITMAP
0000
03FC
7908
49F8
4908
49F8
490E
4FF8
4808
4FBC
78A4
4AA4
0128
0290
04A8
0846
ENDCHAR
STARTCHAR 55EC
ENCODING 21996
SWIDTH 600 0
DWIDTH 16 0
BBX 16 16 0 -1
BITMAP
0110
0110
F7FE
9110
9100
92FE
9208
9608
9AE8
92A8
F2A8
92E8
02A8
0208
0228
0210
ENDCHAR
STARTCHAR 55EF
ENCODING 21999
SWIDTH 600 0
DWIDTH 16 0
BBX 16 16 0 -1
BITMAP
0000
07FC
F444
9444
97FC
9444
94A4
9514
9404
97FC
F040
9024
0522
050A
0908
00F8
ENDCHAR
STARTCHAR 55F2
ENCODING 22002
SWIDTH 600 0
DWIDTH 16 0
BBX 16 16 0 -1
BITMAP
0090
0108
F294
9060
9198
9646
90FC
9308
90B0
90D0
F73E
90C2
0324
0018
0060
0780
ENDCHAR
STARTCHAR 55F3
ENCODING 22003
SWIDTH 600 0
DWIDTH 16 0
BBX 16 16 0 -1
BITMAP
000E
03F0
7844
4A24
4908
4BFE
4A42
4840
4BFE
4880
78FC
4944
0128
0210
0468
0186
ENDCHAR
STARTCHAR 55F5
ENCODING 22005
SWIDTH 600 0
DWIDTH 16 0
BBX 16 16 0 -1
BITMAP
01FC
0808
E450
A420
A1FC
A124
BD24
A5FC
A524
A5FC
E524
A524
052C
0A00
11FE
0000
ENDCHAR
STARTCHAR 55F7
ENCODING 22007
SWIDTH 600 0
DWIDTH 16 0
BBX 16 16 0 -1
BITMAP
0108
0108
7108
57D0
511E
5794
5124
5FD4
5214
53D4
7254
5248
0248
04D4
0424
0842
ENDCHAR
STARTCHAR 55FD
ENCODING 22013
SWIDTH 600 0
DWIDTH 16 0
BBX 16 16 0 -1
BITMAP
0108
0108
F7C8
9108
911E
97D2
9564
9540
97C8
9108
F388
9548
0954
0114
0124
0142
ENDCHAR
STARTCHAR 55FE
ENCODING 22014
SWIDTH 600 0
DWIDTH 16 0
BBX 16 16 0 -1
BITMAP
0420
0220
723E
5F40
54A0
5420
573C
5550
5510
5510
75FE
5510
0528
0928
0B44
1082
ENDCHAR
STARTCHAR 5600
ENCODING 22016
SWIDTH 600 0
DWIDTH 16 0
BBX 16 16 0 -1
BITMAP
0080
0040
F7FC
9110
90A0
97FC
9444
95F4
9444
95F4
F514
9514
05F4
0404
0414
0408
ENDCHAR
STARTCHAR 5601
ENCODING 22017
SWIDTH 600 0
DWIDTH 16 0
BBX 16 16 0 -1
BITMAP
0014
0012
7010
57FE
5410
5490
54D2
5492
57F2
5494
7494
55C8
0AAA
089A
11A6
0042
ENDCHAR
STARTCHAR 5608
ENCODING 22024
SWIDTH 600 0
DWIDTH 16 0
BBX 16 16 0 -1
BITMAP
00A0
00A0
77FE
50A0
57FC
54A4
57FC
54A4
57FC
5000
73F8
5208
03F8
0208
03F8
0208
ENDCHAR
STARTCHAR 5609
ENCODING 22025
SWIDTH 600 0
DWIDTH 16 0
BBX 16 16 0 -1
BITMAP
0100
FFFE
0100
3FF8
0000
1FF0
1010
1FF0
0820
FFFE
1000
7F7C
1144
2144
457C
8244
ENDCHAR
STARTCHAR 560C
ENCODING 22028
SWIDTH 600 0
DWIDTH 16 0
BBX 16 16 0 -1
BITMAP
0000
0FFE
E0A0
A7FC
A4A4
A4A4
A7FC
A000
A7FC
A000
EFFE
A040
0248
0444
0942
0080
ENDCHAR
STARTCHAR 560E
ENCODING 22030
SWIDTH 600 0
DWIDTH 16 0
BBX 16 16 0 -1
BITMAP
07FC
0080
7BF8
4A08
4BF8
4A08
4BF8
4A08
4BF8
4910
797C
4F80
0090
0062
01B2
0E0E
ENDCHAR
STARTCHAR 560F
ENCODING 22031
SWIDTH 600 0
DWIDTH 16 0
BBX 16 16 0 -1
BITMAP
1000
11DC
1144
1144
FD44
11DC
1100
1100
7DDC
4514
4514
45D4
4508
7D08
4514
0122
ENDCHAR
STARTCHAR 5618
ENCODING 22040
SWIDTH 600 0
DWIDTH 16 0
BBX 16 16 0 -1
BITMAP
0040
007C
7840
4BFE
4A42
4A78
4BC4
4A3C
4A00
4A50
7A54
4B54
04D8
0450
09FE
0000
ENDCHAR
STARTCHAR 561B
ENCODING 22043
SWIDTH 600 0
DWIDTH 16 0
BBX 16 16 0 -1
BITMAP
0040
0020
F7FE
9490
9490
9490
97FC
9490
94D8
95B8
F5B4
96D4
0892
0890
1090
0090
ENDCHAR
STARTCHAR 561E
ENCODING 22046
SWIDTH 600 0
DWIDTH 16 0
BBX 16 16 0 -1
BITMAP
0290
0290
77D0
5290
53BC
5114
57D4
5554
5554
57D4
7114
57D4
0124
0124
0154
0188
ENDCHAR
STARTCHAR 561F
ENCODING 22047
SWIDTH 600 0
DWIDTH 16 0
BBX 16 16 0 -1
BITMAP
0200
023E
EF62
A264
A2A4
AFE8
A124
A224
A7A2
ACA2
F4A2
A7B4
04A8
04A0
07A0
04A0
ENDCHAR
STARTCHAR 5623
ENCODING 22051
SWIDTH 600 0
DWIDTH 16 0
BBX 16 16 0 -1
BITMAP
0040
0444
7444
57FC
5000
57BC
54A4
54A4
57BC
54A4
74A4
57BC
04A4
04A4
0AB4
1148
ENDCHAR
STARTCHAR 5624
ENCODING 22052
SWIDTH 600 0
DWIDTH 16 0
BBX 16 16 0 -1
BITMAP
0000
0FBE
E8A2
AAAA
AAAA
AAAA
A514
A8A2
A080
AFFE
E110
A210
03A0
0060
0198
0E04
ENDCHAR
STARTCHAR 5627
ENCODING 22055
SWIDTH 600 0
DWIDTH 16 0
BBX 16 16 0 -1
BITMAP
0080
0040
F7FE
9402
9894
9050
9524
954A
98FA
9300
F040
9444
0444
0444
07FC
0004
ENDCHAR
STARTCHAR 562C
ENCODING 22060
SWIDTH 600 0
DWIDTH 16 0
BBX 16 16 0 -1
BITMAP
0000
03F8
F208
93F8
9208
93F8
9000
9FFE
9480
97BC
F494
9794
04D4
0F88
0094
00A2
ENDCHAR
STARTCHAR 562D
ENCODING 22061
SWIDTH 600 0
DWIDTH 16 0
BBX 16 16 0 -1
BITMAP
0104
0104
77E8
5110
5100
57C4
5004
57C8
5450
5442
77C2
5444
0284
00E8
0F10
0420
ENDCHAR
STARTCHAR 5631
ENCODING 22065
SWIDTH 600 0
DWIDTH 16 0
BBX 16 16 0 -1
BITMAP
0000
07FC
F404
97FC
9400
95FC
9420
95FC
9524
95FC
F420
97FE
062A
06FA
0A0A
1206
ENDCHAR
STARTCHAR 5632
ENCODING 22066
SWIDTH 600 0
DWIDTH 16 0
BBX 16 16 0 -1
BITMAP
0200
023C
EFA4
A224
A224
AFBC
A8A4
AFA4
A8A4
AFBC
E224
A224
1FA4
0244
0254
0288
ENDCHAR
STARTCHAR 5634
ENCODING 22068
SWIDTH 600 0
DWIDTH 16 0
BBX 16 16 0 -1
BITMAP
0090
0294
F2D8
9292
92D2
970E
91F0
9210
97FC
9A44
F3FC
9244
03FC
0444
0454
0808
ENDCHAR
STARTCHAR 5636
ENCODING 22070
SWIDTH 600 0
DWIDTH 16 0
BBX 16 16 0 -1
BITMAP
0480
0482
E49C
AFD0
A490
A790
A49E
A794
A494
A494
EFD4
A014
0514
08A4
1024
0044
ENDCHAR
STARTCHAR 5639
ENCODING 22073
SWIDTH 600 0
DWIDTH 16 0
BBX 16 16 0 -1
BITMAP
0040
0040
F7FC
90A0
9514
9208
97FC
9A0A
93F8
9208
F3F8
9040
0248
0444
0944
0080
ENDCHAR
STARTCHAR 563B
ENCODING 22075
SWIDTH 600 0
DWIDTH 16 0
BBX 16 16 0 -1
BITMAP
0040
07FC
F040
93F8
9000
93F8
9208
93F8
9110
9FFE
F000
93F8
0208
0208
03F8
0208
ENDCHAR
STARTCHAR 563F
ENCODING 22079
SWIDTH 600 0
DWIDTH 16 0
BBX 16 16 0 -1
BITMAP
0000
07FC
F444
9554
94E4
9444
97FC
9040
97FC
9040
F040
9FFE
0000
0524
0492
0892
ENDCHAR
STARTCHAR 564C
ENCODING 22092
SWIDTH 600 0
DWIDTH 16 0
BBX 16 16 0 -1
BITMAP
0208
0110
F000
97FC
9444
9554
94E4
9444
97FC
9000
F3F8
9208
03F8
0208
03F8
0208
ENDCHAR
STARTCHAR 564D
ENCODING 22093
SWIDTH 600 0
DWIDTH 16 0
BBX 16 16 0 -1
BITMAP
0140
0120
F3FE
9220
9620
9BFC
9220
9220
93FC
9220
F220
93FE
0200
0524
0492
0892
ENDCHAR
STARTCHAR 564E
ENCODING 22094
SWIDTH 600 0
DWIDTH 16 0
BBX 16 16 0 -1
BITMAP
0020
03FE
7820
49FC
4800
4BFE
4A02
49FC
4800
49FC
7904
49FC
0104
0088
03FE
0000
ENDCHAR
STARTCHAR 5654
ENCODING 22100
SWIDTH 600 0
DWIDTH 16 0
BBX 16 16 0 -1
BITMAP
0020
07A4
F0A8
9292
9114
9208
95F4
9802
93F8
9208
F208
93F8
0208
0110
0FFE
0000
ENDCHAR
STARTCHAR 5657
ENCODING 22103
SWIDTH 600 0
DWIDTH 16 0
BBX 16 16 0 -1
BITMAP
00A0
04A4
F2A8
90A0
97FC
9110
90A0
97FC
9040
93F8
F040
97FC
00A0
0110
0208
0C06
ENDCHAR
STARTCHAR 5658
ENCODING 22104
SWIDTH 600 0
DWIDTH 16 0
BBX 16 16 0 -1
BITMAP
0000
0FFE
E800
AA28
A948
ABEE
A892
A884
AAA0
AAA8
EBE8
A888
0894
0914
0924
1242
ENDCHAR
STARTCHAR 5659
ENCODING 22105
SWIDTH 600 0
DWIDTH 16 0
BBX 16 16 0 -1
BITMAP
0040
00A0
F110
9248
9DF6
90A0
9248
92A8
93F8
9040
F7FC
9484
0524
05F4
0414
040C
ENDCHAR
STARTCHAR 565C
ENCODING 22108
SWIDTH 600 0
DWIDTH 16 0
BBX 16 16 0 -1
BITMAP
0100
03F0
F410
9FFC
9444
97FC
9444
97FC
9000
9FFE
F000
93F8
0208
03F8
0208
03F8
ENDCHAR
STARTCHAR 5662
ENCODING 22114
SWIDTH 600 0
DWIDTH 16 0
BBX 16 16 0 -1
BITMAP
0080
0100
F7FC
9444
9554
9444
97FC
94E4
9554
9404
F040
97FE
00A0
0110
0208
0C06
ENDCHAR
STARTCHAR 5664
ENCODING 22116
SWIDTH 600 0
DWIDTH 16 0
BBX 16 16 0 -1
BITMAP
0110
0110
F7BC
9110
93B8
9554
9912
9000
93F8
9000
F7FC
9040
0248
0444
0942
0080
ENDCHAR
STARTCHAR 5668
ENCODING 22120
SWIDTH 600 0
DWIDTH 16 0
BBX 16 16 0 -1
BITMAP
0000
3E7C
2244
2244
3E7C
0120
0110
FFFE
0280
0C60
3018
C006
3E7C
2244
2244
3E7C
ENDCHAR
STARTCHAR 5669
ENCODING 22121
SWIDTH 600 0
DWIDTH 16 0
BBX 16 16 0 -1
BITMAP
0000
7FFC
0100
3D78
2548
2548
3D78
0100
7FFC
0100
3D78
2548
2548
3D78
0100
FFFE
ENDCHAR
STARTCHAR 566A
ENCODING 22122
SWIDTH 600 0
DWIDTH 16 0
BBX 16 16 0 -1
BITMAP
03F8
0208
F208
93F8
9000
97BC
94A4
94A4
97BC
9040
FFFE
9160
0250
0448
1846
0040
ENDCHAR
STARTCHAR 566B
ENCODING 22123
SWIDTH 600 0
DWIDTH 16 0
BBX 16 16 0 -1
BITMAP
0080
0040
7BFC
4908
4890
4FFE
4800
4BFC
4A04
4BFC
7A04
4BFC
0040
0524
050A
08FA
ENDCHAR
STARTCHAR 566C
ENCODING 22124
SWIDTH 600 0
DWIDTH 16 0
BBX 16 16 0 -1
BITMAP
0210
0210
F3DE
9528
9884
9000
97FC
9040
9248
9248
F248
9554
08E2
0040
0FFE
0000
ENDCHAR
STARTCHAR 5671
ENCODING 22129
SWIDTH 600 0
DWIDTH 16 0
BBX 16 16 0 -1
BITMAP
0040
007C
7840
4BFE
4A42
4A78
4BC4
4A3C
4A00
4BFE
7A40
4BA4
0258
05B4
0452
09B0
ENDCHAR
STARTCHAR 5676
ENCODING 22134
SWIDTH 600 0
DWIDTH 16 0
BBX 16 16 0 -1
BITMAP
0088
03FE
7888
49FC
4904
49FC
4904
49FC
4880
49FE
7A22
4D52
0102
01FA
000A
0004
ENDCHAR
STARTCHAR 567B
ENCODING 22139
SWIDTH 600 0
DWIDTH 16 0
BBX 16 16 0 -1
BITMAP
0080
0040
F7FE
9512
9BFC
9110
97FC
9110
97FE
9110
F248
95F4
0842
0040
07FC
0000
ENDCHAR
STARTCHAR 567C
ENCODING 22140
SWIDTH 600 0
DWIDTH 16 0
BBX 16 16 0 -1
BITMAP
0010
0008
7788
54BE
5480
5494
5788
547E
5408
5788
76BE
5A88
0A88
0B88
1288
0008
ENDCHAR
STARTCHAR 5685
ENCODING 22149
SWIDTH 600 0
DWIDTH 16 0
BBX 16 16 0 -1
BITMAP
0000
07FC
E040
AFFE
A842
A358
A040
A358
A000
AFFE
E040
A7FC
04A4
04A4
04A4
040C
ENDCHAR
STARTCHAR 5686
ENCODING 22150
SWIDTH 600 0
DWIDTH 16 0
BBX 16 16 0 -1
BITMAP
0108
07FE
F108
9020
97FE
9000
91F8
9108
91F8
9000
F7FE
9402
05FA
050A
05FA
0406
ENDCHAR
STARTCHAR 568E
ENCODING 22158
SWIDTH 600 0
DWIDTH 16 0
BBX 16 16 0 -1
BITMAP
0040
07FE
F000
91F8
9108
91F8
9000
97FE
9402
93F8
F180
9644
01B8
0668
01A6
0E60
ENDCHAR
STARTCHAR 568F
ENCODING 22159
SWIDTH 600 0
DWIDTH 16 0
BBX 16 16 0 -1
BITMAP
0040
07FC
F040
97FE
9402
9BFC
9248
93F8
9248
93F8
F000
97FC
0244
0278
0540
08FE
ENDCHAR
STARTCHAR 5693
ENCODING 22163
SWIDTH 600 0
DWIDTH 16 0
BBX 16 16 0 -1
BITMAP
0080
0040
77FE
5402
5A24
53BC
54A4
5AA8
5510
52E8
7404
5BFA
0040
0248
0444
00C0
ENDCHAR
STARTCHAR 56A3
ENCODING 22179
SWIDTH 600 0
DWIDTH 16 0
BBX 16 16 0 -1
BITMAP
3EF8
2288
3EF8
0000
FFFE
0100
1FF0
1010
1110
02C0
0C30
7008
0000
3EF8
2288
3EF8
ENDCHAR
STARTCHAR 56AF
ENCODING 22191
SWIDTH 600 0
DWIDTH 16 0
BBX 16 16 0 -1
BITMAP
07FC
0040
F7FE
9442
9B5C
9040
975C
9120
93FC
9620
FBFC
9220
03FC
0220
03FE
0200
ENDCHAR
STARTCHAR 56B7
ENCODING 22199
SWIDTH 600 0
DWIDTH 16 0
BBX 16 16 0 -1
BITMAP
0040
07FC
F000
93B8
92A8
93B8
9110
97FC
9110
97FC
F110
9FFE
0128
0310
0D48
0186
ENDCHAR
STARTCHAR 56BC
ENCODING 22204
SWIDTH 600 0
DWIDTH 16 0
BBX 16 16 0 -1
BITMAP
003C
07C0
7244
5128
57FC
54A4
57FC
5008
5788
54FE
7788
54A8
0798
0508
05A8
0690
ENDCHAR
STARTCHAR 56CA
ENCODING 22218
SWIDTH 600 0
DWIDTH 16 0
BBX 16 16 0 -1
BITMAP
0100
7FFC
1110
1FF0
0100
FFFE
9292
1EF0
0440
3FF8
0440
FFFE
0488
0C50
3530
C60E
ENDCHAR
STARTCHAR 56D4
ENCODING 22228
SWIDTH 600 0
DWIDTH 16 0
BBX 16 16 0 -1
BITMAP
0040
07FC
7248
53F8
5040
5FFE
5AAA
53B8
5110
57FC
7110
4FFE
0128
0310
0D48
0186
ENDCHAR
STARTCHAR 56D7
ENCODING 22231
SWIDTH 600 0
DWIDTH 16 0
BBX 16 16 0 -1
BITMAP
0000
7FFC
4004
4004
4004
4004
4004
4004
4004
4004
4004
4004
4004
4004
7FFC
4004
ENDCHAR
STARTCHAR 56DA
ENCODING 22234
SWIDTH 600 0
DWIDTH 16 0
BBX 16 16 0 -1
BITMAP
0000
7FFC
4004
4104
4104
4104
4104
4284
4244
4444
4424
4824
5024
4004
7FFC
4004
ENDCHAR
STARTCHAR 56DB
ENCODING 22235
SWIDTH 600 0
DWIDTH 16 0
BBX 16 16 0 -1
BITMAP
0000
0000
7FFC
4444
4444
4444
4444
4444
4844
483C
5004
6004
4004
7FFC
4004
0000
ENDCHAR
STARTCHAR 56DD
ENCODING 22237
SWIDTH 600 0
DWIDTH 16 0
BBX 16 16 0 -1
BITMAP
0000
7FFC
4004
4004
4FE4
4044
4084
4104
5FF4
4104
4104
4104
4504
4204
7FFC
4004
ENDCHAR
STARTCHAR 56DE
ENCODING 22238
SWIDTH 600 0
DWIDTH 16 0
BBX 16 16 0 -1
BITMAP
0000
3FF8
2008
2008
27C8
2448
2448
2448
2448
2448
27C8
2008
2008
3FF8
2008
0000
ENDCHAR
STARTCHAR 56DF
ENCODING 22239
SWIDTH 600 0
DWIDTH 16 0
BBX 16 16 0 -1
BITMAP
0200
0200
0400
7FFC
4004
4824
4444
4284
4104
4284
4444
4824
4004
4004
7FFC
4004
ENDCHAR
STARTCHAR 56E0
ENCODING 22240
SWIDTH 600 0
DWIDTH 16 0
BBX 16 16 0 -1
BITMAP
0000
7FFC
4004
4104
4104
4104
5FF4
4104
4284
4244
4424
4814
5014
4004
7FFC
4004
ENDCHAR
STARTCHAR 56E1
ENCODING 22241
SWIDTH 600 0
DWIDTH 16 0
BBX 16 16 0 -1
BITMAP
0000
7FFC
4204
4204
4204
7FFC
4444
4444
4884
4684
4104
4284
4444
4824
7FFC
4004
ENDCHAR
STARTCHAR 56E2
ENCODING 22242
SWIDTH 600 0
DWIDTH 16 0
BBX 16 16 0 -1
BITMAP
0000
7FFC
4004
4084
4084
5FF4
4084
4184
4284
4484
4884
5084
4284
4104
7FFC
4004
ENDCHAR
STARTCHAR 56E4
ENCODING 22244
SWIDTH 600 0
DWIDTH 16 0
BBX 16 16 0 -1
BITMAP
0000
7FFC
4104
4104
5FF4
4104
4924
4924
4FE4
4114
4114
4114
40F4
4004
7FFC
4004
ENDCHAR
STARTCHAR 56EB
ENCODING 22251
SWIDTH 600 0
DWIDTH 16 0
BBX 16 16 0 -1
BITMAP
0000
7FFC
4404
4404
47F4
4954
4954
5254
4294
4494
4914
42A4
4444
4004
7FFC
4004
ENDCHAR
STARTCHAR 56ED
ENCODING 22253
SWIDTH 600 0
DWIDTH 16 0
BBX 16 16 0 -1
BITMAP
0000
7FFC
4004
4FE4
4004
4004
5FF4
4484
4484
4484
4894
4894
5074
4004
7FFC
4004
ENDCHAR
STARTCHAR 56F0
ENCODING 22256
SWIDTH 600 0
DWIDTH 16 0
BBX 16 16 0 -1
BITMAP
0000
7FFC
4104
4104
4104
5FF4
4104
4384
4344
4524
4914
5114
4104
4104
7FFC
4004
ENDCHAR
STARTCHAR 56F1
ENCODING 22257
SWIDTH 600 0
DWIDTH 16 0
BBX 16 16 0 -1
BITMAP
0400
0800
7FFC
4204
4204
47F4
4814
5224
4144
4084
4144
4624
5804
4004
7FFC
4004
ENDCHAR
STARTCHAR 56F4
ENCODING 22260
SWIDTH 600 0
DWIDTH 16 0
BBX 16 16 0 -1
BITMAP
0000
7FFC
4104
4104
5FF4
4104
4FE4
4104
5FF4
4114
4114
4154
4124
4104
7FFC
4004
ENDCHAR
STARTCHAR 56F5
ENCODING 22261
SWIDTH 600 0
DWIDTH 16 0
BBX 16 16 0 -1
BITMAP
0000
7FFC
4104
4104
4284
4444
4824
549C
6504
4604
4424
4424
43E4
4004
7FFC
4004
ENDCHAR
STARTCHAR 56F9
ENCODING 22265
SWIDTH 600 0
DWIDTH 16 0
BBX 16 16 0 -1
BITMAP
0000
7FFC
4104
4104
4284
4444
4A24
511C
6FE4
4024
4044
4284
4104
4084
7FFC
4004
ENDCHAR
STARTCHAR 56FA
ENCODING 22266
SWIDTH 600 0
DWIDTH 16 0
BBX 16 16 0 -1
BITMAP
0000
7FFC
4104
4104
5FF4
4104
4104
4FE4
4824
4824
4824
4FE4
4824
4004
7FFC
4004
ENDCHAR
STARTCHAR 56FD
ENCODING 22269
SWIDTH 600 0
DWIDTH 16 0
BBX 16 16 0 -1
BITMAP
0000
7FFC
4004
4004
5FF4
4104
4104
4FE4
4104
4144
4124
5FF4
4004
4004
7FFC
4004
ENDCHAR
STARTCHAR 56FE
ENCODING 22270
SWIDTH 600 0
DWIDTH 16 0
BBX 16 16 0 -1
BITMAP
0000
7FFC
4204
4204
47E4
4C44
5284
4104
46C4
783C
4304
4084
4604
4184
7FFC
4004
ENDCHAR
STARTCHAR 56FF
ENCODING 22271
SWIDTH 600 0
DWIDTH 16 0
BBX 16 16 0 -1
BITMAP
0000
7FFC
4204
4204
5FF4
4404
4FE4
5424
67E4
4424
47E4
4424
44A4
4444
7FFC
4004
ENDCHAR
STARTCHAR 5703
ENCODING 22275
SWIDTH 600 0
DWIDTH 16 0
BBX 16 16 0 -1
BITMAP
0000
7FFC
4144
4124
5FF4
4104
4FE4
4924
4FE4
4924
4FE4
4924
4964
4004
7FFC
4004
ENDCHAR
STARTCHAR 5704
ENCODING 22276
SWIDTH 600 0
DWIDTH 16 0
BBX 16 16 0 -1
BITMAP
0000
7FFC
4004
5FF4
4204
4FE4
4424
7FFC
4004
4FE4
4824
4824
4FE4
4004
7FFC
4004
ENDCHAR
STARTCHAR 5706
ENCODING 22278
SWIDTH 600 0
DWIDTH 16 0
BBX 16 16 0 -1
BITMAP
0000
7FFC
4004
4FE4
4824
4FE4
4004
5FF4
5014
5114
5114
5294
4444
4824
7FFC
4004
ENDCHAR
STARTCHAR 5708
ENCODING 22280
SWIDTH 600 0
DWIDTH 16 0
BBX 16 16 0 -1
BITMAP
0000
7FFC
4924
4544
5FF4
4204
7FFC
4824
57D4
644C
44C4
4424
43E4
4004
7FFC
4004
ENDCHAR
STARTCHAR 5709
ENCODING 22281
SWIDTH 600 0
DWIDTH 16 0
BBX 16 16 0 -1
BITMAP
0000
7FFC
4104
4104
4FE4
4104
5FF4
4444
4284
4FE4
4104
5FF4
4104
4104
7FFC
4004
ENDCHAR
STARTCHAR 570A
ENCODING 22282
SWIDTH 600 0
DWIDTH 16 0
BBX 16 16 0 -1
BITMAP
7FFC
4104
4FE4
4104
4FE4
4104
7FFC
4004
4FE4
4824
4FE4
4824
4FE4
4824
4864
7FFC
ENDCHAR
STARTCHAR 571C
ENCODING 22300
SWIDTH 600 0
DWIDTH 16 0
BBX 16 16 0 -1
BITMAP
7FFC
4004
5FF4
5294
5FF4
4004
7FFC
4004
4FE4
4824
4FE4
4514
4CA4
7444
4624
7FFC
ENDCHAR
STARTCHAR 571F
ENCODING 22303
SWIDTH 600 0
DWIDTH 16 0
BBX 16 16 0 -1
BITMAP
0100
0100
0100
0100
0100
0100
3FF8
0100
0100
0100
0100
0100
0100
0100
FFFE
0000
ENDCHAR
STARTCHAR 5723
ENCODING 22307
SWIDTH 600 0
DWIDTH 16 0
BBX 16 16 0 -1
BITMAP
0000
3FF0
0820
0440
0280
0100
06C0
1830
E10E
0100
1FF0
0100
0100
0100
7FFC
0000
ENDCHAR
STARTCHAR 5728
ENCODING 22312
SWIDTH 600 0
DWIDTH 16 0
BBX 16 16 0 -1
BITMAP
0200
0200
0400
FFFE
0800
0840
1040
3040
57FC
9040
1040
1040
1040
1040
1FFE
1000
ENDCHAR
STARTCHAR 5729
ENCODING 22313
SWIDTH 600 0
DWIDTH 16 0
BBX 16 16 0 -1
BITMAP
1000
11FC
1020
1020
1020
FC20
1020
13FE
1020
1020
1020
1C20
E020
4020
00A0
0040
ENDCHAR
STARTCHAR 572A
ENCODING 22314
SWIDTH 600 0
DWIDTH 16 0
BBX 16 16 0 -1
BITMAP
1040
1040
1080
10FE
1100
FE00
10FC
1008
1010
1020
1040
1C80
E102
4102
00FE
0000
ENDCHAR
STARTCHAR 572C
ENCODING 22316
SWIDTH 600 0
DWIDTH 16 0
BBX 16 16 0 -1
BITMAP
2000
21FC
2000
2000
2000
FBFE
2080
2080
2100
21FC
2004
3804
E004
4004
0028
0010
ENDCHAR
STARTCHAR 572D
ENCODING 22317
SWIDTH 600 0
DWIDTH 16 0
BBX 16 16 0 -1
BITMAP
0100
0100
3FF8
0100
0100
0100
FFFE
0000
0100
0100
3FF8
0100
0100
0100
FFFE
0000
ENDCHAR
STARTCHAR 572E
ENCODING 22318
SWIDTH 600 0
DWIDTH 16 0
BBX 16 16 0 -1
BITMAP
1000
1000
11F8
1008
1008
FC08
1008
11F8
1108
1100
1100
1D00
E102
4102
00FE
0000
ENDCHAR
STARTCHAR 572F
ENCODING 22319
SWIDTH 600 0
DWIDTH 16 0
BBX 16 16 0 -1
BITMAP
1000
11FC
1104
1104
1104
FD04
1104
11FC
1100
1100
1100
1D00
E102
4102
00FE
0000
ENDCHAR
STARTCHAR 5730
ENCODING 22320
SWIDTH 600 0
DWIDTH 16 0
BBX 16 16 0 -1
BITMAP
1020
1020
1020
1120
112C
FD34
1164
13A4
1124
1134
1128
1D22
E122
4102
00FE
0000
ENDCHAR
STARTCHAR 5733
ENCODING 22323
SWIDTH 600 0
DWIDTH 16 0
BBX 16 16 0 -1
BITMAP
1104
1124
1124
1124
1124
FD24
1124
1124
1124
1124
1124
1D24
E124
4224
0204
0404
ENDCHAR
STARTCHAR 5739
ENCODING 22329
SWIDTH 600 0
DWIDTH 16 0
BBX 16 16 0 -1
BITMAP
1040
1020
1020
13FE
1200
FE00
1200
1200
1200
1200
1E00
E200
4200
0400
0400
0800
ENDCHAR
STARTCHAR 573A
ENCODING 22330
SWIDTH 600 0
DWIDTH 16 0
BBX 16 16 0 -1
BITMAP
2000
23F0
2020
2040
2080
F900
23FC
2124
2124
2124
2224
3A44
E444
4884
0128
0210
ENDCHAR
STARTCHAR 573B
ENCODING 22331
SWIDTH 600 0
DWIDTH 16 0
BBX 16 16 0 -1
BITMAP
1008
101C
11E0
1100
1100
FD00
11FE
1110
1110
1110
1110
1D10
E110
4210
0210
0410
ENDCHAR
STARTCHAR 573E
ENCODING 22334
SWIDTH 600 0
DWIDTH 16 0
BBX 16 16 0 -1
BITMAP
1000
17F8
1108
1110
1110
FD20
113C
1104
1104
1288
1E88
E250
4420
0450
0888
0306
ENDCHAR
STARTCHAR 5740
ENCODING 22336
SWIDTH 600 0
DWIDTH 16 0
BBX 16 16 0 -1
BITMAP
1020
1020
1020
1120
1120
FD20
113C
1120
1120
1120
1120
1D20
E120
4120
07FE
0000
ENDCHAR
STARTCHAR 5742
ENCODING 22338
SWIDTH 600 0
DWIDTH 16 0
BBX 16 16 0 -1
BITMAP
1008
101C
11E0
1100
1100
FDFC
1144
1144
1144
1128
1128
1D10
E110
4228
0244
0482
ENDCHAR
STARTCHAR 5747
ENCODING 22343
SWIDTH 600 0
DWIDTH 16 0
BBX 16 16 0 -1
BITMAP
1040
1040
1080
10FC
1104
FE04
1084
1044
1044
1014
1024
1C44
E184
4004
0028
0010
ENDCHAR
STARTCHAR 574A
ENCODING 22346
SWIDTH 600 0
DWIDTH 16 0
BBX 16 16 0 -1
BITMAP
1040
1020
1020
13FE
1080
FC80
1080
10FC
1084
1084
1084
1C84
E104
4104
0228
0410
ENDCHAR
STARTCHAR 574C
ENCODING 22348
SWIDTH 600 0
DWIDTH 16 0
BBX 16 16 0 -1
BITMAP
0440
0820
1010
2FE8
C426
0420
0820
10A0
6140
0100
3FF8
0100
0100
0100
FFFE
0000
ENDCHAR
STARTCHAR 574D
ENCODING 22349
SWIDTH 600 0
DWIDTH 16 0
BBX 16 16 0 -1
BITMAP
1000
11F8
1108
1108
1148
FD28
1128
1108
17FE
1108
1108
1D08
E108
4208
0228
0410
ENDCHAR
STARTCHAR 574E
ENCODING 22350
SWIDTH 600 0
DWIDTH 16 0
BBX 16 16 0 -1
BITMAP
1080
1080
1080
10FC
1104
FD08
1240
1440
1040
10A0
10A0
1D10
E110
4208
0404
0802
ENDCHAR
STARTCHAR 574F
ENCODING 22351
SWIDTH 600 0
DWIDTH 16 0
BBX 16 16 0 -1
BITMAP
1000
1000
13FE
1010
1010
FC20
1020
1068
1064
10A4
1D22
E222
4420
0020
0020
0020
ENDCHAR
STARTCHAR 5750
ENCODING 22352
SWIDTH 600 0
DWIDTH 16 0
BBX 16 16 0 -1
BITMAP
0100
1110
1110
1110
1110
2928
2524
4544
8100
0100
3FF8
0100
0100
0100
FFFE
0000
ENDCHAR
STARTCHAR 5751
ENCODING 22353
SWIDTH 600 0
DWIDTH 16 0
BBX 16 16 0 -1
BITMAP
1080
1040
1040
13FC
1000
FC00
11F0
1110
1110
1110
1110
1D12
E112
4212
020E
0400
ENDCHAR
STARTCHAR 5757
ENCODING 22359
SWIDTH 600 0
DWIDTH 16 0
BBX 16 16 0 -1
BITMAP
1040
1040
1040
13FC
1044
FC44
1044
1044
13FE
1040
10A0
1CA0
E110
4208
0404
0802
ENDCHAR
STARTCHAR 575A
ENCODING 22362
SWIDTH 600 0
DWIDTH 16 0
BBX 16 16 0 -1
BITMAP
0400
25FC
2504
2488
2450
2420
2458
2586
0400
0100
0100
3FF8
0100
0100
FFFE
0000
ENDCHAR
STARTCHAR 575B
ENCODING 22363
SWIDTH 600 0
DWIDTH 16 0
BBX 16 16 0 -1
BITMAP
1000
1000
11FC
1000
1000
FC00
13FE
1020
1020
1040
1040
1C88
E104
43FE
0102
0000
ENDCHAR
STARTCHAR 575C
ENCODING 22364
SWIDTH 600 0
DWIDTH 16 0
BBX 16 16 0 -1
BITMAP
2000
23FE
2200
2220
2220
FA20
22FC
2224
2224
2224
2244
3A44
E484
4484
0928
1210
ENDCHAR
STARTCHAR 575D
ENCODING 22365
SWIDTH 600 0
DWIDTH 16 0
BBX 16 16 0 -1
BITMAP
1000
11FC
1104
1104
1124
FD24
1124
1124
1124
1124
1124
1C50
E048
4084
0102
0602
ENDCHAR
STARTCHAR 575E
ENCODING 22366
SWIDTH 600 0
DWIDTH 16 0
BBX 16 16 0 -1
BITMAP
1020
1040
11FC
1104
1104
FD04
1114
1108
1100
11FE
1002
1C02
E3FA
4002
0014
0008
ENDCHAR
STARTCHAR 575F
ENCODING 22367
SWIDTH 600 0
DWIDTH 16 0
BBX 16 16 0 -1
BITMAP
1080
1040
1040
17FC
1110
FD10
1110
1110
1110
10A0
10A0
1C40
E0A0
4110
0208
0C06
ENDCHAR
STARTCHAR 5760
ENCODING 22368
SWIDTH 600 0
DWIDTH 16 0
BBX 16 16 0 -1
BITMAP
0040
7C40
4440
4840
44A0
44A0
5510
4908
4204
4502
0100
3FF8
0100
0100
FFFE
0000
ENDCHAR
STARTCHAR 5761
ENCODING 22369
SWIDTH 600 0
DWIDTH 16 0
BBX 16 16 0 -1
BITMAP
2020
2020
2020
23FE
2222
FA24
2220
23FC
2284
2288
2248
3A50
E220
4450
0488
0906
ENDCHAR
STARTCHAR 5764
ENCODING 22372
SWIDTH 600 0
DWIDTH 16 0
BBX 16 16 0 -1
BITMAP
1020
1020
1020
11FC
1124
FD24
1124
11FC
1124
1124
1124
1DFC
E124
4020
0020
0020
ENDCHAR
STARTCHAR 5766
ENCODING 22374
SWIDTH 600 0
DWIDTH 16 0
BBX 16 16 0 -1
BITMAP
1000
1000
11FC
1104
1104
FD04
11FC
1104
1104
1104
11FC
1D04
E000
4000
03FE
0000
ENDCHAR
STARTCHAR 5768
ENCODING 22376
SWIDTH 600 0
DWIDTH 16 0
BBX 16 16 0 -1
BITMAP
1040
1020
1020
13FE
1202
FC04
1100
1108
1110
1120
11C0
1D02
E102
4102
00FE
0000
ENDCHAR
STARTCHAR 5769
ENCODING 22377
SWIDTH 600 0
DWIDTH 16 0
BBX 16 16 0 -1
BITMAP
1108
1108
1108
1108
17FE
FD08
1108
1108
1108
11F8
1108
1D08
E108
4108
01F8
0108
ENDCHAR
STARTCHAR 576A
ENCODING 22378
SWIDTH 600 0
DWIDTH 16 0
BBX 16 16 0 -1
BITMAP
1000
11FC
1020
1020
1124
FCA4
10A8
1020
13FE
1020
1020
1C20
E020
4020
0020
0020
ENDCHAR
STARTCHAR 576B
ENCODING 22379
SWIDTH 600 0
DWIDTH 16 0
BBX 16 16 0 -1
BITMAP
1020
1020
1020
1020
103E
FC20
1020
1020
11FC
1104
1104
1D04
E104
4104
01FC
0104
ENDCHAR
STARTCHAR 576D
ENCODING 22381
SWIDTH 600 0
DWIDTH 16 0
BBX 16 16 0 -1
BITMAP
1000
11FC
1104
1104
1104
FDFC
1100
1140
1144
1148
1170
1D40
E142
4242
023E
0400
ENDCHAR
STARTCHAR 576F
ENCODING 22383
SWIDTH 600 0
DWIDTH 16 0
BBX 16 16 0 -1
BITMAP
1000
13FC
1020
1020
1040
FE40
10D0
1148
1244
1444
1640
1840
E040
4000
07FE
0000
ENDCHAR
STARTCHAR 5773
ENCODING 22387
SWIDTH 600 0
DWIDTH 16 0
BBX 16 16 0 -1
BITMAP
2020
2120
2120
2220
22FC
F4A4
2724
2124
2224
2224
24A4
37A4
E0C4
4044
0094
0108
ENDCHAR
STARTCHAR 5776
ENCODING 22390
SWIDTH 600 0
DWIDTH 16 0
BBX 16 16 0 -1
BITMAP
2000
21F8
2108
2148
2128
F908
2108
27FE
2208
2288
2248
3A08
E3FE
4008
0050
0020
ENDCHAR
STARTCHAR 5777
ENCODING 22391
SWIDTH 600 0
DWIDTH 16 0
BBX 16 16 0 -1
BITMAP
2000
2000
27FE
2008
2008
FBC8
2248
2248
2248
2248
23C8
3A48
E008
4008
0028
0010
ENDCHAR
STARTCHAR 577B
ENCODING 22395
SWIDTH 600 0
DWIDTH 16 0
BBX 16 16 0 -1
BITMAP
1008
103C
13E0
1220
1220
FE20
1220
13FE
1220
1210
1210
1E12
E20A
428A
0326
0212
ENDCHAR
STARTCHAR 577C
ENCODING 22396
SWIDTH 600 0
DWIDTH 16 0
BBX 16 16 0 -1
BITMAP
1008
101C
11E0
1100
1100
FD00
11FE
1110
1110
1130
1118
1D14
E112
4210
0210
0410
ENDCHAR
STARTCHAR 5782
ENCODING 22402
SWIDTH 600 0
DWIDTH 16 0
BBX 16 16 0 -1
BITMAP
0010
00F8
3F00
0100
0100
7FFC
0920
0920
FFFE
0920
0920
7FFC
0100
0100
3FF8
0000
ENDCHAR
STARTCHAR 5783
ENCODING 22403
SWIDTH 600 0
DWIDTH 16 0
BBX 16 16 0 -1
BITMAP
1080
1040
1040
1000
13FC
FC00
1008
1108
1108
1090
1090
1C90
E0A0
4020
07FE
0000
ENDCHAR
STARTCHAR 5784
ENCODING 22404
SWIDTH 600 0
DWIDTH 16 0
BBX 16 16 0 -1
BITMAP
0440
0420
FFFE
0910
1120
11C0
2304
4D04
80FC
0100
0100
3FF8
0100
0100
FFFE
0000
ENDCHAR
STARTCHAR 5785
ENCODING 22405
SWIDTH 600 0
DWIDTH 16 0
BBX 16 16 0 -1
BITMAP
1090
1088
1088
1080
13FE
FCA0
10A0
10A4
10A4
10A8
1128
1D32
E122
4262
029E
0400
ENDCHAR
STARTCHAR 5786
ENCODING 22406
SWIDTH 600 0
DWIDTH 16 0
BBX 16 16 0 -1
BITMAP
2040
2040
207E
2040
2040
FBFC
2204
2204
2204
23FC
2204
3A00
E200
4400
0400
0800
ENDCHAR
STARTCHAR 578B
ENCODING 22411
SWIDTH 600 0
DWIDTH 16 0
BBX 16 16 0 -1
BITMAP
0004
7F84
1224
1224
1224
FFA4
1224
2204
2214
4108
8100
3FF8
0100
0100
FFFE
0000
ENDCHAR
STARTCHAR 578C
ENCODING 22412
SWIDTH 600 0
DWIDTH 16 0
BBX 16 16 0 -1
BITMAP
2000
23FE
2202
2202
22FA
FA02
2202
22FA
228A
228A
228A
3AFA
E202
4202
020A
0204
ENDCHAR
STARTCHAR 5792
ENCODING 22418
SWIDTH 600 0
DWIDTH 16 0
BBX 16 16 0 -1
BITMAP
0400
0820
1010
3FF8
0810
1020
2448
7EFC
0204
0100
0100
3FF8
0100
0100
FFFE
0000
ENDCHAR
STARTCHAR 5793
ENCODING 22419
SWIDTH 600 0
DWIDTH 16 0
BBX 16 16 0 -1
BITMAP
2040
2020
2020
27FE
2040
F884
2108
23F0
2022
2044
3988
E610
4020
0050
0188
0604
ENDCHAR
STARTCHAR 579B
ENCODING 22427
SWIDTH 600 0
DWIDTH 16 0
BBX 16 16 0 -1
BITMAP
1000
11F0
1110
1110
1110
FD10
124E
1440
13FC
1040
1CE0
E150
4248
0446
0040
0040
ENDCHAR
STARTCHAR 57A0
ENCODING 22432
SWIDTH 600 0
DWIDTH 16 0
BBX 16 16 0 -1
BITMAP
1000
11F8
1108
1108
11F8
FD08
1108
11F8
1144
1148
1130
1D20
E110
4148
0186
0100
ENDCHAR
STARTCHAR 57A1
ENCODING 22433
SWIDTH 600 0
DWIDTH 16 0
BBX 16 16 0 -1
BITMAP
08A0
0890
1080
30FC
5780
9048
1050
1024
1054
118C
1604
0100
3FF8
0100
0100
FFFE
ENDCHAR
STARTCHAR 57A2
ENCODING 22434
SWIDTH 600 0
DWIDTH 16 0
BBX 16 16 0 -1
BITMAP
1008
101C
11E0
1100
1100
FDFE
1100
1100
117C
1144
1144
1D44
E144
427C
0244
0400
ENDCHAR
STARTCHAR 57A3
ENCODING 22435
SWIDTH 600 0
DWIDTH 16 0
BBX 16 16 0 -1
BITMAP
1000
13FE
1000
1000
11FC
FD04
1104
11FC
1104
1104
11FC
1D04
E000
4000
03FE
0000
ENDCHAR
STARTCHAR 57A4
ENCODING 22436
SWIDTH 600 0
DWIDTH 16 0
BBX 16 16 0 -1
BITMAP
2000
27FE
2040
2080
2110
FA08
27FC
2044
2040
2040
27FC
3840
E040
4040
0FFE
0000
ENDCHAR
STARTCHAR 57A6
ENCODING 22438
SWIDTH 600 0
DWIDTH 16 0
BBX 16 16 0 -1
BITMAP
0000
3FF0
2010
3FF0
2010
3FF0
2208
2190
2C60
311C
0100
3FF8
0100
0100
FFFE
0000
ENDCHAR
STARTCHAR 57A7
ENCODING 22439
SWIDTH 600 0
DWIDTH 16 0
BBX 16 16 0 -1
BITMAP
2040
2040
2080
23FC
2204
FA04
22F4
2294
2294
2294
2294
3AF4
E204
4204
0214
0208
ENDCHAR
STARTCHAR 57A9
ENCODING 22441
SWIDTH 600 0
DWIDTH 16 0
BBX 16 16 0 -1
BITMAP
0000
7FFC
0440
2448
1448
1450
0440
FFFE
0000
0100
0100
3FF8
0100
0100
FFFE
0000
ENDCHAR
STARTCHAR 57AB
ENCODING 22443
SWIDTH 600 0
DWIDTH 16 0
BBX 16 16 0 -1
BITMAP
0840
0840
7DF8
0848
0C48
19C8
684A
08AA
2886
1102
0100
3FF8
0100
0100
FFFE
0000
ENDCHAR
STARTCHAR 57AD
ENCODING 22445
SWIDTH 600 0
DWIDTH 16 0
BBX 16 16 0 -1
BITMAP
2000
23FC
2090
2090
2090
F892
2492
2294
2294
2298
2090
3890
E090
4090
07FE
0000
ENDCHAR
STARTCHAR 57AE
ENCODING 22446
SWIDTH 600 0
DWIDTH 16 0
BBX 16 16 0 -1
BITMAP
2040
2040
27FC
20A0
2110
FA08
2DF6
2000
27FC
2080
2100
3BF8
E008
4008
0050
0020
ENDCHAR
STARTCHAR 57B2
ENCODING 22450
SWIDTH 600 0
DWIDTH 16 0
BBX 16 16 0 -1
BITMAP
1020
1124
1124
1124
11FC
FC00
11FC
1004
1004
11FC
1100
1D00
E102
4102
00FE
0000
ENDCHAR
STARTCHAR 57B4
ENCODING 22452
SWIDTH 600 0
DWIDTH 16 0
BBX 16 16 0 -1
BITMAP
2040
2020
2020
27FE
2000
F800
2090
2254
2224
2224
2254
3A94
E204
4204
03FC
0004
ENDCHAR
STARTCHAR 57B8
ENCODING 22456
SWIDTH 600 0
DWIDTH 16 0
BBX 16 16 0 -1
BITMAP
1040
1020
13FE
1202
1404
FDF8
1000
1000
13FE
1090
1090
1C90
E112
4112
020E
0400
ENDCHAR
STARTCHAR 57C2
ENCODING 22466
SWIDTH 600 0
DWIDTH 16 0
BBX 16 16 0 -1
BITMAP
1000
13FE
1020
1020
11FC
FD24
1124
11FC
1124
1124
11FC
1D20
E0A0
4040
00B0
030E
ENDCHAR
STARTCHAR 57C3
ENCODING 22467
SWIDTH 600 0
DWIDTH 16 0
BBX 16 16 0 -1
BITMAP
2040
2080
2110
2208
27FC
F904
2100
23F8
2440
2040
27FE
3840
E0A0
4110
0208
0C06
ENDCHAR
STARTCHAR 57CB
ENCODING 22475
SWIDTH 600 0
DWIDTH 16 0
BBX 16 16 0 -1
BITMAP
1000
11FC
1124
1124
11FC
FD24
1124
11FC
1020
1020
11FC
1C20
E020
4020
03FE
0000
ENDCHAR
STARTCHAR 57CE
ENCODING 22478
SWIDTH 600 0
DWIDTH 16 0
BBX 16 16 0 -1
BITMAP
2028
2024
2020
27FE
2420
FC20
2424
27A4
24A4
24A8
24A8
3C90
E692
492A
0846
1082
ENDCHAR
STARTCHAR 57CF
ENCODING 22479
SWIDTH 600 0
DWIDTH 16 0
BBX 16 16 0 -1
BITMAP
2008
201C
2770
2110
2110
FA50
225C
2750
2150
2550
2550
3A7C
E200
4500
08FE
1000
ENDCHAR
STARTCHAR 57D2
ENCODING 22482
SWIDTH 600 0
DWIDTH 16 0
BBX 16 16 0 -1
BITMAP
1008
103C
13C0
1044
1224
FD28
1100
1010
13FE
1010
1110
1C90
E090
4010
0050
0020
ENDCHAR
STARTCHAR 57D4
ENCODING 22484
SWIDTH 600 0
DWIDTH 16 0
BBX 16 16 0 -1
BITMAP
2048
2044
27FE
2040
2040
FBFC
2244
2244
23FC
2244
2244
3BFC
E244
4244
0254
0208
ENDCHAR
STARTCHAR 57D5
ENCODING 22485
SWIDTH 600 0
DWIDTH 16 0
BBX 16 16 0 -1
BITMAP
1000
11FC
1104
1104
1104
FDFC
1000
1000
13FE
1020
1020
1DFC
E020
4020
03FE
0000
ENDCHAR
STARTCHAR 57D8
ENCODING 22488
SWIDTH 600 0
DWIDTH 16 0
BBX 16 16 0 -1
BITMAP
2008
2008
2788
2488
24FE
FC88
2488
27C8
24A8
24A8
2488
3C88
E788
4488
0028
0010
ENDCHAR
STARTCHAR 57D9
ENCODING 22489
SWIDTH 600 0
DWIDTH 16 0
BBX 16 16 0 -1
BITMAP
2000
23F8
2208
2208
23F8
F800
2000
27FC
2404
2444
2444
3C44
E4B4
4108
0604
1802
ENDCHAR
STARTCHAR 57DA
ENCODING 22490
SWIDTH 600 0
DWIDTH 16 0
BBX 16 16 0 -1
BITMAP
2000
23F8
2208
2208
2208
FBF8
2040
2040
27FC
2444
24A4
3D14
E614
4404
0414
0408
ENDCHAR
STARTCHAR 57DD
ENCODING 22493
SWIDTH 600 0
DWIDTH 16 0
BBX 16 16 0 -1
BITMAP
2020
2020
2050
2088
2144
FA22
21F8
2008
2050
2020
20A4
3A82
E28A
428A
0478
0000
ENDCHAR
STARTCHAR 57DF
ENCODING 22495
SWIDTH 600 0
DWIDTH 16 0
BBX 16 16 0 -1
BITMAP
2014
2012
2010
27FE
2010
F810
23D2
2252
2252
2254
23D4
3808
E0EA
471A
0226
0042
ENDCHAR
STARTCHAR 57E0
ENCODING 22496
SWIDTH 600 0
DWIDTH 16 0
BBX 16 16 0 -1
BITMAP
1020
1040
11FC
1104
11FC
FD00
11FC
1104
11FC
1020
1C20
E3FE
4020
0020
0020
0020
ENDCHAR
STARTCHAR 57E4
ENCODING 22500
SWIDTH 600 0
DWIDTH 16 0
BBX 16 16 0 -1
BITMAP
2040
2080
23FC
2224
2224
FBFC
2224
2244
23FC
2090
3910
E7FE
4010
0010
0010
0010
ENDCHAR
STARTCHAR 57ED
ENCODING 22509
SWIDTH 600 0
DWIDTH 16 0
BBX 16 16 0 -1
BITMAP
2040
2040
23F8
2048
F848
27FE
2048
2048
23F8
2444
22E8
3950
E248
4446
0140
0080
ENDCHAR
STARTCHAR 57EF
ENCODING 22511
SWIDTH 600 0
DWIDTH 16 0
BBX 16 16 0 -1
BITMAP
2040
2080
27FE
2110
2248
FC46
23F8
2248
2248
23F8
2248
3A48
E3F8
4042
0042
003E
ENDCHAR
STARTCHAR 57F4
ENCODING 22516
SWIDTH 600 0
DWIDTH 16 0
BBX 16 16 0 -1
BITMAP
2040
2040
27FC
2040
2040
FBF8
2208
23F8
2208
23F8
2208
3BF8
E208
4208
0FFE
0000
ENDCHAR
STARTCHAR 57F8
ENCODING 22520
SWIDTH 600 0
DWIDTH 16 0
BBX 16 16 0 -1
BITMAP
1000
11FC
1104
11FC
1104
FDFC
1080
1080
11FE
124A
144A
1C92
E122
4242
0094
0108
ENDCHAR
STARTCHAR 57F9
ENCODING 22521
SWIDTH 600 0
DWIDTH 16 0
BBX 16 16 0 -1
BITMAP
1040
1020
11FC
1000
1108
FC90
1000
13FE
1000
1000
11FC
1D04
E104
4104
01FC
0104
ENDCHAR
STARTCHAR 57FA
ENCODING 22522
SWIDTH 600 0
DWIDTH 16 0
BBX 16 16 0 -1
BITMAP
0820
0820
7FFC
0820
0FE0
0820
0FE0
0820
FFFE
0820
1110
2108
CFE6
0100
0100
3FF8
ENDCHAR
STARTCHAR 57FD
ENCODING 22525
SWIDTH 600 0
DWIDTH 16 0
BBX 16 16 0 -1
BITMAP
2000
23F8
2008
21F8
2008
FBF8
2000
27FE
2442
2844
23F8
3A48
E248
4248
0258
0040
ENDCHAR
STARTCHAR 5800
ENCODING 22528
SWIDTH 600 0
DWIDTH 16 0
BBX 16 16 0 -1
BITMAP
1000
13FE
1202
1202
13FE
FE10
1292
1292
1292
12FE
1210
1E92
E292
4492
04FE
0802
ENDCHAR
STARTCHAR 5802
ENCODING 22530
SWIDTH 600 0
DWIDTH 16 0
BBX 16 16 0 -1
BITMAP
0100
1110
0920
7FFE
4002
9FF4
1010
1010
1FF0
0100
0100
3FF8
0100
0100
FFFE
0000
ENDCHAR
STARTCHAR 5806
ENCODING 22534
SWIDTH 600 0
DWIDTH 16 0
BBX 16 16 0 -1
BITMAP
2140
2120
2120
23FE
2220
FE20
2BFC
2220
2220
23FC
2220
3A20
E220
43FE
0200
0200
ENDCHAR
STARTCHAR 5807
ENCODING 22535
SWIDTH 600 0
DWIDTH 16 0
BBX 16 16 0 -1
BITMAP
0820
0820
FFFE
0820
0FE0
0100
3FF8
2108
3FF8
0100
7FFC
0100
3FF8
0100
FFFE
0000
ENDCHAR
STARTCHAR 580B
ENCODING 22539
SWIDTH 600 0
DWIDTH 16 0
BBX 16 16 0 -1
BITMAP
2000
23DE
2252
2252
2252
FBDE
2252
2252
2252
23DE
2252
3A52
E252
4252
0552
08A6
ENDCHAR
STARTCHAR 580D
ENCODING 22541
SWIDTH 600 0
DWIDTH 16 0
BBX 16 16 0 -1
BITMAP
2100
2100
21F0
2210
FA20
27FC
2A44
2244
2244
23FC
22A4
38B0
E128
422A
0422
081E
ENDCHAR
STARTCHAR 5811
ENCODING 22545
SWIDTH 600 0
DWIDTH 16 0
BBX 16 16 0 -1
BITMAP
100C
FEF0
2080
4880
7EFE
0888
0E88
F908
4A08
0908
0100
3FF8
0100
0100
FFFE
0000
ENDCHAR
STARTCHAR 5815
ENCODING 22549
SWIDTH 600 0
DWIDTH 16 0
BBX 16 16 0 -1
BITMAP
0020
7BFE
4840
48FC
5184
4AFC
4884
68FC
5084
418C
0100
3FF8
0100
0100
FFFE
0000
ENDCHAR
STARTCHAR 5819
ENCODING 22553
SWIDTH 600 0
DWIDTH 16 0
BBX 16 16 0 -1
BITMAP
2000
27FC
20A0
20A0
27FC
FCA4
24A4
24A4
27FC
2040
3840
E7FC
4040
0040
0FFE
0000
ENDCHAR
STARTCHAR 581E
ENCODING 22558
SWIDTH 600 0
DWIDTH 16 0
BBX 16 16 0 -1
BITMAP
2090
2290
2290
27FE
2290
FA90
22F0
2200
23FC
2040
27FE
38E0
E150
4248
0C46
0040
ENDCHAR
STARTCHAR 5820
ENCODING 22560
SWIDTH 600 0
DWIDTH 16 0
BBX 16 16 0 -1
BITMAP
2100
2178
2108
2208
FAFE
2640
2A40
227C
2290
2210
22FE
3A10
E228
4228
0244
0282
ENDCHAR
STARTCHAR 5821
ENCODING 22561
SWIDTH 600 0
DWIDTH 16 0
BBX 16 16 0 -1
BITMAP
0800
0BF8
1208
33F8
5040
97FC
1150
1248
1446
1140
0100
3FF8
0100
0100
FFFE
0000
ENDCHAR
STARTCHAR 5824
ENCODING 22564
SWIDTH 600 0
DWIDTH 16 0
BBX 16 16 0 -1
BITMAP
1000
11FC
1104
1104
11FC
FD04
1104
11FC
1000
13FE
1020
1D20
E13C
4120
02A0
047E
ENDCHAR
STARTCHAR 582A
ENCODING 22570
SWIDTH 600 0
DWIDTH 16 0
BBX 16 16 0 -1
BITMAP
1088
1088
13FE
1088
10F8
FC88
10F8
1088
1088
13FE
1100
1D48
E184
4100
01FE
0000
ENDCHAR
STARTCHAR 5830
ENCODING 22576
SWIDTH 600 0
DWIDTH 16 0
BBX 16 16 0 -1
BITMAP
2000
23FE
2200
22FC
2284
FAFC
2284
22FC
2220
23FE
2248
3AC8
E230
4248
0284
03FE
ENDCHAR
STARTCHAR 5835
ENCODING 22581
SWIDTH 600 0
DWIDTH 16 0
BBX 16 16 0 -1
BITMAP
2040
2044
23F4
2048
F850
27FE
2040
2080
21F8
2B08
3508
21F8
C108
0108
01F8
0108
ENDCHAR
STARTCHAR 5844
ENCODING 22596
SWIDTH 600 0
DWIDTH 16 0
BBX 16 16 0 -1
BITMAP
2000
23FC
2294
2294
2294
FBFC
2080
2040
27FE
2080
20F8
3888
E108
4108
0228
0410
ENDCHAR
STARTCHAR 584C
ENCODING 22604
SWIDTH 600 0
DWIDTH 16 0
BBX 16 16 0 -1
BITMAP
2000
23F8
2208
23F8
2208
FBF8
2000
2000
27BC
2084
24A4
3A94
E4A4
4084
0294
0108
ENDCHAR
STARTCHAR 584D
ENCODING 22605
SWIDTH 600 0
DWIDTH 16 0
BBX 16 16 0 -1
BITMAP
0020
7924
48A8
4820
49FC
7840
4BFE
4888
4924
7A22
4C20
49FC
4820
4820
4BFE
9800
ENDCHAR
STARTCHAR 5851
ENCODING 22609
SWIDTH 600 0
DWIDTH 16 0
BBX 16 16 0 -1
BITMAP
2200
147C
FF44
087C
4944
497C
7F44
0844
1094
2108
4100
3FF8
0100
0100
FFFE
0000
ENDCHAR
STARTCHAR 5854
ENCODING 22612
SWIDTH 600 0
DWIDTH 16 0
BBX 16 16 0 -1
BITMAP
2110
2110
27FC
2110
2040
F8A0
2110
2208
25F6
2000
2000
3BF8
E208
4208
03F8
0208
ENDCHAR
STARTCHAR 5858
ENCODING 22616
SWIDTH 600 0
DWIDTH 16 0
BBX 16 16 0 -1
BITMAP
2040
2020
27FE
2420
25FC
FC24
27FE
2424
25FC
2420
25FC
3D04
E504
4904
09FC
1104
ENDCHAR
STARTCHAR 585E
ENCODING 22622
SWIDTH 600 0
DWIDTH 16 0
BBX 16 16 0 -1
BITMAP
0200
0100
7FFE
4442
9FF4
0440
3FF8
0440
FFFE
0820
1110
2108
DFF6
0100
0100
7FFC
ENDCHAR
STARTCHAR 5865
ENCODING 22629
SWIDTH 600 0
DWIDTH 16 0
BBX 16 16 0 -1
BITMAP
2000
23FE
2000
21FC
2104
F904
21FC
2000
23FE
228A
2252
3BFE
E222
4222
022A
0204
ENDCHAR
STARTCHAR 586B
ENCODING 22635
SWIDTH 600 0
DWIDTH 16 0
BBX 16 16 0 -1
BITMAP
2040
2040
27FC
2040
23F8
FA08
23F8
2208
23F8
2208
23F8
3A08
EFFE
4110
0208
0404
ENDCHAR
STARTCHAR 586C
ENCODING 22636
SWIDTH 600 0
DWIDTH 16 0
BBX 16 16 0 -1
BITMAP
2000
27FE
2420
2440
25FC
FD04
25FC
2504
25FC
2524
3C20
E4A8
4924
0A22
10A0
0040
ENDCHAR
STARTCHAR 587E
ENCODING 22654
SWIDTH 600 0
DWIDTH 16 0
BBX 16 16 0 -1
BITMAP
1040
FE40
0040
7DF8
4448
7C48
00C8
7C48
08AA
FEAA
1106
5202
2100
3FF8
0100
FFFE
ENDCHAR
STARTCHAR 5880
ENCODING 22656
SWIDTH 600 0
DWIDTH 16 0
BBX 16 16 0 -1
BITMAP
2000
27FC
2404
27FC
2420
FCA8
2470
24A8
2504
24A0
3CFC
E520
4420
0BFE
0820
1020
ENDCHAR
STARTCHAR 5881
ENCODING 22657
SWIDTH 600 0
DWIDTH 16 0
BBX 16 16 0 -1
BITMAP
23F8
2208
23F8
2208
23F8
F800
27FC
24A4
24A4
27FC
2000
3BF8
E110
40E0
0318
0C06
ENDCHAR
STARTCHAR 5883
ENCODING 22659
SWIDTH 600 0
DWIDTH 16 0
BBX 16 16 0 -1
BITMAP
2080
2040
23F8
2110
F8A0
27FE
2000
23F8
2208
23F8
2208
3BF8
E120
4122
0222
0C1E
ENDCHAR
STARTCHAR 5885
ENCODING 22661
SWIDTH 600 0
DWIDTH 16 0
BBX 16 16 0 -1
BITMAP
7F7C
4904
7F28
4910
7F7E
0812
7F14
0810
0F50
F020
0100
3FF8
0100
0100
FFFE
0000
ENDCHAR
STARTCHAR 5889
ENCODING 22665
SWIDTH 600 0
DWIDTH 16 0
BBX 16 16 0 -1
BITMAP
2020
27FE
2420
25FC
F424
27FE
2424
25FC
2420
25FC
3524
E5FC
4524
09FC
0924
112C
ENDCHAR
STARTCHAR 5892
ENCODING 22674
SWIDTH 600 0
DWIDTH 16 0
BBX 16 16 0 -1
BITMAP
2040
2020
23FE
2088
2050
FBFE
2252
228A
2306
22FA
228A
3A8A
E2FA
4202
020A
0204
ENDCHAR
STARTCHAR 5893
ENCODING 22675
SWIDTH 600 0
DWIDTH 16 0
BBX 16 16 0 -1
BITMAP
0440
7FFC
0440
1FF0
1010
1FF0
1010
1FF0
0400
FFFE
1010
2108
CFE6
0100
0100
3FF8
ENDCHAR
STARTCHAR 5899
ENCODING 22681
SWIDTH 600 0
DWIDTH 16 0
BBX 16 16 0 -1
BITMAP
2040
2040
27FC
2040
2248
F950
27FE
2000
23F8
2208
22E8
3AA8
E2E8
4208
03F8
0208
ENDCHAR
STARTCHAR 589A
ENCODING 22682
SWIDTH 600 0
DWIDTH 16 0
BBX 16 16 0 -1
BITMAP
2278
2128
246C
22AA
202A
F948
2298
2040
2040
27FC
20E0
3950
E248
4C46
0040
0040
ENDCHAR
STARTCHAR 589E
ENCODING 22686
SWIDTH 600 0
DWIDTH 16 0
BBX 16 16 0 -1
BITMAP
2208
2110
2000
27FC
2444
FD54
24E4
2444
27FC
2000
23F8
3A08
E3F8
4208
03F8
0208
ENDCHAR
STARTCHAR 589F
ENCODING 22687
SWIDTH 600 0
DWIDTH 16 0
BBX 16 16 0 -1
BITMAP
2040
207C
2040
23FE
2242
FA78
23C4
223C
2200
2250
2254
3B54
E4D8
4450
09FE
0000
ENDCHAR
STARTCHAR 58A8
ENCODING 22696
SWIDTH 600 0
DWIDTH 16 0
BBX 16 16 0 -1
BITMAP
0000
3FF8
2928
2548
3FF8
0100
3FF8
0100
FFFE
2448
4224
0100
3FF8
0100
0100
FFFE
ENDCHAR
STARTCHAR 58A9
ENCODING 22697
SWIDTH 600 0
DWIDTH 16 0
BBX 16 16 0 -1
BITMAP
2210
2110
2FD0
2010
27BE
FCA4
27D4
2014
2794
2094
2114
39C8
EF08
4114
0514
0222
ENDCHAR
STARTCHAR 58BC
ENCODING 22716
SWIDTH 600 0
DWIDTH 16 0
BBX 16 16 0 -1
BITMAP
0800
FF78
0848
7F48
4986
7F00
4978
7F48
0828
FF90
4928
7F44
0100
3FF8
0100
FFFE
ENDCHAR
STARTCHAR 58C1
ENCODING 22721
SWIDTH 600 0
DWIDTH 16 0
BBX 16 16 0 -1
BITMAP
0040
7C20
45FC
4488
7C50
43FE
7C20
A5FC
2420
3D20
0100
3FF8
0100
0100
FFFE
0000
ENDCHAR
STARTCHAR 58C5
ENCODING 22725
SWIDTH 600 0
DWIDTH 16 0
BBX 16 16 0 -1
BITMAP
0200
0100
FFFE
1048
24FE
7990
10FC
2290
7CFC
0890
30FE
C080
0100
3FF8
0100
FFFE
ENDCHAR
STARTCHAR 58D1
ENCODING 22737
SWIDTH 600 0
DWIDTH 16 0
BBX 16 16 0 -1
BITMAP
0800
0F00
087C
FFA4
80A4
7F24
4924
94A8
2210
7F28
A244
3E02
0100
3FF8
0100
FFFE
ENDCHAR
STARTCHAR 58D5
ENCODING 22741
SWIDTH 600 0
DWIDTH 16 0
BBX 16 16 0 -1
BITMAP
2040
27FE
2000
21F8
F908
21F8
2000
27FE
2402
23F8
2980
3644
E1B8
4668
01A6
0E60
ENDCHAR
ENDFONT
